<?xml version="1.0" standalone="no"?>
<!DOCTYPE svg PUBLIC "-//W3C//DTD SVG 1.1//EN" "http://www.w3.org/Graphics/SVG/1.1/DTD/svg11.dtd" >
<svg xmlns="http://www.w3.org/2000/svg">
<metadata>
This is a custom SVG font generated by IcoMoon.
<iconset grid="16"></iconset>
</metadata>
<defs>
<font id="icomoon" horiz-adv-x="512" >
<font-face units-per-em="512" ascent="480" descent="-32" />
<missing-glyph horiz-adv-x="512" />
<glyph class="hidden" unicode="&#xf000;" d="M0,480L 512 -32L0 -32 z" horiz-adv-x="0" />
<glyph unicode="&#xe057;" d="M 246.637,132.482 L 246.631,132.482 L 146.915,232.203 L 192.359,277.651 L 246.631,223.374 L 368.6,345.35 C 338.073,373.993 297.125,391.663 251.961,391.663 C 157.696,391.663 81.294,315.262 81.294,220.997 C 81.294,126.749 157.696,50.329 251.961,50.329 C 346.203,50.329 422.627,126.749 422.627,220.997 C 422.627,246.597 416.831,270.785 406.733,292.585 L 246.637,132.482 Z" data-tags="popular-games" />
<glyph unicode="&#xe056;" d="M 114.535,24.889 C 113.055,24.889 111.582,24.889 110.109,24.889 C 99.123,27.967 93.543,35.362 90.624,46.387 C 65.349,141.944 39.737,237.415 14.194,332.909 C 9.546,350.265 15.36,360.112 32.621,364.658 C 57.373,371.177 81.983,378.265 106.815,384.483 C 113.078,386.059 114.841,388.517 114.717,394.809 C 114.392,410.733 123.278,419.277 139.207,419.294 C 170.878,419.328 202.547,419.305 234.223,419.305 C 236.846,419.305 239.474,419.305 241.794,419.305 C 242.671,422.121 243.274,423.987 243.826,425.864 C 248.2,440.702 258.178,446.737 272.691,442.857 C 342.465,424.209 412.223,405.487 481.962,386.707 C 496.048,382.913 502.107,372.213 498.438,357.991 C 494.285,341.907 489.995,325.859 485.712,309.811 C 464.162,229.189 442.595,148.571 421.046,67.949 C 416.455,50.768 406.96,45.079 389.871,49.488 C 369.305,54.801 348.632,59.751 328.261,65.729 C 306.478,72.123 285.218,72.249 263.453,65.354 C 244.616,59.392 225.28,55.034 206.189,49.863 C 175.627,41.586 145.083,33.217 114.535,24.889 ZM 292.864,400.054 C 278.591,400.151 271.587,393.745 267.827,379.722 C 251.227,317.816 234.553,255.931 218.083,193.991 C 214.125,179.109 210.107,164.176 207.536,149.021 C 205.813,138.866 209.061,135.47 219.090,132.744 C 268.026,119.472 316.962,106.206 365.96,93.155 C 380.991,89.151 391.85,95.926 395.902,111.001 C 401.681,132.488 407.518,153.965 413.264,175.463 C 426.985,226.765 440.685,278.073 454.354,329.392 C 459.071,347.079 453.206,357.051 435.712,361.757 C 396.635,372.264 357.598,382.89 318.527,393.421 C 309.122,395.952 299.673,398.302 292.864,400.054 ZM 232.442,383.824 C 212.878,383.824 194.241,383.841 175.61,383.824 C 158.606,383.801 149.993,375.103 149.993,357.957 C 149.982,283.654 149.97,209.351 149.999,135.048 C 149.999,131.368 150.079,127.647 150.642,124.024 C 153.054,108.357 158.395,104.584 175.406,106.894 C 165.991,113.675 162.509,122.448 165.376,133.285 C 171.634,156.939 178.029,180.56 184.36,204.202 C 200.295,263.714 216.223,323.225 232.442,383.824 ZM 113.311,99.192 C 113.567,99.248 113.823,99.299 114.079,99.357 C 114.079,182.442 114.079,265.523 114.079,349.429 C 98.885,345.162 84.207,341.555 69.888,336.85 C 58.846,333.226 53.783,322.93 56.763,311.603 C 69.33,263.81 82.073,216.070 94.783,168.312 C 100.921,145.266 107.134,122.232 113.311,99.192 ZM 366.489,259.851 C 379.654,258.629 391.424,255.647 399.246,244.73 C 410.966,228.363 409.77,207.474 396.624,194.264 C 382.515,180.088 361.978,178.443 345.157,190.611 C 338.478,195.437 332.458,201.176 325.051,207.417 C 326.553,189.975 328.362,173.977 340.594,160.518 C 321.189,165.695 301.784,170.878 280.035,176.68 C 299.4,181.362 309.322,194.355 319.318,208.867 C 309.806,207.28 301.426,205.426 292.944,204.544 C 262.417,201.369 240.623,230.918 252.997,258.44 C 261.877,278.186 284.917,286.64 304.321,277.277 C 306.677,276.138 309.038,275.018 311.495,273.84 C 310.658,282.015 309.277,289.718 309.197,297.438 C 309.009,316.723 321.098,331.474 339.49,335.274 C 357.672,339.041 375.239,330.154 382.669,312.786 C 388.466,299.235 385.901,286.378 377.566,274.562 C 374.203,269.79 370.552,265.222 366.489,259.851 Z" data-tags="video-pokers" />
<glyph unicode="&#xe055;" d="M 256.685,462.438 C 268.061,442.634 277.225,421.090 291.23,403.362 C 331.39,352.515 373.741,303.405 414.76,253.23 C 434.76,228.77 448.465,201.23 450.88,169.015 C 450.979,167.705 452.035,166.465 452.645,165.194 C 452.645,162.259 452.645,159.32 452.645,156.385 C 451.505,150.754 450.605,145.059 449.181,139.505 C 434.215,81.19 374.67,53.406 320.87,80.27 C 306.28,87.56 293.010,97.48 278.635,106.501 C 271.21,94.075 274.221,80.67 278.145,67.33 C 286.615,38.539 297.41,21.035 328.625-14.825 C 280.275-14.825 232.659-14.825 186.69-14.825 C 198.901,3.685 212.71,21.985 223.61,41.886 C 234.59,61.93 242.465,83.59 234.299,105.265 C 214.595,94.75 196.64,82.405 176.821,75.105 C 114.43,52.126 59.050,108.005 60.49,159.045 C 61.73,203.141 82.365,237.381 110.621,268.981 C 155.535,319.221 199.714,370.155 236.99,426.51 C 244.275,437.522 248.725,450.413 254.48,462.438 C 255.221,462.438 255.95,462.438 256.685,462.438 ZM 255.975,434.623 C 214.465,370.274 165.2,313.648 115.339,257.537 C 99.11,239.278 85.87,219.52 77.935,196.365 C 68.215,168.005 67.61,140.145 85.87,114.87 C 112.025,78.665 152.95,70.69 193.595,94.055 C 207.665,102.145 220.179,112.941 233.821,122.795 C 243.16,115.16 249.72,104.795 247.87,91.935 C 245.61,76.255 243.13,60.11 237.259,45.57 C 230.265,28.24 219.57,12.406 210.515-4.010 C 240.73-4.010 271.459-4.010 303.335-4.010 C 300.915-0.515 299.32,1.875 297.64,4.2 C 283.625,23.581 272.325,44.4 266.405,67.665 C 261.16,88.28 259.84,108.43 277.255,121.581 C 295.795,109.895 312.24,96.581 330.92,88.32 C 384.43,64.655 440.23,102.43 440.070,160.779 C 439.981,193.465 427.050,221.587 406.44,245.613 C 354.28,306.421 300.41,365.8 255.975,434.623 ZM 277.56,133.145 C 269.885,122.040 262.35,111.145 255.93,101.865 C 249.65,111.175 242.31,122.055 234.53,133.59 C 223.57,124.15 214.79,115.339 204.79,108.234 C 184.15,93.565 162.019,83.085 135.379,88.065 C 106,93.56 79.505,123.96 78.040,153.61 C 76.31,188.635 90.245,217.775 111.779,243.79 C 156.13,297.354 200.97,350.513 245.52,403.91 C 249.19,408.305 252.21,413.238 255.305,417.598 C 276.415,391.053 296.88,364.33 318.415,338.501 C 342.52,309.595 367.139,281.095 392.379,253.179 C 413.235,230.112 428.27,204.205 433.81,173.645 C 443.545,120 390.235,73.32 343.55,90.23 C 331.685,94.525 319.975,100.065 309.406,106.91 C 298.755,113.81 289.615,123.045 277.56,133.145 ZM 277.834,191.050 C 271.23,189.301 266.11,187.939 261.39,186.69 C 261.39,179.080 261.39,172.615 261.39,165.755 C 287.085,165.755 312.185,165.755 338.185,165.755 C 338.185,171.385 338.705,176.52 337.975,181.47 C 337.585,184.105 335.21,186.57 333.406,188.845 C 330.745,192.205 326.395,194.875 325.17,198.625 C 312.235,238.21 299.855,277.975 287.139,317.632 C 283.935,327.627 282.8,341.265 275.775,346.223 C 268.59,351.293 255.305,347.373 244.741,348.12 C 237.91,348.605 235.395,345.905 233.43,339.568 C 219.255,293.848 204.49,248.312 190.25,202.615 C 187.75,194.594 185.23,187.486 175.661,186.979 C 175.661,179.47 175.661,172.69 175.661,166.065 C 197.050,166.065 217.71,166.065 238.31,166.065 C 238.31,173.505 238.31,180.025 238.31,186.781 C 232.56,188.080 227.259,189.28 222.025,190.465 C 222.4,209.739 223.981,211.39 241.8,211.39 C 248.4,211.39 255.080,210.755 261.59,211.55 C 270.12,212.59 274.725,209.674 275.785,201.080 C 276.175,197.905 277.055,194.795 277.834,191.050 ZM 252.219,61.975 C 253.13,52.72 254.099,42.96 255.065,33.195 C 255.661,33.141 256.261,33.085 256.855,33.030 C 257.8,43.775 258.75,54.525 259.52,63.29 C 268.99,43.806 279.185,22.8 289.575,1.425 C 267.6,1.425 244.895,1.425 222.215,1.425 C 232.33,21.84 242.339,42.035 252.219,61.975 ZM 250.465,297.152 C 255.72,276.257 260.4,257.65 265.221,238.503 C 254.87,238.503 245.43,238.503 234.259,238.503 C 239.581,257.762 244.71,276.333 250.465,297.152 Z" data-tags="ace-spades" />
<glyph unicode="&#xe054;" d="M 266.781,412.83 C 284.73,405.823 302.635,398.695 320.64,391.833 C 369.6,373.177 418.6,354.638 467.579,336.048 C 469.115,335.465 470.635,334.858 472.795,334.015 C 450.235,323.185 428.185,312.61 406.139,302.017 C 356.785,278.307 307.45,254.565 258.040,230.973 C 256.13,230.061 253.194,229.76 251.31,230.543 C 183.326,258.758 115.405,287.133 47.485,315.495 C 46.585,315.87 45.726,316.337 43.965,317.187 C 46.21,318.327 47.695,319.195 49.265,319.862 C 119.045,349.63 188.845,379.37 258.625,409.152 C 261.015,410.175 263.235,411.594 265.541,412.83 C 265.95,412.83 266.365,412.83 266.781,412.83 ZM 472.975,234.954 C 416.55,207.88 361.095,181.28 305.65,154.67 C 289.699,147.010 273.81,139.24 257.781,131.75 C 255.895,130.87 253.010,130.659 251.13,131.45 C 184.305,159.179 117.545,187.075 50.785,214.958 C 48.739,215.81 46.75,216.783 43.515,218.255 C 53.735,222.455 62.859,226.245 72.010,229.962 C 88.77,236.766 105.495,243.667 122.375,250.162 C 125.070,251.198 128.895,251.27 131.539,250.185 C 169.755,234.478 207.905,218.617 245.93,202.461 C 252.259,199.77 257.37,199.53 263.805,202.685 C 303.87,222.333 344.145,241.55 384.48,260.64 C 387.425,262.032 391.739,262.347 394.821,261.341 C 420.575,252.915 446.19,244.065 472.975,234.954 ZM 43.645,123.24 C 69.27,133.701 94.33,144.030 119.525,154.040 C 121.595,154.861 124.755,153.97 127.055,153.019 C 167.495,136.28 207.92,119.49 248.24,102.44 C 253.24,100.33 257.305,100.41 262.125,102.75 C 304.485,123.28 346.905,143.68 389.435,163.859 C 392.375,165.25 396.69,165.56 399.775,164.56 C 423.71,156.781 447.49,148.55 472.43,140.080 C 469.794,138.619 468.15,137.6 466.415,136.76 C 397.425,103.621 328.445,70.459 259.37,37.49 C 256.785,36.259 252.825,35.859 250.265,36.92 C 182.085,65.11 114.010,93.55 45.915,121.95 C 45.355,122.181 44.855,122.55 43.645,123.24 Z" data-tags="all-games" />
<glyph unicode="&#xe053;" d="M 400.465,162.68 C 400.465,157.259 400.465,151.835 400.465,146.415 C 396.155,118.345 381.67,98.806 353.659,90.64 C 349.87,89.535 346.050,88.385 342.16,87.765 C 316.514,83.67 291.821,84.575 270.432,102.030 C 270.027,102.36 269.27,102.255 268.242,102.425 C 266.143,99.2 263.88,95.981 261.873,92.605 C 255.261,81.501 246.341,72.926 234.13,68.446 C 226.345,65.595 218.223,63.661 210.25,61.315 C 201.907,61.315 193.566,61.315 185.223,61.315 C 183.805,61.621 182.395,61.945 180.975,62.219 C 160.059,66.21 141.859,74.905 129.2,92.766 C 120.217,105.435 116.31,120.050 113.893,135.15 C 113.893,141.406 113.893,147.665 113.893,153.92 C 116.562,170.085 123.355,183.93 136.272,194.501 C 154.634,209.52 176.059,212.461 198.678,210.339 C 202.885,209.945 204.565,211.29 206.078,214.915 C 210.81,226.235 215.261,237.743 220.967,248.575 C 244.595,293.425 277.863,328.87 323.741,351.57 C 331.065,355.195 336.595,360.282 341.135,367.125 C 345.215,373.263 350.605,378.53 355.415,384.181 C 357.499,384.181 359.585,384.181 361.67,384.181 C 366.794,380.69 372.655,377.918 376.89,373.562 C 385.846,364.35 384.765,358.075 374.205,350.787 C 373.005,349.96 371.825,349.082 370.545,348.39 C 357.23,341.168 349.31,329.375 343.155,316.093 C 331.13,290.166 329.655,262.655 330.93,234.725 C 331.13,230.327 333.794,229.367 337.575,229.067 C 354.75,227.71 369.206,220.781 380.675,207.76 C 392.080,194.821 397.97,179.51 400.465,162.68 ZM 324.219,329.21 C 296.41,311.080 272.21,290.25 254.301,263.473 C 243.617,247.503 236.007,229.465 227.318,212.21 C 226.555,210.695 227.313,206.935 228.57,206.15 C 234.015,202.76 239.96,200.185 245.621,197.125 C 248.802,195.4 250.487,196.406 252.027,199.4 C 253.827,202.905 255.798,206.395 258.175,209.526 C 268.859,223.61 283.89,228.685 300.815,229.402 C 304.895,229.578 307.81,230.040 307.115,235.307 C 304.48,255.24 306.61,274.855 312.221,294.027 C 315.594,305.552 319.945,316.79 324.219,329.21 Z" data-tags="classic-slots" />
<glyph unicode="&#xe052;" d="M 390.381,18.69 C 362.295,18.69 334.215,18.69 306.13,18.69 C 306.13,23.32 306.13,27.96 306.13,33.39 C 263.91,21.45 222.625,21.819 180.475,33.339 C 180.475,27.64 180.475,23.17 180.475,18.69 C 152.39,18.69 124.31,18.69 96.225,18.69 C 98.166,33.97 99.355,49.39 102.366,64.459 C 103.905,72.181 101.179,76.050 96.105,80.699 C 70.52,104.099 52.194,132.15 43.365,165.95 C 42.295,170.050 40.685,172.28 35.995,173 C 19.475,175.53 7.095,190.050 6.154,205.41 C 4.775,228.13 20.705,241.4 34.89,243.857 C 40.495,244.827 42.206,247.038 43.554,251.93 C 51.925,282.305 67.385,308.633 89.886,330.71 C 124.615,364.792 166.381,384.105 214.55,390.326 C 254.77,395.52 293.485,390.368 330.781,374.675 C 335.545,372.67 338.84,372.965 343.055,375.927 C 366.955,392.725 391.070,409.21 415.12,425.785 C 416.545,426.767 418.080,427.593 420.37,428.981 C 420.37,425.312 420.37,422.733 420.37,420.155 C 420.365,387.57 420.73,354.975 420.17,322.4 C 419.95,309.47 420.915,297.547 429.41,286.992 C 432.145,283.6 432.765,278.562 435.274,274.912 C 436.815,272.667 440.050,270.345 442.605,270.25 C 455.43,269.775 468.285,270.153 481.13,269.977 C 493.2,269.815 501.794,261.453 501.89,249.35 C 502.095,222.23 502.090,195.12 501.905,168 C 501.819,155.23 493.535,147.27 480.73,147.141 C 468.126,147.019 455.515,146.979 442.914,147.181 C 439.13,147.24 436.935,146.31 435.32,142.55 C 424.36,117.061 408.11,95.43 387.305,77.070 C 385.36,75.35 384.165,71.459 384.44,68.76 C 386.13,52.040 388.341,35.381 390.381,18.69 ZM 243.895,355.707 C 222.335,356.253 201.495,352.246 181.105,345.608 C 168.125,341.381 161.875,330.343 165.525,318.678 C 169.165,307.035 180.905,300.77 193.48,304.926 C 226.775,315.925 259.885,315.979 293.154,305.042 C 300.425,302.653 307.645,303.221 314.005,308.2 C 320.855,313.566 323.255,320.688 321.79,329.048 C 320.286,337.634 314.575,342.808 306.645,345.379 C 286.27,351.992 265.465,356.225 243.895,355.707 Z" data-tags="jackpot-games" />
<glyph unicode="&#xe051;" d="M 236.482,267.181 C 231.145,285.43 237.705,299.806 246.827,313.41 C 248.293,315.594 251.215,316.805 253.463,318.463 C 255.065,316.175 257.615,314.080 258.135,311.567 C 268.685,260.29 279.525,209.057 289.070,157.587 C 292.2,140.701 281.935,127.305 270.145,111.179 C 258.461,146.063 255.808,179.918 245.162,211.92 C 245.162,175.537 245.162,139.158 245.162,102.775 C 245.16,99.040 245.25,95.305 245.135,91.575 C 244.781,80.225 239.179,74.285 227.955,74.259 C 174.945,74.141 121.933,74.13 68.922,74.274 C 58.152,74.305 52.438,80.090 52.41,90.899 C 52.275,143.907 52.27,196.918 52.387,249.928 C 52.417,262.562 57.598,267.17 71.607,267.195 C 123.87,267.278 176.133,267.198 228.395,267.181 C 230.6,267.181 232.8,267.181 236.482,267.181 ZM 99.002,137.059 C 88.301,137.282 80.402,129.735 80.497,119.37 C 80.583,109.875 88.747,101.459 98.087,101.24 C 107.77,101.015 116.705,109.779 116.792,119.585 C 116.878,129.261 109.152,136.847 99.002,137.059 ZM 211.387,119.775 C 211.248,129.92 203.025,137.345 192.263,137.055 C 182.175,136.783 175.305,129.461 175.4,119.085 C 175.49,109.245 183.222,101.36 192.905,101.24 C 202.638,101.12 211.525,110.030 211.387,119.775 ZM 116.752,217.253 C 116.635,226.41 108.053,234.979 98.758,235.223 C 89.147,235.472 80.207,226.387 80.445,216.613 C 80.685,206.813 88.393,199.322 98.305,199.255 C 108.81,199.187 116.882,207.063 116.752,217.253 ZM 192.802,235.217 C 182.695,235.040 175.13,226.727 175.44,216.139 C 175.725,206.24 183.295,199.168 193.433,199.326 C 203.387,199.48 211.213,207.059 211.398,216.728 C 211.577,226.185 202.322,235.387 192.802,235.217 ZM 491.37,204.36 C 492.080,191.465 485.855,186.245 476.579,184.33 C 425.28,173.745 373.941,163.315 322.59,152.99 C 311.515,150.762 303.615,156.19 301.325,167.368 C 290.821,218.657 280.35,269.958 270.070,321.295 C 267.715,333.078 273.221,340.59 285.154,343.032 C 335.365,353.312 385.59,363.554 435.81,373.817 C 450.285,376.778 457.261,371.827 460.245,357.046 C 470.16,307.918 480.215,258.821 490.221,209.71 C 490.741,207.178 491.305,204.655 491.37,204.36 ZM 464.56,222.307 C 464.835,232.030 457.345,240 447.415,240.535 C 436.865,241.105 428.859,233.762 428.655,223.32 C 428.455,213.375 435.69,205.185 445.28,204.514 C 454.495,203.867 464.29,212.907 464.56,222.307 ZM 381.021,245.726 C 390.72,245.941 398.87,254.035 398.89,263.482 C 398.915,273.177 389.81,282.181 380.255,281.912 C 370.44,281.634 362,272.497 362.541,262.722 C 363.075,253.017 371.24,245.507 381.021,245.726 ZM 320.4,285.4 C 329.87,285.343 339.090,294.754 338.79,304.17 C 338.486,313.52 330.045,321.608 320.541,321.655 C 310.815,321.705 302.89,314.023 302.64,304.312 C 302.381,294.21 310.595,285.463 320.4,285.4 ZM 286.21,106.27 C 286.565,121.195 298.141,132.857 316.025,136.533 C 342.92,142.057 369.875,147.282 396.805,152.642 C 420.086,157.275 443.339,162.058 466.675,166.392 C 469.865,166.985 473.47,165.367 476.88,164.773 C 476.021,161.385 475.845,157.605 474.175,154.68 C 466.885,141.888 454.36,137.573 440.875,134.853 C 393.985,125.381 347.126,115.73 300.21,106.39 C 295.714,105.495 290.895,106.27 286.21,106.27 ZM 39.867,79.24 C 26.903,86.565 21.53,96.61 21.373,108.505 C 20.857,147.313 20.867,186.137 21.366,224.947 C 21.545,238.827 28.653,250.213 39.867,262.262 C 39.867,200.39 39.867,140.981 39.867,79.24 Z" data-tags="other-games" />
<glyph unicode="&#xe050;" d="M 11.79,258.69 C 14.179,268.315 16.465,277.967 18.979,287.562 C 28.025,322.118 44.36,352.847 67.219,380.285 C 104.28,424.76 151.779,451.035 208.145,462.208 C 211.6,462.893 214.941,464.205 218.33,465.225 C 242.339,465.225 266.36,465.225 290.375,465.225 C 306.075,460.938 322.145,457.663 337.405,452.145 C 368.77,440.795 396.805,424.034 421.33,400.758 C 460.381,363.702 483.845,318.787 494.345,266.501 C 494.88,263.833 496.040,261.29 496.91,258.69 C 496.91,234.675 496.91,210.659 496.91,186.64 C 494.525,177.83 492.070,169.030 489.76,160.195 C 477.474,113.261 452.955,73.61 417.2,41.175 C 383.265,10.385 342.985-8.21 298.2-17.32 C 295.53-17.865 292.981-19.019 290.375-19.895 C 266.36-19.895 242.339-19.895 218.33-19.895 C 210.28-17.674 202.265-15.36 194.19-13.255 C 131.81,2.975 82.75,38.030 47.85,92.090 C 32.39,116.045 21.219,142.179 16.2,170.61 C 15.24,176.045 13.29,181.301 11.79,186.64 C 11.79,210.659 11.79,234.675 11.79,258.69 ZM 252.741-14.981 C 381.834-19.425 485.59,89.47 492.48,208.41 C 500.87,353.173 380.745,467.31 245.59,463.067 C 122.221,459.198 8.53,352.688 13.95,213.070 C 18.659,91.741 122.71-18.825 252.741-14.981 ZM 33.295,223.75 C 28,338.787 133.621,449.32 261.101,444.23 C 376.43,439.627 474.846,345.973 474.615,223.895 C 474.379,97.24 377.16,2.465 251.705,2.080 C 129.045,1.699 29.93,104.979 33.295,223.75 ZM 383.926,222.53 C 387.995,291.69 320.699,363.205 241.11,354.461 C 180.48,347.798 124.565,296.847 122.141,226.634 C 119.68,155.105 177.73,91.715 254.27,91.88 C 327.875,92.035 386.24,154.145 383.926,222.53 ZM 361.634,131.195 C 357.686,127.425 354.055,123.835 350.29,120.394 C 346.32,116.775 345.95,113.526 349.755,109.194 C 357.125,100.81 363.925,91.925 371.065,83.335 C 375.905,77.505 380.885,71.79 385.875,66.085 C 389.046,62.465 392.45,61.815 396.086,65.575 C 401.090,70.745 406.301,75.725 411.12,81.059 C 414.2,84.47 414.465,87.985 410.385,91.365 C 395.955,103.335 381.68,115.486 367.301,127.515 C 365.84,128.739 364.086,129.619 361.634,131.195 ZM 343.099,333.253 C 346.19,335.835 348.93,337.53 350.901,339.872 C 362.425,353.585 373.695,367.51 385.215,381.219 C 388.665,385.328 387.939,388.115 383.725,390.95 C 378.105,394.727 372.535,398.607 367.215,402.795 C 362.195,406.743 359.105,405.842 355.975,400.318 C 346.545,383.68 336.674,367.29 327.145,350.707 C 326.27,349.19 325.726,345.907 326.51,345.272 C 331.695,341.070 337.285,337.368 343.099,333.253 ZM 297.75,357.899 C 299.259,359.352 302.901,361.288 304.030,364.198 C 310.545,380.955 316.435,397.955 322.605,414.845 C 324.665,420.48 323,424.293 317.265,425.962 C 312.286,427.415 307.205,428.565 302.139,429.722 C 292.33,431.962 290.185,430.661 288.45,420.726 C 285.695,405.002 283.090,389.253 280.61,373.485 C 278.895,362.545 279.035,362.51 289.56,359.798 C 291.495,359.301 293.455,358.893 297.75,357.899 ZM 180.56,99.539 C 179.68,100.85 178.925,102.69 177.575,103.805 C 174.505,106.355 170.95,108.33 167.945,110.941 C 164.325,114.085 161.99,113.27 159.065,109.79 C 147.259,95.714 134.99,82.035 123.32,67.855 C 117.385,60.65 117.845,59.874 125.819,53.885 C 130.29,50.52 134.859,47.295 139.381,43.985 C 144.21,40.455 147.63,40.805 150.819,46.6 C 159.49,62.355 168.69,77.825 177.64,93.425 C 178.63,95.15 179.37,97.019 180.56,99.539 ZM 44.96,180.726 C 47.341,172.255 49.35,165.779 50.95,159.2 C 52.41,153.17 55.465,151.661 61.32,153.886 C 76.24,159.541 91.381,164.605 106.259,170.345 C 120.621,175.88 120.315,176.059 115.69,191.205 C 114.12,196.341 112.23,198.575 106.461,197.13 C 99.53,195.39 92.33,194.73 85.28,193.415 C 74.32,191.37 63.301,189.514 52.49,186.815 C 49.501,186.070 47.179,182.6 44.96,180.726 ZM 451.73,147.525 C 448.975,149.57 446.661,152.155 443.775,153.285 C 429.715,158.815 415.606,164.255 401.314,169.141 C 384.88,174.76 386.905,176.95 379.101,157.495 C 377.659,153.915 378.21,151.505 381.63,149.56 C 397.865,140.32 413.941,130.795 430.366,121.905 C 432.81,120.585 438.775,120.92 439.714,122.505 C 444.135,129.95 447.37,138.105 451.73,147.525 ZM 430.85,222.59 C 422.48,222.59 414.11,222.747 405.745,222.547 C 396.219,222.32 394.565,220.855 393.805,213.030 C 392.73,202.040 393.979,199.49 403.525,197.53 C 416.765,194.806 430.125,192.665 443.461,190.459 C 465.685,186.79 460.485,182.36 465.39,206.57 C 465.781,208.495 465.634,210.545 465.57,212.535 C 465.285,221.215 464.475,222.245 455.95,222.52 C 447.59,222.79 439.215,222.581 430.85,222.59 ZM 129.91,151.095 C 127.581,149.83 125.819,148.915 124.101,147.925 C 113.37,141.755 102.474,135.855 91.96,129.335 C 67.101,113.92 65.225,122.379 85.030,94.655 C 89.030,89.059 91.89,88.27 97.25,93.035 C 108.27,102.835 119.69,112.2 131.23,121.385 C 148.27,134.945 143.606,132.47 133.179,148.265 C 132.4,149.445 130.97,150.2 129.91,151.095 ZM 201.221,362.725 C 200.64,364.777 199.92,367.901 198.859,370.903 C 195.41,380.707 191.714,390.43 188.335,400.261 C 179.874,424.832 178.379,425.402 155.4,412.055 C 154.71,411.653 154,411.282 153.299,410.895 C 149.41,408.753 148.59,405.945 150.92,401.983 C 160.84,385.098 170.61,368.125 180.56,351.253 C 181.485,349.682 183.065,347.781 184.645,347.44 C 189.6,346.375 201.35,356.722 201.221,362.725 ZM 147.040,316.633 C 150.44,319.845 153.581,322.787 156.695,325.76 C 160.99,329.865 160.69,333.743 156.8,338.202 C 148.69,347.495 141.139,357.273 132.981,366.51 C 127.575,372.627 121.505,378.152 115.735,383.945 C 109.621,378.303 103.315,372.855 97.45,366.97 C 91.305,360.81 91.234,359.581 98.28,353.867 C 112.465,342.355 126.995,331.267 141.421,320.055 C 142.93,318.885 144.695,318.048 147.040,316.633 ZM 357.645,41.080 C 356.115,43.899 355.025,45.995 353.855,48.050 C 346.741,60.535 339.475,72.935 332.514,85.505 C 324.37,100.219 322.675,100.71 307.925,92.785 C 303.95,90.65 302.85,88.32 304.48,84.155 C 306.954,77.834 309.080,71.385 311.405,65 C 315.505,53.745 319.52,42.461 323.825,31.286 C 325.046,28.115 326.28,23.861 331.39,26.035 C 338.36,29.010 345.375,31.926 352.135,35.339 C 354.33,36.45 355.77,39.055 357.645,41.080 ZM 209.64,15.415 C 216.61,14.381 216.93,19.81 217.685,23.85 C 220.47,38.675 223.080,53.55 225.375,68.465 C 227.874,84.72 227.635,84.514 211.75,88.4 C 206.735,89.63 204.51,88.415 202.87,83.741 C 196.695,66.101 190.28,48.541 183.91,30.97 C 182.53,27.155 182.505,23.45 186.781,22 C 194.285,19.455 202.010,17.575 209.64,15.415 ZM 461.64,266.008 C 459.061,274.87 457.175,282.19 454.765,289.33 C 453.16,294.103 449.645,294.505 445.12,292.762 C 428.035,286.183 410.899,279.722 393.67,273.53 C 388.899,271.818 387.43,269.193 388.766,264.52 C 389.64,261.459 390.44,258.37 391.085,255.255 C 392.11,250.299 395.299,248.817 399.885,249.613 C 417.905,252.733 435.96,255.657 453.875,259.307 C 456.845,259.913 459.15,263.77 461.64,266.008 ZM 267.44,10.88 C 272.905,11.84 278.35,12.905 283.83,13.715 C 287.69,14.29 289.425,15.89 288.635,20.090 C 285.055,39.235 281.695,58.415 278.070,77.55 C 277.745,79.275 276.47,81.365 275.005,82.245 C 266.785,87.17 254.621,80.415 254.48,70.76 C 254.261,55.235 254.33,39.705 254.434,24.175 C 254.515,11.995 255.25,11.37 267.44,10.88 ZM 129.51,290.821 C 126.67,293.421 124.010,296.765 120.57,298.83 C 108.6,306.017 96.419,312.867 84.205,319.648 C 67.355,329.008 65.41,328.182 58.88,309.663 C 58.21,307.781 57.72,305.835 57.015,303.968 C 55.27,299.345 56.56,296.312 61.36,294.667 C 66.27,292.982 71.059,290.968 75.939,289.202 C 88.69,284.585 101.4,279.833 114.28,275.6 C 116.859,274.75 121.545,274.846 122.77,276.427 C 125.605,280.097 126.92,284.945 129.51,290.821 ZM 251.85,400.24 C 251.87,400.24 251.895,400.24 251.92,400.24 C 251.92,407.83 251.97,415.419 251.905,423.008 C 251.785,436.383 251.141,436.874 238.4,434.813 C 235.259,434.305 232.059,434.15 228.885,433.92 C 219.339,433.232 217.295,431.438 218.741,422.297 C 221.539,404.579 225.040,386.977 228.11,369.303 C 228.895,364.795 231.179,363.248 235.61,364 C 238.35,364.465 241.181,364.499 243.97,364.499 C 249.505,364.499 251.899,367.305 251.865,372.68 C 251.81,381.867 251.85,391.053 251.85,400.24 ZM 376.394,296.153 C 378.63,297.105 380.17,297.59 381.539,298.375 C 397.459,307.525 413.341,316.741 429.25,325.899 C 434.75,329.067 434.755,333.213 431.53,337.95 C 428.16,342.89 424.425,347.608 421.41,352.75 C 418.555,357.622 415.565,358.962 411.019,355.038 C 408.61,352.955 406.015,351.085 403.625,348.981 C 393.15,339.762 382.925,330.242 372.2,321.32 C 363.475,314.063 363.234,314.379 369.365,304.68 C 370.43,302.995 371.101,301.017 372.345,299.497 C 373.485,298.105 375.155,297.145 376.394,296.153 ZM 76.775,225.137 C 76.775,225.125 76.775,225.113 76.775,225.098 C 85.13,225.098 93.49,225.13 101.845,225.088 C 107.36,225.055 112.019,225.423 112.59,232.89 C 113.405,243.693 111.941,247.379 103.61,249.013 C 88.030,252.070 72.365,254.739 56.739,257.608 C 45.445,259.682 44.25,258.695 42.965,246.718 C 42.541,242.777 41.41,238.912 41.040,234.97 C 40.339,227.593 41.96,225.49 49.325,225.217 C 58.465,224.88 67.625,225.137 76.775,225.137 ZM 187.73,290.181 C 201.88,278.577 216.070,267.010 230.179,255.36 C 236.021,250.541 241.8,245.64 247.43,240.587 C 251.47,236.965 255.030,237.177 259.019,240.695 C 272.15,252.285 285.37,263.777 298.619,275.227 C 301.63,277.827 304.77,280.325 308.090,282.505 C 313.88,286.297 319.65,289.92 319.48,298.073 C 319.459,299.181 319.915,300.813 320.72,301.337 C 323.56,303.195 326.535,305.541 329.69,305.952 C 331.375,306.173 335.286,302.61 335.11,301.105 C 334.71,297.55 332.89,291.533 330.89,291.213 C 318.15,289.162 312.886,278.89 305.76,270.51 C 295.175,258.059 284.345,245.817 273.785,233.343 C 265.97,224.103 265.915,223.39 274.085,213.505 C 286.27,198.76 298.79,184.295 311.035,169.605 C 314.080,165.95 316.63,161.886 319.405,158.010 L 318.69,157.459 C 306.24,167.36 293.701,177.145 281.385,187.205 C 274.28,193.005 267.43,199.135 260.67,205.335 C 255.941,209.68 252.040,209.375 247.16,205.165 C 234.77,194.49 221.985,184.286 209.339,173.91 C 205.64,170.875 201.725,168.085 198.19,164.87 C 192.91,160.070 187.395,155.594 186.526,147.41 C 186.285,145.16 181.61,141.655 179.17,141.815 C 176.379,141.995 172.225,145.235 171.6,147.845 C 171.030,150.255 174.205,156.030 175.975,156.13 C 188.885,156.885 193.63,167.71 200.53,175.39 C 212.25,188.44 223.070,202.29 234.23,215.84 C 240.24,223.145 240.181,224.75 233.92,232.067 C 219.405,249.053 204.85,266.002 190.4,283.045 C 188.89,284.819 188,287.125 186.825,289.181 C 187.040,289.59 187.339,289.922 187.73,290.181 ZM 260.2,223.53 C 257.365,225.842 255.41,228.68 253.49,228.653 C 251.63,228.63 249.815,225.659 247.981,223.985 C 250.125,222.162 252.055,219.838 254.53,218.792 C 255.379,218.43 257.581,221.258 260.2,223.53 ZM 186.825,289.181 C 184.501,288.795 182.19,288.21 179.85,288.063 C 172.895,287.621 169.099,291.385 170.75,298.005 C 171.501,301.007 174.459,305.6 176.501,305.64 C 179.63,305.703 183.779,303.147 185.73,300.432 C 187.575,297.865 187.15,293.663 187.73,290.181 C 187.339,289.922 187.040,289.59 186.825,289.181 ZM 319.405,158.010 C 322.52,157.73 326.301,158.445 328.59,156.925 C 331.44,155.035 335.099,150.941 334.661,148.45 C 334.179,145.705 329.695,142.455 326.495,141.845 C 324.575,141.48 320.95,145.339 319.606,148.050 C 318.295,150.69 318.915,154.285 318.69,157.459 L 319.405,158.010 Z" data-tags="roulette" />
<glyph unicode="&#xe04f;" d="M 16.787,355.438 C 38.078,360.95 59.37,366.448 80.655,371.983 C 90.017,374.415 99.362,376.922 109.703,378.215 C 81.975,352.373 54.25,326.53 25.413,299.65 C 23.855,310.153 22.533,319.59 21.042,329.002 C 19.72,337.353 18.213,345.674 16.787,354.010 C 16.787,354.486 16.787,354.962 16.787,355.438 ZM 192.221,32.315 C 195.718,88.865 199.118,143.815 202.583,199.81 C 268.925,193.6 334.855,187.425 402.87,181.061 C 332.050,131.050 262.88,82.21 192.221,32.315 ZM 30.61,290.835 C 77.377,265 124.147,239.168 170.918,213.333 C 174.87,211.15 178.613,208.362 182.817,206.912 C 191.621,203.878 193.23,197.875 192.598,189.37 C 190.040,154.995 187.928,120.585 185.753,86.185 C 184.587,67.775 183.627,49.35 181.223,30.595 C 130.678,116.995 80.133,203.398 29.587,289.798 C 29.93,290.143 30.27,290.49 30.61,290.835 ZM 399.725,357.377 C 397.625,350.078 395.985,343.145 393.505,336.53 C 392.779,334.585 389.695,332.318 387.64,332.265 C 361.725,331.602 335.76,330.305 309.895,331.37 C 297.39,331.885 285.021,336.821 272.685,340.107 C 247.053,346.947 221.482,354.017 195.89,361.013 C 194.313,361.442 192.547,361.718 191.27,362.627 C 177.354,372.543 163.518,382.57 149.112,392.962 C 155.562,400.267 161.547,407.242 167.825,413.945 C 168.886,415.078 171.219,415.495 172.943,415.45 C 196.24,414.858 219.72,415.697 242.767,412.935 C 261.893,410.642 280.51,404.097 299.339,399.375 C 306.23,397.647 312.99,395.307 319.95,393.987 C 349.579,388.358 373.539,370.715 399.725,357.377 ZM 207.958,212.035 C 240.527,245.395 272.855,278.51 305.71,312.165 C 339.745,272.685 373.17,233.912 408.12,193.368 C 339.781,199.739 273.619,205.91 207.958,212.035 ZM 193.25,215.503 C 142.602,243.467 93.865,270.381 43.435,298.225 C 90.417,313.497 135.595,328.182 181.848,343.217 C 185.64,300.733 189.36,259.047 193.25,215.503 ZM 299.055,318.352 C 266.594,287.482 234.133,256.615 202.605,226.633 C 199.168,265.070 195.482,306.248 191.661,348.96 C 227.678,339.322 262.655,329.968 297.634,320.61 C 298.11,319.857 298.585,319.105 299.055,318.352 ZM 418.265,194.335 C 414.095,232.207 410.045,268.958 405.8,307.497 C 436.545,281.855 466.090,257.21 496.29,232.015 C 470.006,219.322 444.67,207.088 418.265,194.335 ZM 317.675,318.817 C 342.79,318.817 367.901,318.817 393.634,318.817 C 397.335,285.287 401.075,251.446 405.046,215.45 C 374.805,250.24 345.825,283.583 316.84,316.925 C 317.12,317.555 317.4,318.185 317.675,318.817 ZM 58.027,315.061 C 83.95,338.562 109.873,362.059 136.475,386.177 C 150.693,375.941 164.84,365.75 180.027,354.813 C 139.023,340.815 99.010,327.155 58.998,313.493 C 58.675,314.017 58.353,314.537 58.027,315.061 ZM 475.655,204.987 C 411.25,163.565 346.846,122.145 282.44,80.72 C 281.96,81.295 281.485,81.87 281.010,82.445 C 282.775,83.91 284.455,85.499 286.326,86.819 C 329.79,117.539 372.766,149 417.015,178.555 C 434.659,190.343 455.125,197.913 474.31,207.402 C 474.755,206.598 475.205,205.792 475.655,204.987 ZM 410.6,349.17 C 433.735,320.502 456.019,292.882 478.305,265.263 C 478.010,264.901 477.715,264.537 477.421,264.175 C 476.15,264.861 474.725,265.354 473.625,266.253 C 451.535,284.285 429.55,302.445 407.35,320.339 C 403.939,323.087 403.365,325.43 404.795,329.398 C 406.95,335.373 408.419,341.598 410.6,349.17 ZM 81.17,387.663 C 102.745,395.455 124.32,403.245 147.278,411.537 C 142.93,404.798 139.126,400.29 132.025,398.621 C 116.187,394.893 100.528,390.413 84.79,386.259 C 83.75,385.985 82.659,385.895 81.595,385.72 C 81.453,386.368 81.312,387.015 81.17,387.663 Z" data-tags="scratch-cards" />
<glyph unicode="&#xe046;" d="M 64.613,69.579 C 86.995,91.035 115.72,98.55 144.697,103.585 C 225.558,117.64 306.45,117.67 386.985,100.179 C 411.010,94.966 433.555,86.686 451.965,69.579 C 451.965,65.125 451.965,60.675 451.965,56.221 C 440.945,49.21 430.69,40.13 418.72,35.69 C 400.96,29.105 382.125,25.135 363.495,21.301 C 344.165,17.325 324.535,14.835 305.040,11.701 C 273.875,11.701 242.707,11.701 211.539,11.701 C 192.042,14.835 172.52,17.835 153.055,21.15 C 121.118,26.59 89.625,33.27 64.613,56.221 C 64.613,60.675 64.613,65.125 64.613,69.579 ZM 273.875,448.027 C 280.56,445.118 287.215,442.152 293.93,439.303 C 336.459,421.258 361.246,375.162 352.354,330.608 C 343.17,284.605 304.785,252.225 258.259,251.232 C 210.615,250.217 171.070,281.387 160.246,328.485 C 150.179,372.278 174.23,419.64 216.177,438.53 C 223.482,441.817 230.893,444.867 238.255,448.027 C 250.125,448.027 262,448.027 273.875,448.027 ZM 190.383,386.503 C 170.101,352.6 177.478,313.048 207.61,287.905 C 236.402,263.885 276.79,264.147 305.29,288.537 C 336.459,315.213 342.090,355.802 319.625,392.387 C 302.615,404.298 286.901,395.823 272.019,387.993 C 255.057,379.070 237.737,373.918 218.79,377.638 C 209.503,379.461 200.6,383.242 190.383,386.503 ZM 202.333,401.358 C 237.322,377.183 263.735,405.39 294.815,414.493 C 261.958,435.512 223.725,429.682 202.333,401.358 ZM 239.627,168.815 C 236.84,152.875 234.455,139.225 232.31,126.95 C 185.115,119.255 139.562,111.83 94.097,104.419 C 88.937,151.89 136.282,226.81 185.937,247.525 C 202.385,239.547 218.83,231.558 236.947,222.76 C 223.623,205.080 217.19,186.515 239.627,168.815 ZM 325.525,247.41 C 373.585,229.745 420.31,157.63 418.379,103.434 C 395.575,108.375 372.97,114.355 349.99,117.955 C 327.505,121.475 304.645,122.579 280.415,124.895 C 277.91,138.535 275.425,152.074 272.886,165.945 C 287.145,183.91 296.115,202.090 273.070,221.44 C 291.83,230.73 308.545,239.006 325.525,247.41 Z" data-tags="table-games" />
<glyph unicode="&#xe032;" d="M 491.536,371.616l-147.152-148.048l 147.152-147.168c 6.16-6.144, 6.16-16.112,0-22.272
	l-66.816-66.8c-6.128-6.16-16.096-6.16-22.256,0l-146.912,146.912l-146.032-146.912c-6.144-6.16-16.112-6.16-22.272,0l-66.8,66.8
	c-6.144,6.16-6.144,16.128,0,22.272l 146.032,146.912L 20.464,369.328c-6.144,6.144-6.144,16.112,0,22.272l 66.8,66.8
	c 6.144,6.16, 16.112,6.16, 22.272,0l 145.76-145.76l 147.184,148.048c 6.16,6.16, 16.128,6.16, 22.256,0l 66.816-66.8
	C 497.68,387.728, 497.68,377.76, 491.536,371.616z" data-tags="cancel, close, dismiss" />
<glyph unicode="&#xe02f;" d="M 358.774,480c-84.382-139.493-151.15-70.891-248.795-171.215c-86.168-88.533-56.291-195.153, 16.262-231.872
		c 71.615,36.594, 144.883,118.411, 199.225,236.862c0,0, 48.833-149.571-100.745-293.687c 72.634-85.074, 195.914-25.886, 230.363,109.459
		C 492.533,276.685, 394.89,426.495, 358.774,480zM 48.506-3.121C 48.563-4.574, 50.217-32, 86.189-32c 26.173,0, 158.917,72.339, 227.133,260.102
		C 210.103,45.495, 60.262,0.183, 48.506-3.121z" data-tags="leaf, nature, green" />
<glyph unicode="&#xe02e;" d="M 304,288 C 288,272 288,272 288,256 L 288,32 L 352,32 C 369.673,32 384,17.673 384,0 L 128,0 C 128,17.673 142.327,32 160,32 L 224,32 L 224,256 C 224,272 224,272 208,288 L 70.627,425.373 C 58.182,437.818 62.4,448 80,448 L 432,448 C 449.6,448 453.817,437.818 441.373,425.373 L 304.005,288.005 C 304.003,288.003 304.002,288.001 304,288 Z" data-tags="glass, drink, beverage" />
<glyph unicode="&#xe02d;" d="M 416,384L 416,448 L 96,448 l0-64 L0,384 l0-32 l0-32 c0-53.019, 42.979-96, 96-96c 10.038,0, 19.715,1.543, 28.81,4.401
	c 23.087-33.003, 58.304-56.898, 99.19-65.198L 224,64 l-32,0 c-35.347,0-64-28.653-64-64l 256,0 c0,35.347-28.653,64-64,64l-32,0 l0,99.203 
	c 40.886,8.301, 76.103,32.193, 99.19,65.198C 396.285,225.543, 405.962,224, 416,224c 53.021,0, 96,42.981, 96,96l0,32 L 512,384 L 416,384 z M 96,262
	c-31.981,0-58,26.019-58,58l0,32 l 58,0 l0-32 c0-20.093, 3.715-39.315, 10.477-57.034C 103.075,262.343, 99.578,262, 96,262z M 474,320
	c0-31.981-26.019-58-58-58c-3.578,0-7.075,0.343-10.477,0.966C 412.285,280.685, 416,299.907, 416,320l0,32 l 58,0 L 474,320 z" data-tags="trophy, cup, prize, award, winner, tournament" />
<glyph unicode="&#xe02c;" d="M 385.758,320c 9.063,6.44, 17.757,13.608, 25.722,21.574c 16.701,16.701, 27.873,37.25, 31.456,57.861
	c 3.929,22.593-1.837,43.57-15.815,57.55c-11.15,11.149-26.255,17.043-43.682,17.043c-24.816,0-50.961-11.912-71.73-32.681
	c-33.238-33.238-52.613-79.119-63.038-111.861c-7.72,32.901-23.103,77.322-53.009,107.229C 179.615,452.761, 159.105,461, 139.739,461
	c-15.827,0-30.89-5.502-42.13-16.743c-24.993-24.994-21.616-68.893, 7.543-98.053c 10.397-10.397, 22.549-19.031, 35.36-26.206L 32,319.999 l0-128 
	l 32,0 l0-224 l 384,0 L 448,192 l 32,0 L 480,320 L 385.758,320 z M 337.163,415.891c 13.862,13.862, 31.161,22.137, 46.275,22.137c 5.35,0, 12.854-1.127, 18.225-6.499
	c 13.015-13.014, 5.706-43.154-15.64-64.499c-21.973-21.973-51.53-37.085-77.216-47.030l-25.336,0 
	C 292.755,348.774, 309.501,388.229, 337.163,415.891z M 116.967,399.555c-0.351,4.56-0.025,13.125, 6.098,19.247
	C 128.187,423.925, 134.959,425, 139.739,425l0,0 c 10.629,0, 21.734-5.008, 30.466-13.741c 16.936-16.936, 30.883-43.886, 40.334-77.938
	c 0.255-0.92, 0.504-1.835, 0.747-2.743c-0.907,0.243-1.823,0.491-2.743,0.747c-34.053,9.453-61.001,23.399-77.937,40.335
	C 122.693,379.575, 117.722,389.742, 116.967,399.555z M 224,0L 96,0 L 96,208 l 128,0 L 224,0 z M 224,224L 64,224 l0,64 l 160,0 L 224,224 z M 416,0L 288,0 L 288,208 l 128,0 L 416,0 z
	 M 448,224L 288,224 l0,64 l 160,0 L 448,224 z" data-tags="gift, box, present" />
<glyph unicode="&#xe02b;" d="M 368.010,162.019C 378.193,180.385, 384,201.513, 384,224c0,51.657-30.605,96.162-74.667,116.386
	C 325.695,355.035, 336,376.311, 336,400c0,44.183-35.817,80-80,80c-44.183,0-80-35.817-80-80c0-23.69, 10.305-44.965, 26.667-59.614
	C 158.605,320.162, 128,275.657, 128,224c0-22.487, 5.806-43.615, 15.99-61.979C 77.043,123.287, 32,50.906, 32-32l 448,0 
	C 480,50.906, 434.957,123.287, 368.010,162.019z" data-tags="pawn, chess, game" />
<glyph unicode="&#xe045;" d="M 291.208-17.56 L 489.536,300.128 L 332.896,398.856 C 319.552,402.016 305.168,396.752 297.464,384.512 L 190.48,214.184 C 186.792,208.264 186.272,203.312 187.176,199.096 C 188.136,194.92 190.664,191.184 195.136,188.36 C 199.616,185.56 204.072,184.92 208.24,185.872 C 212.384,186.888 216.648,189.512 220.4,195.408 L 288.072,303.184 C 291.832,309.184 299.76,310.984 305.776,307.216 C 311.76,303.472 313.568,295.56 309.792,289.544 L 242.104,181.768 C 235.304,170.888 225.208,163.472 214.104,160.952 C 202.992,158.296 191.24,160.496 181.504,166.672 C 171.68,172.784 164.584,182.424 162.152,193.528 C 159.632,204.672 161.896,216.984 168.776,227.872 L 275.76,398.184 C 281.848,407.872 290.368,415.032 299.976,419.64 L 232.040,462.44 L 33.040,143.72 L 291.208-17.56 Z" horiz-adv-x="528" data-tags="betslip" />
<glyph unicode="&#xe044;" d="M 299.424,185.344 L 300,185.6 L 336,185.6 L 264,64 L 192,185.6 L 228,185.6 L 299.424,185.344 ZM 228.576,246.656 L 228,246.4 L 192,246.4 L 264,368 L 336,246.4 L 300,246.4 L 228.576,246.656 Z" horiz-adv-x="528" data-tags="increase-decrease" />
<glyph unicode="&#xe02a;" d="M 348.915,316.475l-32.475,32.461L 154.035,186.566c-26.907-26.896-26.907-70.525,0-97.422
	c 26.902-26.896, 70.53-26.896, 97.437,0l 194.886,194.854c 44.857,44.831, 44.857,117.531,0,162.363
	c-44.833,44.851-117.555,44.851-162.391,0L 79.335,241.789l 0.017-0.016c-0.145-0.152-0.306-0.288-0.438-0.423
	c-62.551-62.549-62.551-163.928,0-226.453c 62.527-62.528, 163.934-62.528, 226.494,0c 0.137,0.137, 0.258,0.283, 0.41,0.438l 0.016-0.017
	l 139.666,139.646l-32.493,32.459L 273.35,47.792l-0.008,0 c-0.149-0.134-0.282-0.285-0.423-0.422
	c-44.537-44.529-116.99-44.529-161.538,0c-44.531,44.521-44.531,116.961,0,161.489c 0.152,0.152, 0.302,0.291, 0.445,0.423l-0.023,0.030
	l 204.64,204.583c 26.856,26.869, 70.573,26.869, 97.443,0c 26.856-26.867, 26.856-70.574,0-97.421L 218.999,121.625
	c-8.968-8.961-23.527-8.961-32.486,0c-8.947,8.943-8.947,23.515,0,32.459L 348.915,316.475z" data-tags="attachment, paperclip" />
<glyph unicode="&#xe043;" d="M 269.464,451.776 C 136.888,451.776 29.456,344.336 29.456,211.776 C 29.456,79.24 136.888-28.224 269.464-28.224 C 401.992-28.224 509.464,79.24 509.464,211.776 C 509.464,344.336 401.992,451.776 269.464,451.776 ZM 269.464,48.52 C 179.304,48.52 106.2,121.616 106.2,211.776 C 106.2,301.928 179.304,375.024 269.464,375.024 C 359.616,375.024 432.712,301.928 432.712,211.776 C 432.712,121.616 359.616,48.52 269.464,48.52 ZM 268.928,335.288 C 267.552,341.848 264.496,345.208 259.024,345.208 C 253.52,345.208 250.464,341.848 249.088,335.288 C 247.648,328.6 227.584,232.12 223.552,212.808 C 220.056,195.864 228.4,179.744 242.864,172.776 C 249.896,169.288 258.176,168.072 266.68,169.832 C 285.992,173.832 382.464,193.928 389.152,195.352 C 395.712,196.744 399.088,199.792 399.088,205.272 C 399.088,210.728 395.712,213.808 389.152,215.192 C 383.96,216.304 324.96,228.584 289.648,235.944 C 282.272,271.288 270.024,330.12 268.928,335.288 Z" horiz-adv-x="528" data-tags="live-events" />
<glyph unicode="&#xe029;" d="M 304.438,153.266c-8.641-8.713-1.334-24.565-1.334-24.565l 65.045-108.609c0,0, 10.68-14.32, 19.933-14.32
		c 9.295,0, 18.477,7.635, 18.477,7.635l 51.422,73.504c0,0, 5.179,9.273, 5.299,17.397c 0.186,11.553-17.227,14.717-17.227,14.717
		l-121.744,39.096C 324.307,158.119, 312.379,161.285, 304.438,153.266zM 298.266,208.008c 6.23-10.565, 23.414-7.486, 23.414-7.486l 121.469,35.503c0,0, 16.553,6.733, 18.917,15.709
		c 2.32,8.977-2.73,19.811-2.73,19.811l-58.049,68.376c0,0-5.031,8.646-15.469,9.515c-11.507,0.979-18.59-12.949-18.59-12.949
		l-68.635-108.005C 298.592,228.481, 292.525,217.725, 298.266,208.008zM 240.877,250.117c 14.304,3.522, 16.574,24.302, 16.574,24.302l-0.973,172.935c0,0-2.157,21.333-11.743,27.117
		c-15.035,9.121-19.491,4.359-23.798,3.722L 120.090,440.719c0,0-9.877-3.267-15.021-11.509c-7.345-11.675, 7.464-28.771, 7.464-28.771
		L 217.355,257.56C 217.355,257.56, 227.699,246.862, 240.877,250.117zM 215.973,180.131c 0.361,13.338-16.015,21.35-16.015,21.35L 91.559,256.243c0,0-16.063,6.623-23.861,2.008
		c-5.975-3.53-11.269-9.92-11.786-15.567l-7.059-86.906c0,0-1.058-15.057, 2.845-21.91c 5.527-9.721, 23.714-2.951, 23.714-2.951
		l 126.549,27.971C 206.875,162.193, 215.496,162.49, 215.973,180.131zM 247.44,133.229c-10.863,5.578-23.862-5.975-23.862-5.975l-84.734-93.283c0,0-10.571-14.264-7.885-23.025
		c 2.533-8.209, 6.727-12.289, 12.659-15.163l 85.096-26.863c0,0, 10.317-2.143, 18.129,0.121c 11.090,3.215, 9.047,20.576, 9.047,20.576
		l 1.923,126.301C 257.814,115.915, 257.381,128.085, 247.44,133.229z" data-tags="yelp, social" />
<glyph unicode="&#xe042;" d="M 512,265.373c0,100.463-29.395,181.969-65.741,182.613c 0.146,0.003, 0.289,0.015, 0.437,0.015l-41.471,0 
	c0,0-97.4-73.168-237.615-101.877c-4.28-22.646-7.015-49.637-7.015-80.751c0-31.114, 2.733-58.104, 7.015-80.75
	c 140.214-28.709, 237.615-101.878, 237.615-101.878l 41.471,0 c-0.146,0-0.289,0.013-0.437,0.016C 482.607,83.403, 512,164.909, 512,265.373
	z M 432.413,110.374c-4.691,0-9.766,4.871-12.373,7.774c-6.315,7.032-12.397,17.979-17.594,31.664
	c-11.629,30.616-18.033,71.655-18.033,115.562c0,43.905, 6.405,84.945, 18.033,115.561c 5.197,13.683, 11.281,24.633, 17.594,31.664
	c 2.607,2.906, 7.682,7.776, 12.373,7.776c 4.69,0, 9.768-4.872, 12.371-7.776c 6.317-7.032, 12.398-17.979, 17.594-31.664
	c 11.629-30.615, 18.034-71.656, 18.034-115.561c0-43.902-6.405-84.944-18.034-115.562c-5.195-13.683-11.281-24.632-17.594-31.664
	C 442.181,115.245, 437.104,110.374, 432.413,110.374z M 125.906,265.373c0,25.975, 1.905,51.215, 5.526,74.547
	c-23.686-3.277-44.471-5.162-70.17-5.162c-33.529,0-33.529,0-33.529,0L0,287.414l0-44.085 l 27.73-47.343c0,0,0,0, 33.53,0
	c 25.699,0, 46.485-1.887, 70.17-5.162C 127.811,214.157, 125.906,239.397, 125.906,265.373z M 184.075,158.914l-63.999,12.255
	l 40.921-160.771c 2.118-8.317, 10.371-12.519, 18.343-9.327l 59.278,23.726c 7.973,3.189, 11.163,11.982, 7.098,19.542L 184.075,158.914zM 432.413,205.635c-1.809,0-3.763,1.877-4.769,2.997c-2.435,2.71-4.778,6.93-6.781,12.203
	c-4.481,11.8-6.95,27.617-6.95,44.539c0,16.922, 2.469,32.739, 6.95,44.539c 2.003,5.274, 4.347,9.494, 6.781,12.203
	c 1.005,1.12, 2.96,2.997, 4.769,2.997c 1.808,0, 3.765-1.878, 4.769-2.997c 2.435-2.71, 4.778-6.929, 6.781-12.203
	c 4.482-11.799, 6.951-27.617, 6.951-44.539c0-16.921-2.469-32.739-6.951-44.539c-2.002-5.274-4.347-9.494-6.781-12.203
	C 436.177,207.512, 434.221,205.635, 432.413,205.635z" data-tags="bullhorn, megaphone, announcement, advertisement, news" />
<glyph unicode="&#xe028;" d="M 395.749,207.954c-0.647,64.841, 52.879,95.938, 55.271,97.483c-30.077,44.010-76.925,50.039-93.621,50.736
		c-39.871,4.037-77.798-23.474-98.033-23.474c-20.184,0-51.409,22.877-84.475,22.275c-43.458-0.646-83.529-25.269-105.906-64.19
		c-45.152-78.349-11.563-194.419, 32.445-257.963c 21.504-31.102, 47.146-66.038, 80.813-64.79c 32.421,1.294, 44.681,20.979, 83.878,20.979
		c 39.197,0, 50.214-20.979, 84.525-20.335c 34.887,0.648, 56.991,31.699, 78.346,62.898c 24.695,36.085, 34.863,71.019, 35.462,72.813
		C 463.679,104.741, 396.423,130.505, 395.749,207.954zM 331.281,398.239C 349.15,419.918, 361.211,449.995, 357.921,480c-25.739-1.048-56.939-17.145-75.405-38.775
		c-16.571-19.189-31.074-49.813-27.187-79.218C 284.062,359.765, 313.393,376.609, 331.281,398.239z" data-tags="apple" />
<glyph unicode="&#xe027;" d="M 432,320c-17.6,0-32-14.4-32-32l0-128 c0-17.6, 14.4-32, 32-32s 32,14.4, 32,32L 464,288 C 464,305.6, 449.6,320, 432,320zM 48,320c-17.6,0-32-14.4-32-32l0-128 c0-17.6, 14.4-32, 32-32s 32,14.4, 32,32L 80,288 C 80,305.6, 65.599,320, 48,320zM 96,112c0-26.51, 21.49-48, 48-48l 16,0 l0-64 c0-17.6, 14.4-32, 32-32s 32,14.4, 32,32l0,64 l 32,0 l0-64 c0-17.6, 14.401-32, 32-32s 32,14.4, 32,32
		l0,64 l 16,0 c 26.51,0, 48,21.49, 48,48L 384,288 L 96,288 L 96,112 zM 299.299,435.253l 20.251,38.903c 1.016,1.951, 0.25,4.379-1.701,5.395s-4.379,0.25-5.395-1.701l-20.559-39.493
		C 275.797,444.581, 258.299,448, 240,448c-18.298,0-35.797-3.419-51.898-9.643L 167.544,477.849c-1.016,1.951-3.443,2.717-5.395,1.701
		s-2.717-3.443-1.701-5.395l 20.25-38.904c-45.315-20.509-78.12-63.792-83.81-115.253l 286.221,0 
		C 377.421,371.461, 344.615,414.743, 299.299,435.253z M 176,344.8c-12.813,0-23.2,10.387-23.2,23.2c0,12.813, 10.387,23.2, 23.2,23.2
		s 23.2-10.387, 23.2-23.2C 199.199,355.187, 188.813,344.8, 176,344.8z M 304,344.8c-12.813,0-23.201,10.387-23.201,23.2
		c0,12.813, 10.389,23.2, 23.201,23.2s 23.199-10.387, 23.199-23.2C 327.199,355.187, 316.813,344.8, 304,344.8z" data-tags="android, os, mobile" />
<glyph unicode="&#xe026;" d="M 206.115,224.043c-23.854,12.259-47.043,18.479-68.939,18.479c-2.978,0-5.976-0.090-8.974-0.354
		c-27.941-2.312-53.461-9.683-69.875-15.414c-4.354-1.599-8.817-3.288-13.415-5.153L0,65.904
		c 30.851,11.416, 58.146,16.969, 83.135,16.969c 40.423,0, 69.763-15.104, 93.995-30.653c 11.481,38.959, 39.022,133.045, 47.241,161.162
		C 218.397,217.025, 212.334,220.667, 206.115,224.043zM 264.174,184.465l-45.223-157.074c 13.416-7.686, 58.549-32.025, 93.106-32.025c 27.896,0, 59.126,7.149, 95.417,21.896
		l 43.178,150.987c-29.315-9.461-57.438-14.259-83.733-14.259C 318.945,153.99, 285.363,169.539, 264.174,184.465zM 146.411,295.605c 38.559-0.399, 67.075-15.104, 90.709-30.251l 46.376,158.672c-9.773,5.598-35.403,19.547-53.929,24.299
		c-12.193,2.842-25.010,4.307-38.602,4.307c-25.898-0.488-54.194-6.973-86.445-19.899l-44.219-155.298
		c 32.405,12.218, 60.322,18.17, 86.043,18.17C 146.366,295.605, 146.411,295.605, 146.411,295.605zM 512,380.938c-29.407-11.416-58.104-17.233-85.514-17.233c-45.843,0-79.646,15.901-101.547,31.183L 278.965,235.77
		c 30.873-19.854, 64.145-29.939, 99.061-29.939c 28.474,0, 57.97,6.84, 87.731,20.344l-0.091,1.111l 1.867,0.443L 512,380.938z" data-tags="windows, os" />
<glyph unicode="&#xe025;" d="M 0.175,224 L 0,380.037 L 192,406.109 L 192,224 ZM 224,410.759 L 479.936,448 L 479.936,224 L 224,224 ZM 479.999,192 L 479.936-32 L 224,4.008 L 224,192 ZM 192,8.082 L 0.157,34.379 L 0.146,192 L 192,192 Z" data-tags="windows8, os" />
<glyph unicode="&#xe03e;" d="M-0.501,96L 255.516,32L 511.5,96L 511.5,32L 255.516-32L-0.501,32 		zM-0.501,224L 255.516,160L 511.5,224L 511.5,160L 255.516,96L-0.501,160 		zM-0.501,352L 255.516,288L 511.5,352L 511.5,288L 255.516,224L-0.501,288 		zM-0.501,480L 255.516,416L 511.5,480L 511.5,416L 255.516,352L-0.501,416 		z" horiz-adv-x="510" data-tags="layers-alt" />
<glyph unicode="&#xe03d;" d="M 464-32L 128-32 L 128,480 l 160,0 l0-288 l 48,64l 32,0 l 48-64L 416,480 l 48,0 c 8.848,0, 16-7.168, 16-16l0-480 C 480-24.848, 472.848-32, 464-32
	z M 32-16L 32,464 c0,8.832, 7.152,16, 16,16l 48,0 l0-512 L 48-32 C 39.152-32, 32-24.848, 32-16z" data-tags="bookmark, favorite" />
<glyph unicode="&#xe024;" d="M 507.331,68.67c-0.002,0.002-0.005,0.005-0.006,0.005L 352.003,224l 155.322,155.325c 0.002,0.002, 0.005,0.003, 0.006,0.005
		c 1.672,1.673, 2.881,3.627, 3.656,5.709c 2.123,5.688, 0.912,12.341-3.662,16.915L 433.952,475.326c-4.574,4.573-11.225,5.783-16.914,3.661
		c-2.080-0.775-4.035-1.984-5.709-3.655c0-0.002-0.002-0.003-0.005-0.005L 256.001,320L 100.677,475.325
		c-0.002,0.002-0.003,0.003-0.005,0.005c-1.673,1.671-3.627,2.88-5.707,3.655c-5.69,2.125-12.341,0.913-16.915-3.661L 4.675,401.951
		c-4.574-4.574-5.784-11.226-3.661-16.914c 0.776-2.080, 1.985-4.035, 3.656-5.709c 0.002-0.001, 0.003-0.003, 0.005-0.005L 160.001,224
		L 4.675,68.674c-0.001-0.002-0.003-0.003-0.005-0.005c-1.671-1.673-2.88-3.627-3.657-5.707c-2.125-5.688-0.913-12.341, 3.661-16.915
		l 73.374-73.373c 4.575-4.574, 11.226-5.784, 16.915-3.661c 2.080,0.776, 4.035,1.985, 5.709,3.656c 0.001,0.002, 0.003,0.003, 0.005,0.005
		l 155.325,155.325l 155.325-155.325c 0.002-0.001, 0.005-0.003, 0.006-0.005c 1.674-1.672, 3.627-2.881, 5.707-3.657
		c 5.689-2.123, 12.342-0.913, 16.914,3.661l 73.373,73.374c 4.574,4.574, 5.785,11.227, 3.662,16.915
		C 510.211,65.043, 509.003,66.997, 507.331,68.67z" data-tags="close, cancel, quit, remove, cross" />
<glyph unicode="&#xe03c;" d="M 507.296,365.872l-45.424,45.424c-6.288,6.288-16.416,6.288-22.704,0L 206.928,166.112
	l-133.12,133.184c-6.352,6.352-16.656,6.352-23.008,0l-46.016-46.048c-6.352-6.336-6.352-16.64,0-23.008l 189.328-193.728
	c 3.664-3.68, 8.64-4.944, 13.424-4.32c 4.944-0.736, 10.096,0.512, 13.888,4.32L 507.296,343.152C 513.568,349.424, 513.568,359.6, 507.296,365.872z" data-tags="checkmark, tick" />
<glyph unicode="&#xe012;" d="M0,288l 352,0 l0-64 L0,224 L0,288 z M0,384l 352,0 l0-64 L0,320 L0,384 z M0,192l 352,0 l0-64 L0,128 L0,192 z M0,96l 352,0 l0-64 L0,32 L0,96 z M 384,192l 64-96l 64,96L 384,192 z M 512,224
	l-64,96l-64-96L 512,224 z" data-tags="menu, options" />
<glyph unicode="&#xe013;" d="M 32,384L 480,384L 480,288L 32,288zM 32,256L 480,256L 480,160L 32,160zM 32,128L 480,128L 480,32L 32,32z" data-tags="menu, list, items, lines, options" />
<glyph unicode="&#xe014;" d="M 448,224l-80,0 L 256,112L 144,224L 64,224 L0,96l0-32 l 512,0 l0,32 L 448,224z M0,32l 512,0 l0-32 L0,0 L0,32 z M 288,320L 288,448 l-64,0 l0-128 L 112,320 l 144-144l 144,144
	L 288,320 z" data-tags="download, store, save" />
<glyph unicode="&#xe015;" d="M 512,281.475l-176.89,25.704L 256,467.47l-79.109-160.291L0,281.475l 128-124.769L 97.784-19.47L 256,63.709l 158.216-83.179
	l-30.217,176.176L 512,281.475z M 256,103.251l-0.471-0.248L 256,388.387l 55.869-113.198l 124.918-18.152l-90.394-88.111l 21.339-124.415
	L 256,103.251z" data-tags="star, rate, half" />
<glyph unicode="&#xe016;" d="M 512,281.475L 335.11,307.179L 256,467.47l-79.109-160.291L0,281.475l 128-124.769L 97.784-19.47L 256,63.709l 158.216-83.179
	l-30.217,176.176L 512,281.475z" data-tags="star, rate, favorite, bookmark" />
<glyph unicode="&#xe017;" d="M 512,281.475l-176.89,25.704L 256,467.47l-79.109-160.291L0,281.475l 128-124.769L 97.784-19.47L 256,63.709l 158.216-83.179
	l-30.217,176.176L 512,281.475z M 256,103.251l-111.731-58.741l 21.338,124.415l-90.393,88.111l 124.92,18.152L 256,388.387l 55.869-113.198
	l 124.918-18.152l-90.394-88.111l 21.339-124.415L 256,103.251z" data-tags="star, rate, favorite, bookmark" />
<glyph unicode="&#xe018;" d="M 256,400.638 L 83.583,32 L 428.417,32 L 256,400.638 Z M 256,480 L 256,480 C 267.035,480 278.070,472.559 286.442,457.675 L 504.978,22.12 C 521.723-7.646 507.478-32 473.327-32 L 38.673-32 C 4.521-32 -9.722-7.646 7.021,22.12 L 225.558,457.675 C 233.93,472.559 244.965,480 256,480 ZM 224,96A32,32 5220 1 1 288,96A32,32 5220 1 1 224,96zM 256,288 C 273.673,288 288,273.673 288,256 L 278,160 L 234,160 L 224,256 C 224,273.673 238.327,288 256,288 Z" data-tags="warning, sign" />
<glyph unicode="&#xe019;" d="M0,480l0-512 l 512,0 L 512,480 L0,480 z M 480,0L 32,0 L 32,448 l 448,0 L 480,0 z" data-tags="checkbox-unchecked, unchecked, square" />
<glyph unicode="&#xe01c;" d="M0,480l0-512 l 512,0 L 512,480 L0,480 z M 480,0L 32,0 L 32,448 l 448,0 L 480,0 z M 384,368L 224,208l-96,96l-64-64l 160-160l 224,224L 384,368z" data-tags="checkbox-checked, tick, checked, selected" />
<glyph unicode="&#xe01d;" d="M0,480l0-512 l 512,0 L 512,480 L0,480 z M 480,0L 32,0 L 32,448 l 448,0 L 480,0 zM 128,352L 384,352L 384,96L 128,96z" data-tags="checkbox-partial, partial" />
<glyph unicode="&#xe01e;" d="M 256,480C 114.615,480,0,365.385,0,224s 114.615-256, 256-256s 256,114.615, 256,256S 397.385,480, 256,480z M 256,32
		c-106.039,0-192,85.961-192,192c0,106.039, 85.961,192, 192,192c 106.039,0, 192-85.961, 192-192C 448,117.961, 362.039,32, 256,32zM 160,224A96,96 15300 1 1 352,224A96,96 15300 1 1 160,224z" data-tags="radio-checked" />
<glyph unicode="&#xe01f;" d="M 256,480C 114.615,480,0,365.385,0,224s 114.615-256, 256-256s 256,114.615, 256,256S 397.385,480, 256,480z M 256,32
	c-106.039,0-192,85.961-192,192c0,106.039, 85.961,192, 192,192c 106.039,0, 192-85.961, 192-192C 448,117.961, 362.039,32, 256,32z" data-tags="radio-unchecked, circle" />
<glyph unicode="&#xe020;" d="M 192,224 L 32,224 L 32,288 L 192,288 L 192,352 L 288,256 L 192,160 ZM 512,480 L 512,64 L 320-32 L 320,64 L 128,64 L 128,192 L 160,192 L 160,96 L 320,96 L 320,384 L 448,448 L 160,448 L 160,320 L 128,320 L 128,480 Z" data-tags="enter, sign in, log in, login" />
<glyph unicode="&#xe021;" d="M 384,160 L 384,224 L 224,224 L 224,288 L 384,288 L 384,352 L 480,256 ZM 352,192 L 352,64 L 192,64 L 192-32 L 0,64 L 0,480 L 352,480 L 352,320 L 320,320 L 320,448 L 64,448 L 192,384 L 192,96 L 320,96 L 320,192 Z" data-tags="exit, sign out, log out, quit, close, logout" />
<glyph unicode="&#xe00d;" d="M 512,175.953l0,96.094 l-73.387,12.231c-2.979,9.066-6.611,17.834-10.847,26.25l 43.227,60.517l-67.947,67.949l-60.413-43.152
		c-8.455,4.277-17.269,7.944-26.384,10.951L 304.047,480l-96.094,0 l-12.201-73.208c-9.115-3.007-17.929-6.674-26.383-10.951
		l-60.414,43.152l-67.949-67.949l 43.227-60.518c-4.235-8.415-7.867-17.183-10.846-26.249L0,272.047l0-96.094 l 73.559-12.259
		c 2.979-8.984, 6.605-17.674, 10.821-26.015l-43.374-60.723l 67.949-67.947l 60.827,43.447c 8.301-4.175, 16.945-7.763, 25.882-10.717
		L 207.953-32l 96.094,0 l 12.289,73.737c 8.937,2.953, 17.581,6.542, 25.883,10.717l 60.826-43.446l 67.947,67.947l-43.371,60.723
		c 4.216,8.341, 7.839,17.031, 10.821,26.016L 512,175.953z M 256,160c-35.346,0-64,28.653-64,64c0,35.346, 28.654,64, 64,64
		c 35.347,0, 64-28.654, 64-64C 320,188.653, 291.347,160, 256,160z" data-tags="cog, preferences, settings, gear, generate, control, options" />
<glyph unicode="&#xe00c;" d="M 256,480C 167.634,480, 96,408.366, 96,320c0-160, 160-352, 160-352s 160,192, 160,352C 416,408.366, 344.365,480, 256,480z M 256,222
	c-54.123,0-98,43.877-98,98s 43.877,98, 98,98s 98-43.877, 98-98S 310.125,222, 256,222zM 194,320A62,62 3780 1 1 318,320A62,62 3780 1 1 194,320z" data-tags="location, map, marker, pin" />
<glyph unicode="&#xe00b;" d="M 256,480C 167.634,480, 96,408.366, 96,320c0-160, 160-352, 160-352s 160,192, 160,352C 416,408.366, 344.365,480, 256,480z M 256,224
	c-53.021,0-96,42.979-96,96s 42.979,96, 96,96s 96-42.979, 96-96S 309.019,224, 256,224z" data-tags="location, map, marker, pin" />
<glyph unicode="&#xe00a;" d="M 240,448C 107.451,448,0,340.549,0,208c0-132.549, 107.451-240, 240-240c 132.549,0, 240,107.451, 240,240
		C 480,340.549, 372.549,448, 240,448z M 240,16c-106.039,0-192,85.961-192,192c0,106.039, 85.961,192, 192,192
		c 106.039,0, 192-85.961, 192-192C 432,101.961, 346.039,16, 240,16zM 256,224l0,64 l 64,0 l0,32 l-64,0 l0,32 l-32,0 l0-32 l-64,0 l0-128 l 64,0 l0-64 l-64,0 l0-32 l 64,0 l0-32 l 32,0 l0,32 l 64,0 l 0.001,0 L 320,224L 256,224 z M 224,224l-32,0 l0,64 l 32,0 L 224,224 z
	 M 288.001,128L 256,128 l0,64 l 32.001,0 L 288.001,128 z" data-tags="coin, money, cash" />
<glyph unicode="&#xe008;" d="M 446.059,385.941l-60.117,60.118C 367.273,464.727, 330.4,480, 304,480L 80,480 C 53.6,480, 32,458.4, 32,432l0-416 c0-26.4, 21.6-48, 48-48l 352,0 
	c 26.4,0, 48,21.6, 48,48L 480,304 C 480,330.4, 464.727,367.273, 446.059,385.941z M 320,412.219c 1.098-0.402, 2.226-0.84, 3.379-1.318
	c 9.030-3.741, 15.299-8.088, 17.309-10.097l 60.118-60.119c 2.009-2.009, 6.355-8.277, 10.097-17.307c 0.478-1.153, 0.915-2.281, 1.318-3.378
	L 320,320 L 320,412.219 z M 416,32L 96,32 L 96,416 l 192,0 l0-128 l 128,0 L 416,32 zM 128,224L 384,224L 384,192L 128,192zM 128,160L 384,160L 384,128L 128,128zM 128,96L 384,96L 384,64L 128,64z" data-tags="file, list, paper, page, document" />
<glyph unicode="&#xe009;" d="M 490.594,399.946C 418.778,410.271, 339.429,416, 256.001,416c-83.43,0-162.778-5.729-234.597-16.054
	C 7.639,346.083,0,286.571,0,224c0-62.57, 7.639-122.083, 21.405-175.945C 93.223,37.729, 172.571,32, 256.001,32
	c 83.427,0, 162.776,5.729, 234.593,16.055C 504.36,101.917, 512,161.43, 512,224C 512,286.571, 504.36,346.083, 490.594,399.946z
	 M 192.001,128L 192.001,320 l 160-96L 192.001,128z" data-tags="play, video, movie" />
<glyph unicode="&#xe007;" d="M 512,320L 256,448L0,320l 256-128L 512,320z M 256,405.515L 427.029,320L 256,234.485L 84.971,320L 256,405.515zM 460.722,249.639 L 512,224 L 256,96 L 0,224 L 51.278,249.639 L 256,147.278 ZM 460.722,153.639 L 512,128 L 256,0 L 0,128 L 51.278,153.639 L 256,51.278 Z" data-tags="stack, layers" />
<glyph unicode="&#xe001;" d="M 287.998,320L 351.997,256.001L 224,128.005L 160.001,192.003zM 500.763,331.248l-36.758,36.758l-16.005-16.005c-8.189-8.19-19.505-13.255-32-13.255
		c-24.994,0-45.257,20.261-45.257,45.255c0,12.501, 5.070,23.819, 13.267,32.009l 15.994,15.993l-36.759,36.758
		c-14.984,14.984-39.504,14.984-54.488,0L 11.238,171.243c-14.983-14.984-14.983-39.505,0-54.488l 36.76-36.759l 15.981,15.982
		c 8.191,8.203, 19.515,13.277, 32.022,13.277c 24.994,0, 45.255-20.262, 45.255-45.255c0-12.503-5.070-23.821-13.267-32.011l-15.992-15.993
		l 36.758-36.759c 14.983-14.983, 39.504-14.983, 54.488,0l 297.52,297.52C 515.745,291.744, 515.745,316.264, 500.763,331.248z
		 M 224.001,64.002l-128,128l 192,192l 128-128L 224.001,64.002z" data-tags="ticket, theater, cinema" />
<glyph unicode="&#xe03b;" d="M 476.698,442.679l-2.014,2.021c-47.074,47.067-124.097,47.067-171.163,0L 194.467,335.632
		c-47.067-47.066-47.067-124.088,0-171.155l 2.013-2.013c 3.915-3.923, 8.073-7.462, 12.368-10.729l 39.925,39.925
		c-4.651,2.747-9.063,6.035-13.058,10.030l-2.021,2.021c-25.557,25.549-25.557,67.136,0,92.695L 342.758,405.462
		c 25.558,25.559, 67.137,25.559, 92.693,0l 2.021-2.011c 25.55-25.558, 25.55-67.146,0-92.695l-49.343-49.343
		c 8.566-21.154, 12.624-43.701, 12.269-66.193l 76.302,76.302C 523.767,318.589, 523.767,395.61, 476.698,442.679zM 315.521,285.533c-3.915,3.915-8.073,7.461-12.368,10.72l-39.925-39.915c 4.653-2.749, 9.063-6.037, 13.058-10.031l 2.021-2.021
		c 25.558-25.558, 25.558-67.136,0-92.694L 169.243,42.525c-25.559-25.551-67.138-25.551-92.694,0l-2.021,2.021
		c-25.549,25.56-25.549,67.138,0,92.694l 49.344,49.343c-8.567,21.153-12.623,43.701-12.269,66.193l-76.301-76.299
		c-47.067-47.066-47.067-124.089,0-171.162l 2.013-2.016c 47.075-47.064, 124.096-47.064, 171.163,0l 109.055,109.059
		c 47.067,47.066, 47.067,124.097,0,171.163L 315.521,285.533z" data-tags="link, chain, url, uri, anchor" />
<glyph unicode="&#xe03a;" d="M 416,393.847 C 454.233,393.847 488.546,414.658 512,430.4 L 512,132.555 C 488.546,116.813 454.233,96 416,96 C 377.767,96 343.454,107.335 320,123.078 C 296.546,138.818 262.233,150.153 224,150.153 C 185.767,150.153 151.455,130.695 128,114.955 L 128,412.8 C 151.455,428.542 185.767,448 224,448 C 262.233,448 296.546,436.666 320,420.925 C 343.454,405.182 377.767,393.847 416,393.847 ZM 64,480 C 81.673,480 96,465.673 96,448 L 96-32 L 32-32 L 32,448 C 32,465.673 46.327,480 64,480 Z" data-tags="flag, report, mark" />
<glyph unicode="&#xe039;" d="M 96,480L 96-32L 256,128L 416-32L 416,480 z" data-tags="bookmark, ribbon" />
<glyph unicode="&#xe038;" d="M 128,416L 128-32L 288,128L 448-32L 448,416 	zM 384,480L 64,480L 64,32L 96,64L 96,448L 384,448 	z" data-tags="bookmarks, favorite, ribbon" />
<glyph unicode="&#xe037;" d="M 192,448l 320,0 l0-64 L 192,384 L 192,448 z M 192,256l 320,0 l0-64 L 192,192 L 192,256 z M 192,64l 320,0 l0-64 L 192,0 L 192,64 zM0,416A64,64 5220 1 1 128,416A64,64 5220 1 1 0,416zM0,224A64,64 5220 1 1 128,224A64,64 5220 1 1 0,224zM0,32A64,64 5220 1 1 128,32A64,64 5220 1 1 0,32z" data-tags="list, bullet, ul, todo, menu" />
<glyph unicode="&#xe036;" d="M 466.895,174.875c-26.863,46.527-10.709,106.152, 36.077,133.243l-50.313,87.146c-14.375-8.427-31.088-13.259-48.923-13.259
	c-53.768,0-97.354,43.873-97.354,97.995L 205.752,480.001 c 0.133-16.705-4.037-33.641-12.979-49.126
	c-26.862-46.528-86.578-62.351-133.431-35.379L 9.030,308.35c 14.485-8.237, 27.025-20.294, 35.943-35.739
	c 26.819-46.454, 10.757-105.96-35.854-133.112l 50.313-87.146c 14.325,8.349, 30.958,13.127, 48.701,13.127
	c 53.598,0, 97.072-43.595, 97.35-97.479l 100.627,0 c-0.043,16.537, 4.136,33.285, 12.983,48.609
	c 26.818,46.453, 86.389,62.297, 133.207,35.506l 50.313,87.145C 488.222,147.494, 475.766,159.51, 466.895,174.875z M 256,120.334
	c-57.254,0-103.669,46.413-103.669,103.667c0,57.254, 46.413,103.667, 103.669,103.667c 57.254,0, 103.666-46.413, 103.666-103.667
	C 359.665,166.746, 313.254,120.334, 256,120.334z" data-tags="cog, preferences, settings, gear, generate, control, options" />
<glyph unicode="&#xe041;" d="M 332.394,312.309 C 326.478,318.229 316.869,318.229 310.947,312.309 L 15.384,16.893 C 9.463,10.968 9.463,1.375 15.384-4.545 C 21.309-10.47 30.907-10.47 36.835-4.545 L 74.213,32.81 L 115.389,73.966 L 332.386,290.869 C 338.322,296.789 338.322,306.387 332.394,312.309 ZM 315.239,308.786 C 319,312.549 325.102,312.542 328.869,308.786 C 332.629,305.027 332.629,298.93 328.869,295.168 L 302.714,269.029 C 298.959,265.273 292.858,265.273 289.095,269.029 C 285.325,272.785 285.325,278.886 289.083,282.642 L 315.239,308.786 ZM 33.981,0.414 C 30.223-3.339 24.12-3.339 20.362,0.414 C 16.603,4.173 16.599,10.273 20.358,14.037 L 46.514,40.179 C 47.117,40.784 47.802,41.256 48.504,41.665 C 48.906,38.427 50.288,35.294 52.773,32.81 C 55.259,30.325 58.392,28.955 61.626,28.552 C 61.218,27.84 60.741,27.161 60.138,26.561 L 33.981,0.414 ZM 332.725,374.213 L 376.64,342.325 L 322.357,342.325 L 366.278,374.213 L 349.498,322.611 L 332.725,374.213 ZM 310.693,377.024 L 289.717,441.561 L 344.643,401.685 L 276.751,401.685 L 331.674,441.561 L 310.693,377.024 L 310.693,377.024 ZM 385.701,238.465 L 367.255,295.232 L 415.562,260.15 L 355.85,260.15 L 404.154,295.232 L 385.701,238.465 L 385.701,238.465 ZM 480.994,286.746 L 467.509,328.219 L 502.808,302.587 L 459.181,302.587 L 494.482,328.219 L 480.994,286.746 L 480.994,286.746 ZM 378.456,432.275 L 368.56,462.742 L 394.486,443.915 L 362.442,443.915 L 388.378,462.742 L 378.456,432.275 L 378.456,432.275 ZM 459.181,364.112 L 439.675,424.121 L 490.742,387.039 L 427.618,387.039 L 478.69,424.121 L 459.181,364.112 L 459.181,364.112 ZM 410.506,328.219 L 400.605,358.686 L 426.53,339.861 L 394.486,339.861 L 420.418,358.686 L 410.506,328.219 L 410.506,328.219 Z" horiz-adv-x="508" data-tags="fantasy-games" />
<glyph unicode="&#xe040;" d="M 252.6,106.955 C 251.538,106.965 250.543,106.975 249.538,107.005 L 250.102,127.525 C 260.216,127.299 270.472,128.567 280.242,131.403 L 286.042,111.709 C 275.205,108.558 263.952,106.955 252.6,106.955 ZM 216.25,112.589 C 205.482,116.021 195.259,120.967 185.864,127.299 L 197.44,144.29 C 205.207,139.059 213.646,134.978 222.544,132.137 L 216.25,112.589 ZM 316.791,125.637 L 305.638,142.928 C 313.519,147.952 320.638,154.067 326.818,161.085 L 342.36,147.565 C 334.915,139.088 326.294,131.714 316.791,125.637 ZM 160.862,149.835 C 153.606,158.518 147.64,168.144 143.147,178.458 L 162.090,186.629 C 165.802,178.104 170.73,170.141 176.73,162.973 L 160.862,149.835 ZM 360.767,175.734 L 342.035,184.377 C 345.984,192.824 348.67,201.761 350.043,210.955 L 370.472,207.936 C 368.806,196.795 365.538,185.96 360.767,175.734 ZM 134.266,210.886 C 133.666,215.704 133.362,220.606 133.362,225.47 C 133.362,231.842 133.882,238.235 134.899,244.469 L 155.278,241.17 C 154.437,236.030 154.016,230.745 154.016,225.463 C 154.016,221.431 154.258,217.366 154.755,213.398 L 134.266,210.886 ZM 350.218,238.749 C 348.97,247.977 346.386,256.954 342.55,265.427 L 361.395,273.843 C 366.031,263.563 369.146,252.689 370.685,241.519 L 350.218,238.749 ZM 163.64,267.662 L 145.023,276.543 C 149.926,286.666 156.234,296.066 163.795,304.458 L 179.176,290.759 C 172.914,283.807 167.68,276.034 163.64,267.662 ZM 327.615,288.905 C 321.544,295.995 314.49,302.187 306.667,307.322 L 318.038,324.462 C 327.475,318.266 335.992,310.785 343.315,302.226 L 327.615,288.905 ZM 200.576,308.637 L 189.658,326.065 C 199.286,332.041 209.68,336.591 220.584,339.617 L 226.13,319.831 C 217.135,317.346 208.535,313.581 200.576,308.637 ZM 281.408,319.158 C 272.515,321.866 263.231,323.295 253.827,323.415 L 254.080,343.946 C 265.45,343.801 276.679,342.063 287.456,338.776 L 281.408,319.158 ZM 252.6,477.125 C 113.030,477.125 -0.561,364.226 -0.561,225.475 C -0.561,86.641 113.030-26.247 252.6-26.247 C 392.096-26.247 505.685,86.641 505.685,225.475 C 505.685,364.226 392.096,477.125 252.6,477.125 ZM 412.949,125.401 L 373.962,149.797 C 365.351,136.187 354.571,124.107 341.994,114.113 L 370.714,78.377 C 337.319,51.824 295.37,37.208 252.606,37.208 C 238.68,37.208 224.802,38.722 211.334,41.717 L 221.346,86.357 C 205.359,89.896 190.424,96.129 176.93,104.507 L 152.563,65.648 C 116.247,88.185 88.376,122.579 74.086,162.525 L 117.495,177.869 C 112.223,192.607 109.202,208.383 109.142,224.895 L 63.218,224.895 L 63.218,225.458 C 63.218,267.733 77.802,309.256 104.253,342.355 L 140.261,313.907 C 150.279,326.441 162.379,337.225 176.032,345.834 L 151.389,384.503 C 181.672,403.598 216.68,413.681 252.611,413.681 C 259.543,413.681 266.503,413.305 273.295,412.568 L 268.322,367.157 C 284.696,365.366 300.195,360.735 314.458,353.919 L 334.407,395.215 C 372.895,376.826 404.376,345.657 423.030,307.447 L 381.578,287.43 C 388.487,273.274 393.194,257.877 395.043,241.579 L 440.728,246.733 C 441.525,239.72 441.935,232.562 441.935,225.453 C 441.93,189.971 431.91,155.361 412.949,125.401 Z" horiz-adv-x="508" data-tags="casino" />
<glyph unicode="&#xe03f;" d="M 234.794-30.347 C 127.502-22.965 33.286,61.968 6.696,164.794 C -17.837,271.414 30.882,391.479 125.938,447.145 C 187.082,483.813 263.802,488.397 331.47,469.296 C 415.053,443.504 478.677,368.822 501.014,285.499 C 521.077,208.712 506.605,121.527 453.274,61.018 C 404.976,0.611 327.771-34.192 250.565-31.086 C 245.299-30.976 240.042-30.729 234.794-30.347 ZM 298.742-18.263 C 317.992-16.574 314.61-10.648 297.098-9.142 C 265.814-3.097 232.034-2.937 201.842-13.541 C 228.418-26.409 263.727-23.097 293.482-19.257 L 298.742-18.263 L 298.742-18.263 ZM 203.952-1.277 C 217.691,12.799 203.359,46.434 191.352,59.763 C 164.514,73.513 143.706,95.984 119.162,112.931 C 100.674,119.689 82.643,106.843 64.775,102.493 C 64.695,84.765 63.542,64.746 79.083,52.414 C 104.666,27.061 135.542,4.838 170.39-5.259 C 181.584-5.789 193.336-5.102 203.952-1.277 ZM 351.072-1.984 C 395.599,17.279 437.371,48.24 462.482,90.375 C 471.519,102.502 478.157,123.729 454.544,116.709 C 424.879,97.99 398.094,74.824 367.706,57.089 C 349.28,42.459 336.008,22.33 322.91,3.077 C 327.478-7.586 342.319-5.043 351.072-1.984 ZM 381.256,75.434 C 403.64,93.861 436.027,105.735 447.778,133.687 C 453.088,155.67 453.503,178.421 455.717,200.843 C 433.413,220.707 406.022,234.178 379.242,246.906 C 352.778,244.777 331.387,221.195 310.456,205.911 C 299.303,199.735 302.168,185.85 299.138,175.206 C 295.080,150.315 290.386,125.501 287.68,100.417 C 308.506,84.954 331.752,70.763 357.072,64.799 C 366.223,64.687 373.824,70.906 381.256,75.434 ZM 221.613,71.555 C 241.882,79.311 268.706,85.17 278.223,106.721 C 285.279,136.911 289.202,167.81 292.934,198.566 C 272.794,217.779 251.293,238.035 224.886,248.063 C 202.107,248.431 182.802,232.265 162.53,223.437 C 135.261,216.013 125.787,191.125 124.594,165.425 C 116.594,140.002 125.778,113.886 148.771,99.872 C 168.856,85.021 194.671,61.338 221.613,71.555 ZM 51.955,107.184 C 35.511,137.687 24.167,171.091 19.642,205.456 C 3.378,202.173 18.16,162.142 22.642,145.808 C 30.306,123.743 42.040,103.462 54.202,83.625 C 56.426,91.789 57.746,99.893 51.955,107.184 ZM 44.872,242.968 C 52.054,253.254 63.482,261.373 67.792,273.125 C 75.394,308.698 87.794,343.043 105.535,374.847 C 104.784,395.397 81.896,407.88 70.504,385.237 C 38.037,343.322 12.567,292.246 11.446,238.336 C 7.176,219.843 23.223,206.395 32.466,228.288 C 36.608,233.175 40.744,238.069 44.872,242.968 ZM 462.949,217.482 C 476.712,235.591 495.734,257.086 490.786,281.614 C 482.174,328.122 458.354,372.28 421.77,402.591 C 410.904,407.209 391.053,424.203 383.475,408.153 C 372.278,386.583 344.421,366.192 354.458,339.33 C 363.063,312.816 369.338,285.103 381.879,260.133 C 404.951,242.077 431.677,228.046 458.544,216.205 L 462.949,217.482 L 462.949,217.482 ZM 155.986,229.538 C 177.288,240.325 197.979,252.249 218.754,264.005 C 225.762,288.544 234.552,312.513 242.744,336.639 C 243.89,362.726 220.675,381.47 205.144,399.766 C 189.896,424.24 164.088,405.469 145.261,396.518 C 103.826,374.333 94.312,325.499 80.237,284.734 C 82.189,269.47 96.131,256.733 106.309,245.319 C 120.373,231.167 136.186,212.254 155.986,229.538 ZM 308.789,361.406 C 319.808,362.92 332.118,361.81 342.352,364.937 C 357.654,381.456 371.126,400.808 377.501,422.518 C 369.805,444.403 344.31,454.378 323.842,461.827 C 297.763,469.605 269.842,473.414 242.775,470.341 C 223.239,460.339 188.194,431.315 207.979,408.819 C 222.472,391.521 237.898,375.035 253.608,358.843 C 272.034,358.661 290.422,360.103 308.789,361.406 Z" horiz-adv-x="508" data-tags="football" />
<glyph unicode="&#xe006;" d="M 432,384L 176,384 c-44,0-80-36-80-80l0-256 c0-44, 36-80, 80-80l 256,0 c 44,0, 80,36, 80,80L 512,304 C 512,348, 476,384, 432,384z M 208,32
	c-26.51,0-48,21.49-48,48s 21.49,48, 48,48s 48-21.49, 48-48S 234.51,32, 208,32z M 208,224c-26.51,0-48,21.49-48,48s 21.49,48, 48,48
	s 48-21.49, 48-48S 234.51,224, 208,224z M 304,128c-26.51,0-48,21.49-48,48s 21.49,48, 48,48s 48-21.49, 48-48S 330.51,128, 304,128z M 400,32
	c-26.51,0-48,21.49-48,48s 21.49,48, 48,48s 48-21.49, 48-48S 426.51,32, 400,32z M 400,224c-26.51,0-48,21.49-48,48s 21.49,48, 48,48
	s 48-21.49, 48-48S 426.51,224, 400,224z M 414.379,416C 406.915,452.402, 374.525,480, 336,480L 80,480 C 36,480,0,444,0,400l0-256 
	c0-38.523, 27.598-70.915, 64-78.379L 64,384 c0,17.6, 14.4,32, 32,32L 414.379,416 z" data-tags="dice, die, game, chance, luck, random, gample" />
<glyph unicode="&#xe00e;" d="M 128,384L 64,448L 32,448L 32,416L 96,352 	zM 160,480L 192,480L 192,416L 160,416zM 288,320L 352,320L 352,288L 288,288zM 320,416L 320,448L 288,448L 224,384L 256,352 	zM0,320L 64,320L 64,288L0,288zM 160,192L 192,192L 192,128L 160,128zM 32,192L 32,160L 64,160L 128,224L 96,256 	zM 505,39L 186.941,357.059c-9.334,9.334-24.607,9.334-33.941,0L 122.941,327c-9.334-9.334-9.334-24.607,0-33.941L 441-25
		c 9.334-9.334, 24.607-9.334, 33.941,0L 505,5.059C 514.334,14.393, 514.334,29.666, 505,39z M 240,208l-96,96l 32,32l 96-96L 240,208z" data-tags="wand, magic, wizard" />
<glyph unicode="&#xe00f;" d="M 437.019,405.019 C 485.371,356.667 512,292.379 512,223.999 C 512,155.619 485.371,91.333 437.019,42.981 C 388.667-5.371 324.379-32 256-32 C 187.621-32 123.333-5.371 74.981,42.981 C 26.629,91.333 0,155.619 0,223.999 C 0,292.379 26.627,356.667 74.981,405.019 C 123.333,453.371 187.621,480 256,480 C 324.379,480 388.667,453.371 437.019,405.019 Z M 414.392,65.607 C 445.921,97.137 466.885,136.411 475.528,179.138 C 468.791,169.219 462.347,165.541 458.357,187.741 C 454.246,223.936 421.002,200.815 400.098,213.671 C 378.096,198.842 328.645,242.502 337.049,193.259 C 350.016,171.048 407.053,222.984 378.623,175.989 C 360.486,143.181 312.302,70.522 318.57,32.859 C 319.361-22.013 262.503,21.417 242.913,39.619 C 229.735,76.079 238.422,139.806 203.965,157.662 C 166.563,159.286 134.462,162.685 119.967,204.497 C 111.243,234.411 129.249,278.944 161.306,285.819 C 208.231,315.302 224.993,251.293 269.001,250.102 C 282.665,264.399 319.909,268.945 322.997,284.977 C 294.122,290.072 359.631,309.256 320.233,320.168 C 298.498,317.611 284.494,297.631 296.049,280.689 C 253.93,270.869 252.581,341.641 212.094,319.318 C 211.065,284.023 145.983,307.875 189.576,315.032 C 204.554,321.576 165.146,340.539 186.437,337.094 C 196.894,337.662 232.102,350 222.574,358.295 C 242.179,370.465 258.654,329.15 277.843,359.237 C 291.697,382.369 272.033,386.64 254.667,374.914 C 244.878,385.877 271.953,409.552 295.834,419.783 C 303.793,423.193 311.395,425.051 317.207,424.525 C 329.237,410.629 351.482,408.222 352.646,426.195 C 322.855,440.463 290.008,448 256,448 C 207.189,448 160.765,432.488 122.346,403.805 C 132.671,399.075 138.533,393.186 128.585,385.657 C 120.857,362.63 89.501,331.719 61.973,336.095 C 47.68,311.447 38.267,284.293 34.243,255.831 C 57.299,248.203 62.615,233.106 57.661,228.056 C 45.913,217.813 38.693,203.291 34.973,187.395 C 42.478,141.477 64.059,99.157 97.608,65.607 C 139.917,23.299 196.167,0 256,0 C 315.832,0 372.085,23.299 414.392,65.607 Z" data-tags="earth, globe, web, internet, sphere, planet" />
<glyph unicode="&#xe005;" d="M 482.365,390.598C 435.414,445.323, 365.76,480, 288,480C 146.615,480, 32,365.385, 32,224s 114.615-256, 256-256
	c 77.76,0, 147.414,34.678, 194.365,89.402L 320,224L 482.365,390.598z M 352,419.699c 19.717,0, 35.699-15.982, 35.699-35.699
	c0-19.717-15.983-35.699-35.699-35.699S 316.301,364.285, 316.301,384C 316.301,403.715, 332.283,419.699, 352,419.699z" data-tags="pacman, game, arcade" />
<glyph unicode="&#xe010;" d="M 240,448C 107.451,448,0,340.549,0,208c0-132.549, 107.451-240, 240-240c 132.549,0, 240,107.451, 240,240
	C 480,340.549, 372.549,448, 240,448z M 375.795,128c 4.29,20.227, 6.998,41.696, 7.879,64l 63.723,0 c-1.669-22.098-6.813-43.557-15.339-64
	L 375.795,128 z M 104.205,288c-4.29-20.227-6.998-41.696-7.879-64L 32.605,224 c 1.669,22.097, 6.811,43.557, 15.339,64L 104.205,288 z M 343.018,288
	c 4.807-20.481, 7.699-41.927, 8.64-64L 256,224 l0,64 L 343.018,288 z M 256,320L 256,413.669 c 7.295-2.123, 14.522-5.685, 21.614-10.685
	c 13.291-9.37, 26.006-23.803, 36.77-41.743c 7.441-12.401, 13.875-26.208, 19.248-41.242L 256,319.999 z M 165.616,361.242
	c 10.763,17.939, 23.478,32.374, 36.77,41.743c 7.091,5, 14.319,8.562, 21.614,10.685L 224,320 l-77.632,0 
	C 151.741,335.033, 158.176,348.84, 165.616,361.242z M 224,288l0-64 l-95.657,0 c 0.941,22.073, 3.833,43.519, 8.639,64L 224,288 z M 47.944,128
	c-8.528,20.443-13.671,41.902-15.339,64l 63.722,0 c 0.881-22.304, 3.589-43.773, 7.879-64L 47.944,128 z M 128.343,192L 224,192 l0-64 l-87.018,0 
	C 132.176,148.48, 129.283,169.927, 128.343,192z M 224,96l0-93.67 c-7.294,2.123-14.522,5.686-21.614,10.685
	c-13.291,9.37-26.007,23.805-36.77,41.743c-7.441,12.402-13.875,26.209-19.249,41.242L 224,96 z M 314.384,54.758
	c-10.763-17.938-23.479-32.373-36.77-41.743c-7.091-4.999-14.319-8.562-21.614-10.685L 256,96 l 77.633,0 
	C 328.259,80.967, 321.825,67.16, 314.384,54.758z M 256,128l0,64 l 95.657,0 c-0.941-22.073-3.833-43.52-8.64-64L 256,128 z M 383.674,224
	c-0.881,22.304-3.589,43.773-7.879,64l 56.262,0 c 8.528-20.443, 13.672-41.903, 15.339-64L 383.674,224 z M 415.329,320l-47.95,0 
	c-9.319,29.381-22.189,55.147-37.658,75.714c 21.269-10.17, 40.529-23.808, 57.357-40.635C 397.818,344.339, 407.259,332.609, 415.329,320
	z M 92.922,355.078c 16.829,16.829, 36.090,30.466, 57.357,40.635c-15.471-20.567-28.338-46.333-37.658-75.714L 64.672,320 
	C 72.741,332.609, 82.183,344.339, 92.922,355.078z M 64.672,96l 47.949,0 c 9.32-29.381, 22.189-55.147, 37.659-75.715
	c-21.269,10.17-40.529,23.808-57.357,40.637C 82.183,71.661, 72.741,83.391, 64.672,96z M 387.078,60.922
	c-16.827-16.829-36.090-30.467-57.357-40.637c 15.471,20.567, 28.339,46.334, 37.658,75.715l 47.95,0 
	C 407.259,83.391, 397.818,71.661, 387.078,60.922z" data-tags="globe, web, internet, network, sphere" />
<glyph unicode="&#xe002;" d="M 496,448L 384,448 c-26.4,0-63.273-15.273-81.941-33.941L 113.941,225.941c-18.667-18.667-18.667-49.214,0-67.882l 140.118-140.117
	c 18.667-18.667, 49.214-18.667, 67.882,0l 188.117,188.117C 528.727,224.727, 544,261.6, 544,288L 544,400 C 544,426.4, 522.4,448, 496,448z M 432,288
	c-26.51,0-48,21.49-48,48s 21.49,48, 48,48s 48-21.49, 48-48S 458.51,288, 432,288zM 43.313,180.687 L 214.502,9.498 C 196.37-0.082 173.271,2.729 158.059,17.942 L 17.941,158.059 C -0.726,176.727 -0.726,207.274 17.941,225.941 L 206.059,414.059 C 224.727,432.727 261.6,448 288,448 L 43.313,203.314 C 37.091,197.091 37.091,186.91 43.313,180.687 Z" horiz-adv-x="544" data-tags="tags, prices" />
<glyph unicode="&#xe004;" d="M 463.906,480L 319.625,480 c-26.453,0-63.398-15.303-82.102-34.007L 14.027,222.498c-18.704-18.704-18.704-49.312,0-68.016
	l 172.455-172.453c 18.704-18.705, 49.311-18.705, 68.015,0l 223.495,223.494C 496.697,224.229, 512,261.174, 512,287.625L 512,431.906 
	C 512,458.358, 490.357,480, 463.906,480z M 400,320c-26.51,0-48,21.49-48,48s 21.49,48, 48,48s 48-21.49, 48-48S 426.51,320, 400,320z" data-tags="tag, price" />
<glyph unicode="&#xe031;" d="M 416,448L 96,448 L0,352l0-336 c0-8.837, 7.163-16, 16-16l 480,0 c 8.837,0, 16,7.163, 16,16L 512,352 L 416,448z M 256,64L 96,192l 96,0 l0,96 l 128,0 l0-96 l 96,0 
	L 256,64z M 77.255,384l 32,32l 293.489,0 l 32-32L 77.255,384 z" data-tags="box-add, storage, inbox, archive, download" />
<glyph unicode="&#xe033;" d="M 256,192L 384,320L 288,320L 288,448L 224,448L 224,320L 128,320 	zM 372.363,244.365L 336.493,208.493L 466.533,160L 256,81.491L 45.467,160L 175.507,208.493L 139.635,244.365L0,192L0,64L 256-32L 512,64L 512,192 	z" data-tags="download, store, save, arrow" />
<glyph unicode="&#xe034;" d="M 512.75,80c0,144-128,112-128,224c0,9.28-0.894,17.21-2.523,23.963c-8.415,56.509-46.078,101.859-94.886,115.68
	c 0.433,1.974, 0.661,4.016, 0.661,6.105C 288,466.387, 273.6,480, 256,480c-17.6,0-32-13.613-32-30.25c0-2.090, 0.229-4.131, 0.661-6.105
	c-54.735-15.499-95.457-70.649-96.627-136.721c-0.021-0.96-0.033-1.931-0.033-2.923C 128,192,0,224,0,80
	c0-38.113, 85.295-69.998, 199.485-78.040C 210.247-18.242, 231.513-32, 256-32s 45.754,13.758, 56.515,33.96
	C 426.705,10.002, 512,41.887, 512,80c0,0.114-0.013,0.229-0.014,0.341L 512.75,80z M 413.123,52.952
	c-27.115-7.235-59.079-12.438-93.384-15.325C 316.887,70.337, 289.448,96, 256,96s-60.887-25.663-63.739-58.371
	c-34.304,2.886-66.269,8.089-93.384,15.325C 61.562,62.909, 43.722,74.047, 37.193,80c 6.529,5.953, 24.369,17.091, 61.685,27.048
	C 142.263,118.624, 198.063,125, 256,125s 113.737-6.376, 157.123-17.952c 37.315-9.957, 55.155-21.095, 61.685-27.048
	C 468.278,74.047, 450.438,62.909, 413.123,52.952z" data-tags="bell, alarm, notification" />
<glyph unicode="&#xe035;" d="M 181.861,118.974l 20.649,28.907l-22.627,22.629l-28.909-20.648c-5.361,2.997-11.102,5.387-17.133,7.096L 128,192L 96,192 
		l-5.84-35.043c-6.031-1.709-11.771-4.099-17.133-7.096L 44.118,170.51L 21.49,147.882l 20.649-28.907
		c-2.997-5.36-5.387-11.103-7.096-17.133L0,96l0-32 l 35.043-5.841c 1.709-6.030, 4.099-11.771, 7.096-17.133L 21.49,12.118l 22.627-22.629
		l 28.909,20.648c 5.361-2.997, 11.102-5.387, 17.133-7.096L 96-32l 32,0 l 5.84,35.043c 6.031,1.709, 11.771,4.099, 17.133,7.096l 28.909-20.648
		l 22.627,22.629l-20.649,28.907c 2.997,5.36, 5.387,11.103, 7.096,17.133L 224,64l0,32 l-35.043,5.841
		C 187.248,107.871, 184.858,113.613, 181.861,118.974z M 112,48c-17.674,0-32,14.327-32,32s 14.326,32, 32,32s 32-14.327, 32-32
		S 129.674,48, 112,48zM 512,288l0,32 l-33.691,6.125c-0.621,4.023-1.416,7.989-2.362,11.895l 28.779,18.55L 492.48,386.134l-33.472-7.234
		c-2.107,3.455-4.363,6.81-6.746,10.065l 19.503,28.171l-22.629,22.627l-28.171-19.503c-3.256,2.383-6.61,4.638-10.065,6.747
		l 7.234,33.472L 388.571,472.726l-18.55-28.779c-3.906,0.946-7.872,1.741-11.895,2.362L 352,480l-32,0 l-6.126-33.691
		c-4.023-0.621-7.989-1.416-11.895-2.362L 283.43,472.726L 253.866,460.48l 7.234-33.472c-3.455-2.109-6.81-4.363-10.065-6.747
		l-28.171,19.503l-22.627-22.627l 19.503-28.171c-2.383-3.255-4.639-6.61-6.747-10.065l-33.472,7.234l-12.246-29.565l 28.779-18.55
		c-0.946-3.906-1.741-7.871-2.362-11.895L 160,320l0-32 l 33.691-6.125c 0.621-4.023, 1.416-7.989, 2.362-11.895l-28.779-18.55
		l 12.246-29.565l 33.472,7.234c 2.109-3.455, 4.363-6.809, 6.747-10.065l-19.503-28.171l 22.627-22.629l 28.171,19.503
		c 3.255-2.383, 6.61-4.638, 10.065-6.746l-7.234-33.472l 29.565-12.246l 18.551,28.779c 3.905-0.946, 7.871-1.741, 11.894-2.362L 320,128l 32,0 
		l 6.126,33.691c 4.022,0.621, 7.989,1.416, 11.895,2.362l 18.55-28.779l 29.565,12.246l-7.234,33.472
		c 3.455,2.109, 6.81,4.363, 10.065,6.746l 28.171-19.503l 22.629,22.629l-19.503,28.171c 2.383,3.256, 4.638,6.61, 6.746,10.065
		l 33.472-7.234l 12.246,29.565l-28.779,18.55c 0.946,3.906, 1.741,7.871, 2.362,11.895L 512,288z M 336,234.4
		c-38.439,0-69.6,31.161-69.6,69.6c0,38.439, 31.16,69.6, 69.6,69.6s 69.6-31.161, 69.6-69.6C 405.6,265.561, 374.44,234.4, 336,234.4z" data-tags="cogs, settings, gears, generate, control, options" />
<glyph unicode="&#xe04a;" d="M 256,480 C 116.626,480 3.271,368.619 0.077,230.013 C 3.035,350.945 94.992,448 208,448 C 322.875,448 416,347.712 416,224 C 416,197.49 437.49,176 464,176 C 490.51,176 512,197.49 512,224 C 512,365.385 397.385,480 256,480 ZM 256-32 C 395.374-32 508.729,79.381 511.923,217.987 C 508.965,97.055 417.008,0 304,0 C 189.125,0 96,100.288 96,224 C 96,250.51 74.51,272 48,272 C 21.49,272 0,250.51 0,224 C 0,82.615 114.615-32 256-32 Z" data-tags="spinner, loading, busy, wait, wheel" />
<glyph unicode="&#xe04c;" d="M 364.496,224C 433.373,267.667, 480,351.605, 480,448c0,10.838-0.595,21.517-1.739,32L 33.741,480 C 32.595,469.515, 32,458.837, 32,448
		c0-96.397, 46.627-180.333, 115.503-224C 78.627,180.333, 32,96.395, 32,0c0-10.838, 0.595-21.517, 1.739-32l 444.521,0 
		c 1.144,10.483, 1.739,21.162, 1.739,32C 480,96.395, 433.373,180.333, 364.496,224z M 80,0c0,93.456, 40.081,172.707, 112,198.854
		l0,50.293 l0,0 C 120.081,275.293, 80,354.543, 80,448l0,0 l 352,0 l0,0 c0-93.457-40.081-172.707-112-198.853l0-50.293 
		C 391.919,172.707, 432,93.456, 432,0L 80,0 zM 309.813,145.203c-35.827,20.322-37.805,46.685-37.813,62.683L 272,240 c0,15.997, 1.902,42.457, 37.872,62.832
		c 19.251,11.182, 35.904,28.174, 48.525,49.168L 153.605,352 c 12.633-21.016, 29.306-38.021, 48.583-49.203
		c 35.827-20.322, 37.803-46.683, 37.813-62.683L 240.001,208 c0-15.997-1.902-42.457-37.872-62.832c-36.311-21.090-63.369-62.842-71.545-113.168
		l 250.835,0 C 373.237,82.354, 346.154,124.125, 309.813,145.203z" data-tags="busy, wait, loading, hour glass" />
<glyph unicode="&#xe049;" d="M 512,224c0,141.376-114.624,256-256,256C 114.608,480,0,365.376,0,224c0-141.392, 114.608-256, 256-256C 397.376-32, 512,82.608, 512,224z
	 M 128,224l 128,128l0-96 l 128,0 l0-64 l-128,0 l0-96 L 128,224z" data-tags="arrow-left-alt1, left, previous" />
<glyph unicode="&#xe04b;" d="M0,224c0-141.376, 114.624-256, 256-256c 141.392,0, 256,114.624, 256,256c0,141.392-114.608,256-256,256C 114.624,480,0,365.392,0,224z M 384,224
	l-128-128l0,96 L 128,192 l0,64 l 128,0 L 256,352 L 384,224z" data-tags="arrow-right-alt1, right, next" />
<glyph unicode="&#xe04d;" d="M 256,480C 114.624,480,0,365.376,0,224c0-141.392, 114.624-256, 256-256c 141.392,0, 256,114.608, 256,256C 512,365.376, 397.392,480, 256,480z M 256,96
	l-128,128l 96,0 L 224,352 l 64,0 l0-128 l 96,0 L 256,96z" data-tags="arrow-down-alt1, download" />
<glyph unicode="&#xe04e;" d="M 256-32c 141.376,0, 256,114.624, 256,256c0,141.392-114.624,256-256,256C 114.608,480,0,365.392,0,224C0,82.624, 114.608-32, 256-32z M 256,352
	l 128-128l-96,0 l0-128 l-64,0 l0,128 L 128,224 L 256,352z" data-tags="arrow-up-alt1, upload" />
<glyph unicode="&#xe030;" d="M 408.785,305.925C 312.002,377.854, 278.651,435.434, 256.002,479.999l0,0C 256,479.999, 256,480, 256,480l0-0.001 
	c-22.648-44.565-56-102.146-152.783-174.074c-165.018-122.643-9.688-293.834, 126.879-199.611
	c-8.898-58.465-39.265-101.086-70.104-119.441L 159.992-32 l 96.008,0 l 96.008,0 l0,18.87 c-30.841,18.354-61.205,60.977-70.106,119.442
	C 418.47,12.089, 573.802,183.282, 408.785,305.925z" data-tags="spades, bet, game, gamble, cards" />
<glyph unicode="&#xe003;" d="M 393.416,283.614c-29.515,0-56.043-12.298-74.926-32.347c-7.998-8.493-21.881-18.555-36.901-27.405
	c 7.055,26.934, 29.338,60.85, 44.814,75.728c 19.821,19.085, 31.992,45.915, 31.992,75.75C 358.399,432.787, 312.658,479.389, 256.002,480
	c-56.661-0.611-102.398-47.213-102.398-104.659c0-29.835, 12.173-56.665, 31.993-75.75c 15.477-14.878, 37.76-48.794, 44.814-75.728
	c-15.021,8.85-28.903,18.913-36.901,27.405c-18.883,20.049-45.41,32.347-74.925,32.347c-57.193,0-103.541-46.832-103.541-104.664
	c0-57.819, 46.346-104.669, 103.541-104.669c 29.521,0, 56.041,12.678, 74.925,32.726c 8.402,8.936, 23.222,20.069, 39.146,29.315
	c-1.501-73.846-36.766-128.083-72.659-149.453L 159.998-32 l 96.005,0 l 96.002,0 l0,18.87 c-35.896,21.368-71.16,75.608-72.661,149.453
	c 15.926-9.247, 30.744-20.384, 39.146-29.315c 18.883-20.047, 45.405-32.726, 74.926-32.726c 57.193,0, 103.539,46.85, 103.539,104.669
	C 496.955,236.782, 450.61,283.614, 393.416,283.614z" data-tags="clubs, bet, game, gamble, cards" />
<glyph unicode="&#xe011;" d="M 447.97,163.249c-0.006,0.353-0.015,0.701-0.021,1.053c-0.016,0.714-0.035,1.427-0.059,2.141C 442.875,324.266, 256,480, 256,480
		S 69.123,324.266, 64.11,166.439c-0.022-0.715-0.043-1.426-0.059-2.141c-0.007-0.352-0.015-0.701-0.021-1.053
		c-0.018-1.080-0.029-2.162-0.029-3.248c0-1.184, 0.014-2.361, 0.035-3.539c 0.002-0.098, 0.003-0.195, 0.007-0.293
		C 66.082,51.899, 151.241-32, 256-32c 104.758,0, 189.917,83.899, 191.959,188.168c 0.002,0.098, 0.005,0.197, 0.005,0.293
		c 0.021,1.178, 0.037,2.357, 0.037,3.539C 448,161.086, 447.989,162.168, 447.97,163.249z M 383.975,157.63l-0.005-0.203
		c-0.659-33.643-14.266-65.167-38.313-88.774C 321.587,45.017, 289.743,32, 256,32c-6.231,0-12.397,0.447-18.462,1.319
		c 69.528,41.423, 116.109,117.352, 116.109,204.161c0,9.728-0.59,19.317-1.726,28.739c 20.136-36.97, 31.032-71.4, 32.001-101.813
		l 0.002-0.072c 0.016-0.474, 0.026-0.946, 0.039-1.422l 0.014-0.723C 383.99,161.461, 384,160.73, 384,160
		C 384,159.208, 383.99,158.419, 383.975,157.63z" data-tags="droplet, colors, water" />
<glyph unicode="&#xe01a;" d="M 512,176L 416,272L 416,416L 352,416L 352,336L 256,432L0,176L0,160L 64,160L 64,0L 224,0L 224,96L 288,96L 288,0L 448,0L 448,160L 512,160 z" data-tags="home, house, building" />
<glyph unicode="&#xe01b;" d="M 512,184.778 L 256,383.491 L 0,184.777 L 0,265.795 L 256,464.509 L 512,265.795 ZM 448,192 L 448,0 L 320,0 L 320,128 L 192,128 L 192,0 L 64,0 L 64,192 L 256,336 Z" data-tags="home, house, building" />
<glyph unicode="&#xe000;" d="M 256,480L 96,224L 256-32L 416,224 z" data-tags="diamonds, bet, game, gamble, cards" />
<glyph unicode="&#xe047;" d="M 192,416A64,64 14940 1 1 320,416A64,64 14940 1 1 192,416zM 327.765,359.765A64,64 14940 1 1 455.765,359.765A64,64 14940 1 1 327.765,359.765zM 416,224A32,32 14940 1 1 480,224A32,32 14940 1 1 416,224zM 359.765,88.235A32,32 14940 1 1 423.765,88.23500000000001A32,32 14940 1 1 359.765,88.23500000000001zM 224.001,32A32,32 14940 1 1 288.001,32A32,32 14940 1 1 224.001,32zM 88.237,88.235A32,32 14940 1 1 152.237,88.23500000000001A32,32 14940 1 1 88.237,88.23500000000001zM 72.237,359.765A48,48 14940 1 1 168.237,359.765A48,48 14940 1 1 72.237,359.765zM 28,224A36,36 14940 1 1 100,224A36,36 14940 1 1 28,224z" data-tags="spinner, loading, busy, wait, wheel" />
<glyph unicode="&#xe048;" d="M 512,224c-0.639,33.431-7.891,66.758-21.288,97.231c-13.352,30.501-32.731,58.129-56.521,80.96
	c-23.776,22.848-51.973,40.91-82.493,52.826C 321.197,466.979, 288.401,472.693, 256,472c-32.405-0.641-64.666-7.687-94.167-20.678
	c-29.525-12.947-56.271-31.735-78.367-54.787c-22.112-23.041-39.581-50.354-51.093-79.899C 20.816,287.104, 15.309,255.375, 16,224
	c 0.643-31.379, 7.482-62.574, 20.067-91.103c 12.544-28.55, 30.738-54.414, 53.055-75.774c 22.305-21.377, 48.736-38.253, 77.307-49.36
	C 194.987-3.389, 225.651-8.688, 256-8c 30.354,0.645, 60.481,7.277, 88.038,19.457c 27.575,12.141, 52.558,29.739, 73.183,51.322
	c 20.641,21.57, 36.922,47.118, 47.627,74.715c 6.517,16.729, 10.939,34.2, 13.271,51.899c 0.623-0.037, 1.249-0.059, 1.881-0.059
	c 17.673,0, 32,14.326, 32,32c0,0.898-0.047,1.786-0.119,2.666L 512,223.999 z M 461.153,139.026c-11.736-26.601-28.742-50.701-49.589-70.59
	c-20.835-19.905-45.501-35.593-72.122-45.895C 312.827,12.202, 284.297,7.315, 256,8c-28.302,0.649-56.298,6.869-81.91,18.237
	c-25.625,11.333-48.842,27.745-67.997,47.856c-19.169,20.099-34.264,43.882-44.161,69.529C 51.997,169.264, 47.318,196.729, 48,224
	c 0.651,27.275, 6.664,54.206, 17.627,78.845c 10.929,24.65, 26.749,46.985, 46.123,65.405c 19.365,18.434, 42.265,32.935, 66.937,42.427
	C 203.355,420.208, 229.755,424.681, 256,424c 26.25-0.653, 52.114-6.459, 75.781-17.017c 23.675-10.525, 45.128-25.751, 62.811-44.391
	c 17.698-18.629, 31.605-40.647, 40.695-64.344C 444.413,274.552, 448.679,249.219, 448,224l 0.119,0 c-0.072-0.88-0.119-1.768-0.119-2.666
	c0-16.506, 12.496-30.087, 28.543-31.811C 473.431,172.111, 468.278,155.113, 461.153,139.026z" data-tags="spinner, loading, busy, wait, wheel" />
<glyph unicode="&#xf084;" d="M 237.714,333.714q0,22.857 -16,38.857t-38.857,16t-38.857-16t-16-38.857q0-12 5.429-23.714q-11.714,5.429 -23.714,5.429q-22.857,0 -38.857-16t-16-38.857t 16-38.857t 38.857-16t 38.857,16t 16,38.857q0,12 -5.429,23.714q 11.714-5.429 23.714-5.429q 22.857,0 38.857,16t 16,38.857zM 480.857,132.571q0-4.857 -14-18.857t-18.857-14q-2.571,0 -8.143,4.571t-10.429,9.429t-11,11.429t-7,7.429 l-27.429-27.429l 62.857-62.857q 8-8 8-19.429q0-12 -11.143-23.143t-23.143-11.143q-11.429,0 -19.429,8l-191.714,191.714q-50.286-37.429 -104.286-37.429q-46.571,0 -75.857,29.286t-29.286,75.857q0,45.714 27.143,89.429t 70.857,70.857t 89.429,27.143q 46.571,0 75.857-29.286t 29.286-75.857q0-54 -37.429-104.286l 101.429-101.429l 27.429,27.429q-0.857,0.857 -7.429,7t-11.429,11t-9.429,10.429 t-4.571,8.143q0,4.857 14,18.857t 18.857,14q 3.714,0 6.571-2.857q 1.714-1.714 13.143-12.714t 23.429-22.714t 24.714-24.571t 20.857-22.286t 8.143-11.714z" data-tags="key, unlock, password" />
<glyph unicode="&#xf0ae;" d="M 292.571,77.714l 182.857,0 l0,36.571 l-182.857,0 l0-36.571 zM 182.857,224l 292.571,0 l0,36.571 l-292.571,0 l0-36.571 zM 365.714,370.286l 109.714,0 l0,36.571 l-109.714,0 l0-36.571 zM 512,132.571l0-73.143 q0-7.429 -5.429-12.857t-12.857-5.429l-475.429,0 q-7.429,0 -12.857,5.429t-5.429,12.857l0,73.143 q0,7.429 5.429,12.857t 12.857,5.429l 475.429,0 q 7.429,0 12.857-5.429t 5.429-12.857zM 512,278.857l0-73.143 q0-7.429 -5.429-12.857t-12.857-5.429l-475.429,0 q-7.429,0 -12.857,5.429 t-5.429,12.857l0,73.143 q0,7.429 5.429,12.857t 12.857,5.429l 475.429,0 q 7.429,0 12.857-5.429t 5.429-12.857zM 512,425.143l0-73.143 q0-7.429 -5.429-12.857t-12.857-5.429l-475.429,0 q-7.429,0 -12.857,5.429t-5.429,12.857l0,73.143 q0,7.429 5.429,12.857t 12.857,5.429l 475.429,0 q 7.429,0 12.857-5.429t 5.429-12.857z" data-tags="tasks, bars" />
<glyph unicode="&#xf0cb;" d="M 108.857,17.143q0-22.857 -15.571-36t-38.714-13.143q-30.286,0 -49.143,18.857l 16.286,25.143q 14-12.857 30.286-12.857q 8.286,0 14.429,4.143t 6.143,12.143q0,18.286 -30,16l-7.429,16q 2.286,2.857 9.286,12.429t 12.143,15.429t 10.571,11l0,0.286 q-4.571,0 -13.857-0.286t-13.857-0.286l0-15.143 l-30.286,0 l0,43.429 l 95.143,0 l0-25.143 l-27.143-32.857q 14.571-3.429 23.143-14t 8.571-25.143zM 109.429,196.286l0-45.429 l-103.429,0  q-1.714,10.286 -1.714,15.429q0,14.571 6.714,26.571t 16.143,19.429t 18.857,13.571t 16.143,12.429t 6.714,12.857q0,7.143 -4.143,11t-11.286,3.857q-13.143,0 -23.143-16.571l-24.286,16.857q 6.857,14.571 20.429,22.714t 30.143,8.143q 20.857,0 35.143-11.857t 14.286-32.143q0-14.286 -9.714-26.143t-21.429-18.429t-21.571-14.429t-10.143-15l 36.286,0 l0,17.143 l 30,0 zM 512,105.143l0-54.857 q0-3.714 -2.714-6.429 t-6.429-2.714l-347.429,0 q-3.714,0 -6.429,2.714t-2.714,6.429l0,54.857 q0,4 2.571,6.571t 6.571,2.571l 347.429,0 q 3.714,0 6.429-2.714t 2.714-6.429zM 109.714,362l0-28.286 l-95.714,0 l0,28.286 l 30.571,0 q0,11.714 0.143,34.857t 0.143,34.571l0,3.429 l-0.571,0 q-2.286-4.857 -14.286-15.429l-20.286,21.714l 38.857,36.286l 30.286,0 l0-115.429 l 30.857,0 zM 512,251.429l0-54.857 q0-3.714 -2.714-6.429t-6.429-2.714l-347.429,0 q-3.714,0 -6.429,2.714 t-2.714,6.429l0,54.857 q0,4 2.571,6.571t 6.571,2.571l 347.429,0 q 3.714,0 6.429-2.714t 2.714-6.429zM 512,397.714l0-54.857 q0-3.714 -2.714-6.429t-6.429-2.714l-347.429,0 q-3.714,0 -6.429,2.714t-2.714,6.429l0,54.857 q0,3.714 2.714,6.429t 6.429,2.714l 347.429,0 q 3.714,0 6.429-2.714t 2.714-6.429z" data-tags="list-ol, numbered list" />
<glyph unicode="&#xf0c0;" d="M 169.252,224q-46.238-1.427 -75.635-36.533l-38.246,0 q-23.405,0 -39.388,11.559t-15.983,33.822q0,100.752 35.392,100.752q 1.713,0 12.416-5.994t 27.828-12.13t 33.965-6.137q 19.123,0 37.961,6.564q-1.427-10.56 -1.427-18.837q0-39.673 23.119-73.067zM 474.934,42.19q0-34.25 -20.835-54.087t-55.371-19.836l-249.454,0 q-34.535,0 -55.371,19.836t-20.835,54.087q0,15.127 0.999,29.541t 3.996,31.11t 7.563,30.968 t 12.273,27.828t 17.696,23.119t 24.403,15.27t 31.824,5.709q 2.854,0 12.273-6.137t 20.835-13.7t 30.539-13.7t 38.531-6.137t 38.531,6.137t 30.539,13.7t 20.835,13.7t 12.273,6.137q 17.41,0 31.824-5.709t 24.403-15.27t 17.696-23.119t 12.273-27.828t 7.563-30.968t 3.996-31.11t 0.999-29.541zM 182.666,406.666q0-30.254 -21.406-51.661t-51.661-21.406t-51.661,21.406t-21.406,51.661t 21.406,51.661t 51.661,21.406t 51.661-21.406 t 21.406-51.661zM 383.6,297.067q0-45.382 -32.11-77.49t-77.49-32.11t-77.49,32.11t-32.11,77.49t 32.11,77.49t 77.49,32.11t 77.49-32.11t 32.11-77.49zM 548,232.848q0-22.262 -15.983-33.822t-39.388-11.559l-38.246,0 q-29.398,35.106 -75.635,36.533q 23.119,33.394 23.119,73.067q0,8.277 -1.427,18.837q 18.837-6.564 37.961-6.564q 16.839,0 33.965,6.137t 27.828,12.13 t 12.416,5.994q 35.392,0 35.392-100.752zM 511.467,406.666q0-30.254 -21.406-51.661t-51.661-21.406t-51.661,21.406t-21.406,51.661t 21.406,51.661t 51.661,21.406t 51.661-21.406t 21.406-51.661z" horiz-adv-x="548" data-tags="group, people, users, team, members, community" />
<glyph unicode="&#xf007;" d="M 401.642,78.571q0-34.286 -20.857-54.143t-55.429-19.857l-249.714,0 q-34.571,0 -55.429,19.857t-20.857,54.143q0,15.143 1,29.571t 4,31.143t 7.571,31t 12.286,27.857t 17.714,23.143t 24.429,15.286t 31.857,5.714q 2.571,0 12-6.143t 21.286-13.714t 30.857-13.714t 38.143-6.143t 38.143,6.143t 30.857,13.714t 21.286,13.714t 12,6.143q 17.429,0 31.857-5.714t 24.429-15.286t 17.714-23.143 t 12.286-27.857t 7.571-31t 4-31.143t 1-29.571zM 310.214,333.714q0-45.429 -32.143-77.571t-77.571-32.143t-77.571,32.143t-32.143,77.571t 32.143,77.571t 77.571,32.143t 77.571-32.143t 32.143-77.571z" horiz-adv-x="401" data-tags="user, profile, member" />
<glyph unicode="&#xf101;" d="M 169.714,205.714q0-3.714 -2.857-6.571l-133.143-133.143q-2.857-2.857 -6.571-2.857t-6.571,2.857l-14.286,14.286q-2.857,2.857 -2.857,6.571t 2.857,6.571l 112.286,112.286l-112.286,112.286q-2.857,2.857 -2.857,6.571t 2.857,6.571l 14.286,14.286q 2.857,2.857 6.571,2.857t 6.571-2.857l 133.143-133.143q 2.857-2.857 2.857-6.571zM 279.429,205.714q0-3.714 -2.857-6.571l-133.143-133.143q-2.857-2.857 -6.571-2.857t-6.571,2.857l-14.286,14.286q-2.857,2.857 -2.857,6.571t 2.857,6.571 l 112.286,112.286l-112.286,112.286q-2.857,2.857 -2.857,6.571t 2.857,6.571l 14.286,14.286q 2.857,2.857 6.571,2.857t 6.571-2.857l 133.143-133.143q 2.857-2.857 2.857-6.571z" horiz-adv-x="292" data-tags="double-angle-right, right, arrows" />
<glyph unicode="&#xf100;" d="M 178.858,86.857q0-3.714 -2.857-6.571l-14.286-14.286q-2.857-2.857 -6.571-2.857t-6.571,2.857l-133.143,133.143q-2.857,2.857 -2.857,6.571t 2.857,6.571l 133.143,133.143q 2.857,2.857 6.571,2.857t 6.571-2.857l 14.286-14.286q 2.857-2.857 2.857-6.571t-2.857-6.571l-112.286-112.286l 112.286-112.286q 2.857-2.857 2.857-6.571zM 288.571,86.857q0-3.714 -2.857-6.571l-14.286-14.286q-2.857-2.857 -6.571-2.857t-6.571,2.857l-133.143,133.143q-2.857,2.857 -2.857,6.571 t 2.857,6.571l 133.143,133.143q 2.857,2.857 6.571,2.857t 6.571-2.857l 14.286-14.286q 2.857-2.857 2.857-6.571t-2.857-6.571l-112.286-112.286l 112.286-112.286q 2.857-2.857 2.857-6.571z" horiz-adv-x="292" data-tags="double-angle-left, left, arrows" />
<glyph unicode="&#xe058;" d="M 512-1.28c0,0-0.999,96.947-6.937,106.983c-8.832,14.976-29.337,25.241-67.431,41.165c-37.965,15.872-50.125,29.287-50.125,57.933
		c0,17.229, 11.597,11.597, 16.691,43.111c 2.099,13.081, 12.339,0.231, 14.311,30.055c0,11.904-5.581,14.873-5.581,14.873s 2.816,17.613, 3.943,31.155
		c 1.383,16.896-8.525,60.493-61.235,60.493s-62.567-43.623-61.209-60.493c 1.101-13.543, 3.917-31.155, 3.917-31.155s-5.581-2.969-5.581-14.873
		c 1.971-29.849, 12.211-16.999, 14.336-30.055c 5.069-31.513, 16.665-25.881, 16.665-43.111c0-19.481-5.632-31.923-21.171-42.855
		c 82.944-41.523, 94.080-49.997, 94.080-87.117L 396.672-1.28 L 512-1.28 z M 261.735,132.48c-50.663,21.145-66.816,39.015-66.816,77.235c0,22.937, 15.463,15.463, 22.247,57.497
		c 2.791,17.433, 16.487,0.281, 19.072,40.064c0,15.872-7.449,19.815-7.449,19.815s 3.789,23.475, 5.273,41.549C 235.904,391.117, 222.695,449.28, 152.423,449.28
		c-70.272,0-83.456-58.137-81.613-80.64c 1.485-18.073, 5.248-41.549, 5.248-41.549S 68.633,323.149, 68.633,307.277
		c 2.637-39.808, 16.281-22.656, 19.097-40.064c 6.784-42.035, 22.247-34.535, 22.247-57.497c0-38.221-16.205-56.089-66.816-77.235
		C 27.725,126.029,0,116.019,0,92.007L0-1.28 l 355.687,0 c0,0,0,55.168,0,69.913C 355.687,90.573, 312.499,111.232, 261.735,132.48z" data-tags="users, group, team, people" />
<glyph unicode="&#xe059;" d="M 478.464,163.943l-44.211,39.424c-12.8,11.417-12.8,30.055,0,41.472l 44.211,39.399c 12.8,11.417, 9.369,22.041-7.603,23.655l-58.599,5.555
	c-16.973,1.613-26.112,16.205-20.275,32.435l 31.104,86.579c 5.837,16.231-1.305,22.144-15.847,13.133l-69.145-42.752
	c-14.541-9.011-33.331-4.096-41.753,10.931l-25.063,44.697c-8.397,15.027-22.323,15.104-30.899,0.179L 217.113,418.151
	C 208.537,403.225, 188.825,396.851, 173.312,403.993l-40.96,18.816C 116.813,429.927, 104.883,421.683, 105.805,404.429L 108.032,363.085
	c 0.921-17.229-11.801-34.995-28.263-39.424L 40.217,313.037C 23.757,308.583, 20.736,295.629, 33.536,284.211l 44.211-39.399c 12.8-11.392, 12.8-30.055,0-41.447
	L 33.536,163.993c-12.8-11.443-9.421-22.451, 7.501-24.499l 53.632-6.503c 16.921-2.099, 26.368-17.203, 20.967-33.561l-27.52-83.405
	c-5.401-16.409, 2.304-22.809, 17.101-14.208l 63.053,36.455c 14.823,8.601, 34.713,3.84, 44.237-10.445l 26.189-39.347
	c 9.497-14.361, 23.808-13.543, 31.719,1.741l 23.015,44.339c 7.961,15.309, 26.957,21.555, 42.215,13.901l 44.391-22.195
	c 15.309-7.655, 27.059,0.205, 26.137,17.459l-2.227,41.344c-0.921,17.255, 11.801,34.995, 28.263,39.449l 39.527,10.599
	C 488.243,139.597, 491.264,152.551, 478.464,163.943z M 281.6,116.608L 230.4,116.608 l0,53.76 l 51.2,0 L 281.6,116.608 z M 281.6,198.503L 230.4,198.503 l0,133.12 l 51.2,0 L 281.6,198.503 z" data-tags="new, exclamation, notification" />
<glyph unicode="&#xe05a;" d="M 426.189,348.339L 195.84,467.097C 164.275,483.712, 102.067,451.609, 84.199,423.347C 76.237,410.701, 76.8,401.587, 76.8,396.416l 2.841-268.16
	c 0.179-5.709, 7.373-13.363, 13.491-17.152c 12.775-7.833, 206.336-128.64, 211.789-132.071c 2.944-1.843, 6.451-2.688, 9.881-2.688
	c 2.919,0, 5.863,0.64, 8.525,1.971C 329.165-18.816, 332.8-13.287, 332.8-7.219L 332.8,274.407 c0,5.863-3.431,11.264-9.011,14.208L 114.432,405.504
	C 116.787,410.112, 126.105,419.84, 143.232,428.8C 161.28,438.272, 174.771,434.688, 177.869,433.485c0,0, 200.96-107.545, 207.104-110.745c 6.119-3.2, 6.247-3.687, 6.247-9.139
	c0-5.479,0-267.264,0-267.264c0-13.337, 13.517-18.791, 23.475-18.791c 9.907,0, 20.505,9.728, 20.505,18.791L 435.2,334.131 
	C 435.2,339.993, 431.744,345.421, 426.189,348.339z" data-tags="book, reading" />
</font>
</defs>
</svg>
