<?xml version="1.0" standalone="no"?>
<!DOCTYPE svg PUBLIC "-//W3C//DTD SVG 1.1//EN" "http://www.w3.org/Graphics/SVG/1.1/DTD/svg11.dtd" >
<svg xmlns="http://www.w3.org/2000/svg">
<metadata>Generated by IcoMoon</metadata>
<defs>
<font id="icomoon" horiz-adv-x="512">
<font-face units-per-em="512" ascent="480" descent="-32" />
<missing-glyph horiz-adv-x="512" />
<glyph unicode="&#x20;" d="" horiz-adv-x="256" />
<glyph unicode="&#xe000;" d="M256 480l-160-256 160-256 160 256z" />
<glyph unicode="&#xe001;" d="M287.998 320l63.999-63.999-127.997-127.996-63.999 63.998zM500.763 331.248l-36.758 36.758-16.005-16.005c-8.189-8.19-19.505-13.255-32-13.255-24.994 0-45.257 20.261-45.257 45.255 0 12.501 5.070 23.819 13.267 32.009l15.994 15.993-36.759 36.758c-14.984 14.984-39.504 14.984-54.488 0l-297.519-297.518c-14.983-14.984-14.983-39.505 0-54.488l36.76-36.759 15.981 15.982c8.191 8.203 19.515 13.277 32.022 13.277 24.994 0 45.255-20.262 45.255-45.255 0-12.503-5.070-23.821-13.267-32.011l-15.992-15.993 36.758-36.759c14.983-14.983 39.504-14.983 54.488 0l297.52 297.52c14.982 14.987 14.982 39.507 0 54.491zM224.001 64.002l-128 128 192 192 128-128-192-192z" />
<glyph unicode="&#xe002;" d="M496 448h-112c-26.4 0-63.273-15.273-81.941-33.941l-188.118-188.118c-18.667-18.667-18.667-49.214 0-67.882l140.118-140.117c18.667-18.667 49.214-18.667 67.882 0l188.117 188.117c18.669 18.668 33.942 55.541 33.942 81.941v112c0 26.4-21.6 48-48 48zM432 288c-26.51 0-48 21.49-48 48s21.49 48 48 48 48-21.49 48-48-21.49-48-48-48zM43.313 180.687l171.189-171.189c-18.132-9.58-41.231-6.769-56.443 8.444l-140.118 140.117c-18.667 18.668-18.667 49.215 0 67.882l188.118 188.118c18.668 18.668 55.541 33.941 81.941 33.941l-244.687-244.686c-6.222-6.223-6.222-16.404 0-22.627z" horiz-adv-x="544" />
<glyph unicode="&#xe003;" d="M393.416 283.614c-29.515 0-56.043-12.298-74.926-32.347-7.998-8.493-21.881-18.555-36.901-27.405 7.055 26.934 29.338 60.85 44.814 75.728 19.821 19.085 31.992 45.915 31.992 75.75 0.004 57.447-45.737 104.049-102.393 104.66-56.661-0.611-102.398-47.213-102.398-104.659 0-29.835 12.173-56.665 31.993-75.75 15.477-14.878 37.76-48.794 44.814-75.728-15.021 8.85-28.903 18.913-36.901 27.405-18.883 20.049-45.41 32.347-74.925 32.347-57.193 0-103.541-46.832-103.541-104.664 0-57.819 46.346-104.669 103.541-104.669 29.521 0 56.041 12.678 74.925 32.726 8.402 8.936 23.222 20.069 39.146 29.315-1.501-73.846-36.766-128.083-72.659-149.453l0.001-18.87h192.007v18.87c-35.896 21.368-71.16 75.608-72.661 149.453 15.926-9.247 30.744-20.384 39.146-29.315 18.883-20.047 45.405-32.726 74.926-32.726 57.193 0 103.539 46.85 103.539 104.669 0 57.831-46.345 104.663-103.539 104.663z" />
<glyph unicode="&#xe004;" d="M463.906 480h-144.281c-26.453 0-63.398-15.303-82.102-34.007l-223.496-223.495c-18.704-18.704-18.704-49.312 0-68.016l172.455-172.453c18.704-18.705 49.311-18.705 68.015 0l223.495 223.494c18.705 18.706 34.008 55.651 34.008 82.102v144.281c0 26.452-21.643 48.094-48.094 48.094zM400 320c-26.51 0-48 21.49-48 48s21.49 48 48 48 48-21.49 48-48-21.49-48-48-48z" />
<glyph unicode="&#xe005;" d="M482.365 390.598c-46.951 54.725-116.605 89.402-194.365 89.402-141.385 0-256-114.615-256-256s114.615-256 256-256c77.76 0 147.414 34.678 194.365 89.402l-162.365 166.598 162.365 166.598zM352 419.699c19.717 0 35.699-15.982 35.699-35.699s-15.983-35.699-35.699-35.699-35.699 15.984-35.699 35.699c0 19.715 15.982 35.699 35.699 35.699z" />
<glyph unicode="&#xe006;" d="M432 384h-256c-44 0-80-36-80-80v-256c0-44 36-80 80-80h256c44 0 80 36 80 80v256c0 44-36 80-80 80zM208 32c-26.51 0-48 21.49-48 48s21.49 48 48 48 48-21.49 48-48-21.49-48-48-48zM208 224c-26.51 0-48 21.49-48 48s21.49 48 48 48 48-21.49 48-48-21.49-48-48-48zM304 128c-26.51 0-48 21.49-48 48s21.49 48 48 48 48-21.49 48-48-21.49-48-48-48zM400 32c-26.51 0-48 21.49-48 48s21.49 48 48 48 48-21.49 48-48-21.49-48-48-48zM400 224c-26.51 0-48 21.49-48 48s21.49 48 48 48 48-21.49 48-48-21.49-48-48-48zM414.379 416c-7.464 36.402-39.854 64-78.379 64h-256c-44 0-80-36-80-80v-256c0-38.523 27.598-70.915 64-78.379v318.379c0 17.6 14.4 32 32 32h318.379z" />
<glyph unicode="&#xe007;" d="M512 320l-256 128-256-128 256-128 256 128zM256 405.515l171.029-85.515-171.029-85.515-171.029 85.515 171.029 85.515zM460.722 249.639l51.278-25.639-256-128-256 128 51.278 25.639 204.722-102.361zM460.722 153.639l51.278-25.639-256-128-256 128 51.278 25.639 204.722-102.361z" />
<glyph unicode="&#xe008;" d="M446.059 385.941l-60.117 60.118c-18.669 18.668-55.542 33.941-81.942 33.941h-224c-26.4 0-48-21.6-48-48v-416c0-26.4 21.6-48 48-48h352c26.4 0 48 21.6 48 48v288c0 26.4-15.273 63.273-33.941 81.941zM320 412.219c1.098-0.402 2.226-0.84 3.379-1.318 9.030-3.741 15.299-8.088 17.309-10.097l60.118-60.119c2.009-2.009 6.355-8.277 10.097-17.307 0.478-1.153 0.915-2.281 1.318-3.378h-92.221v92.219zM416 32h-320v384h192v-128h128v-256zM128 224h256v-32h-256zM128 160h256v-32h-256zM128 96h256v-32h-256z" />
<glyph unicode="&#xe009;" d="M490.594 399.946c-71.816 10.325-151.165 16.054-234.593 16.054-83.43 0-162.778-5.729-234.597-16.054-13.765-53.863-21.404-113.375-21.404-175.946 0-62.57 7.639-122.083 21.405-175.945 71.818-10.326 151.166-16.055 234.596-16.055 83.427 0 162.776 5.729 234.593 16.055 13.766 53.862 21.406 113.375 21.406 175.945 0 62.571-7.64 122.083-21.406 175.946zM192.001 128v192l160-96-160-96z" />
<glyph unicode="&#xe00a;" d="M240 448c-132.549 0-240-107.451-240-240s107.451-240 240-240c132.549 0 240 107.451 240 240s-107.451 240-240 240zM240 16c-106.039 0-192 85.961-192 192s85.961 192 192 192c106.039 0 192-85.961 192-192s-85.961-192-192-192zM256 224v64h64v32h-64v32h-32v-32h-64v-128h64v-64h-64v-32h64v-32h32v32h64.001l-0.001 128h-64zM224 224h-32v64h32v-64zM288.001 128h-32.001v64h32.001v-64z" />
<glyph unicode="&#xe00b;" d="M256 480c-88.366 0-160-71.634-160-160 0-160 160-352 160-352s160 192 160 352c0 88.366-71.635 160-160 160zM256 224c-53.021 0-96 42.979-96 96s42.979 96 96 96 96-42.979 96-96-42.981-96-96-96z" />
<glyph unicode="&#xe00c;" d="M256 480c-88.366 0-160-71.634-160-160 0-160 160-352 160-352s160 192 160 352c0 88.366-71.635 160-160 160zM256 222c-54.123 0-98 43.877-98 98s43.877 98 98 98 98-43.877 98-98-43.875-98-98-98zM194 320c0-34.241 27.758-62 62-62s62 27.759 62 62c0 34.241-27.759 62-62 62s-62-27.759-62-62z" />
<glyph unicode="&#xe00d;" d="M512 175.953v96.094l-73.387 12.231c-2.979 9.066-6.611 17.834-10.847 26.25l43.227 60.517-67.947 67.949-60.413-43.152c-8.455 4.277-17.269 7.944-26.384 10.951l-12.202 73.207h-96.094l-12.201-73.208c-9.115-3.007-17.929-6.674-26.383-10.951l-60.414 43.152-67.949-67.949 43.227-60.518c-4.235-8.415-7.867-17.183-10.846-26.249l-73.387-12.23v-96.094l73.559-12.259c2.979-8.984 6.605-17.674 10.821-26.015l-43.374-60.723 67.949-67.947 60.827 43.447c8.301-4.175 16.945-7.763 25.882-10.717l12.289-73.739h96.094l12.289 73.737c8.937 2.953 17.581 6.542 25.883 10.717l60.826-43.446 67.947 67.947-43.371 60.723c4.216 8.341 7.839 17.031 10.821 26.016l73.558 12.259zM256 160c-35.346 0-64 28.653-64 64s28.654 64 64 64c35.347 0 64-28.654 64-64s-28.653-64-64-64z" />
<glyph unicode="&#xe00e;" d="M128 384l-64 64h-32v-32l64-64zM160 480h32v-64h-32zM288 320h64v-32h-64zM320 416v32h-32l-64-64 32-32zM0 320h64v-32h-64zM160 192h32v-64h-32zM32 192v-32h32l64 64-32 32zM505 39l-318.059 318.059c-9.334 9.334-24.607 9.334-33.941 0l-30.059-30.059c-9.334-9.334-9.334-24.607 0-33.941l318.059-318.059c9.334-9.334 24.607-9.334 33.941 0l30.059 30.059c9.334 9.334 9.334 24.607 0 33.941zM240 208l-96 96 32 32 96-96-32-32z" />
<glyph unicode="&#xe00f;" d="M437.019 405.019c48.352-48.352 74.981-112.64 74.981-181.020s-26.629-132.666-74.981-181.018c-48.352-48.352-112.64-74.981-181.019-74.981s-132.667 26.629-181.019 74.981c-48.352 48.352-74.981 112.638-74.981 181.018s26.627 132.668 74.981 181.020c48.352 48.352 112.64 74.981 181.019 74.981s132.667-26.629 181.019-74.981zM414.392 65.607c31.529 31.53 52.493 70.804 61.136 113.531-6.737-9.919-13.181-13.597-17.171 8.603-4.111 36.195-37.355 13.074-58.259 25.93-22.002-14.829-71.453 28.831-63.049-20.412 12.967-22.211 70.004 29.725 41.574-17.27-18.137-32.808-66.321-105.467-60.053-143.13 0.791-54.872-56.067-11.442-75.657 6.76-13.178 36.46-4.491 100.187-38.948 118.043-37.402 1.624-69.503 5.023-83.998 46.835-8.724 29.914 9.282 74.447 41.339 81.322 46.925 29.483 63.687-34.526 107.695-35.717 13.664 14.297 50.908 18.843 53.996 34.875-28.875 5.095 36.634 24.279-2.764 35.191-21.735-2.557-35.739-22.537-24.184-39.479-42.119-9.82-43.468 60.952-83.955 38.629-1.029-35.295-66.111-11.443-22.518-4.286 14.978 6.544-24.43 25.507-3.139 22.062 10.457 0.568 45.665 12.906 36.137 21.201 19.605 12.17 36.080-29.145 55.269 0.942 13.854 23.132-5.81 27.403-23.176 15.677-9.789 10.963 17.286 34.638 41.167 44.869 7.959 3.41 15.561 5.268 21.373 4.742 12.030-13.896 34.275-16.303 35.439 1.67-29.791 14.268-62.638 21.805-96.646 21.805-48.811 0-95.235-15.512-133.654-44.195 10.325-4.73 16.187-10.619 6.239-18.148-7.728-23.027-39.084-53.938-66.612-49.562-14.293-24.648-23.706-51.802-27.73-80.264 23.056-7.628 28.372-22.725 23.418-27.775-11.748-10.243-18.968-24.765-22.688-40.661 7.505-45.918 29.086-88.238 62.635-121.788 42.309-42.308 98.559-65.607 158.392-65.607 59.832 0 116.085 23.299 158.392 65.607z" />
<glyph unicode="&#xe010;" d="M240 448c-132.549 0-240-107.451-240-240s107.451-240 240-240c132.549 0 240 107.451 240 240s-107.451 240-240 240zM375.795 128c4.29 20.227 6.998 41.696 7.879 64h63.723c-1.669-22.098-6.813-43.557-15.339-64h-56.263zM104.205 288c-4.29-20.227-6.998-41.696-7.879-64h-63.721c1.669 22.097 6.811 43.557 15.339 64h56.261zM343.018 288c4.807-20.481 7.699-41.927 8.64-64h-95.658v64h87.018zM256 320v93.669c7.295-2.123 14.522-5.685 21.614-10.685 13.291-9.37 26.006-23.803 36.77-41.743 7.441-12.401 13.875-26.208 19.248-41.242h-77.632zM165.616 361.242c10.763 17.939 23.478 32.374 36.77 41.743 7.091 5 14.319 8.562 21.614 10.685v-93.67h-77.632c5.373 15.033 11.808 28.84 19.248 41.242zM224 288v-64h-95.657c0.941 22.073 3.833 43.519 8.639 64h87.018zM47.944 128c-8.528 20.443-13.671 41.902-15.339 64h63.722c0.881-22.304 3.589-43.773 7.879-64h-56.262zM128.343 192h95.657v-64h-87.018c-4.806 20.48-7.699 41.927-8.639 64zM224 96v-93.67c-7.294 2.123-14.522 5.686-21.614 10.685-13.291 9.37-26.007 23.805-36.77 41.743-7.441 12.402-13.875 26.209-19.249 41.242h77.633zM314.384 54.758c-10.763-17.938-23.479-32.373-36.77-41.743-7.091-4.999-14.319-8.562-21.614-10.685v93.67h77.633c-5.374-15.033-11.808-28.84-19.249-41.242zM256 128v64h95.657c-0.941-22.073-3.833-43.52-8.64-64h-87.017zM383.674 224c-0.881 22.304-3.589 43.773-7.879 64h56.262c8.528-20.443 13.672-41.903 15.339-64h-63.722zM415.329 320h-47.95c-9.319 29.381-22.189 55.147-37.658 75.714 21.269-10.17 40.529-23.808 57.357-40.635 10.74-10.74 20.181-22.47 28.251-35.079zM92.922 355.078c16.829 16.829 36.090 30.466 57.357 40.635-15.471-20.567-28.338-46.333-37.658-75.714l-47.949 0.001c8.069 12.609 17.511 24.339 28.25 35.078zM64.672 96h47.949c9.32-29.381 22.189-55.147 37.659-75.715-21.269 10.17-40.529 23.808-57.357 40.637-10.74 10.739-20.182 22.469-28.251 35.078zM387.078 60.922c-16.827-16.829-36.090-30.467-57.357-40.637 15.471 20.567 28.339 46.334 37.658 75.715h47.95c-8.070-12.609-17.511-24.339-28.251-35.078z" />
<glyph unicode="&#xe011;" d="M447.97 163.249c-0.006 0.353-0.015 0.701-0.021 1.053-0.016 0.714-0.035 1.427-0.059 2.141-5.015 157.823-191.89 313.557-191.89 313.557s-186.877-155.734-191.89-313.561c-0.022-0.715-0.043-1.426-0.059-2.141-0.007-0.352-0.015-0.701-0.021-1.053-0.018-1.080-0.029-2.162-0.029-3.248 0-1.184 0.014-2.361 0.035-3.539 0.002-0.098 0.003-0.195 0.007-0.293 2.039-104.266 87.198-188.165 191.957-188.165 104.758 0 189.917 83.899 191.959 188.168 0.002 0.098 0.005 0.197 0.005 0.293 0.021 1.178 0.037 2.357 0.037 3.539-0.001 1.086-0.012 2.168-0.031 3.249zM383.975 157.63l-0.005-0.203c-0.659-33.643-14.266-65.167-38.313-88.774-24.070-23.636-55.914-36.653-89.657-36.653-6.231 0-12.397 0.447-18.462 1.319 69.528 41.423 116.109 117.352 116.109 204.161 0 9.728-0.59 19.317-1.726 28.739 20.136-36.97 31.032-71.4 32.001-101.813l0.002-0.072c0.016-0.474 0.026-0.946 0.039-1.422l0.014-0.723c0.013-0.728 0.023-1.459 0.023-2.189 0-0.792-0.010-1.581-0.025-2.37z" />
<glyph unicode="&#xe012;" d="M0 288h352v-64h-352v64zM0 384h352v-64h-352v64zM0 192h352v-64h-352v64zM0 96h352v-64h-352v64zM384 192l64-96 64 96h-128zM512 224l-64 96-64-96h128z" />
<glyph unicode="&#xe013;" d="M32 384h448v-96h-448zM32 256h448v-96h-448zM32 128h448v-96h-448z" />
<glyph unicode="&#xe014;" d="M448 224h-80l-112-112-112 112h-80l-64-128v-32h512v32l-64 128zM0 32h512v-32h-512v32zM288 320v128h-64v-128h-112l144-144 144 144h-112z" />
<glyph unicode="&#xe015;" d="M512 281.475l-176.89 25.704-79.11 160.291-79.109-160.291-176.891-25.704 128-124.769-30.216-176.176 158.216 83.179 158.216-83.179-30.217 176.176 128.001 124.769zM256 103.251l-0.471-0.248 0.471 285.384 55.869-113.198 124.918-18.152-90.394-88.111 21.339-124.415-111.732 58.74z" />
<glyph unicode="&#xe016;" d="M512 281.475l-176.89 25.704-79.11 160.291-79.109-160.291-176.891-25.704 128-124.769-30.216-176.176 158.216 83.179 158.216-83.179-30.217 176.176 128.001 124.769z" />
<glyph unicode="&#xe017;" d="M512 281.475l-176.89 25.704-79.11 160.291-79.109-160.291-176.891-25.704 128-124.769-30.216-176.176 158.216 83.179 158.216-83.179-30.217 176.176 128.001 124.769zM256 103.251l-111.731-58.741 21.338 124.415-90.393 88.111 124.92 18.152 55.866 113.199 55.869-113.198 124.918-18.152-90.394-88.111 21.339-124.415-111.732 58.74z" />
<glyph unicode="&#xe018;" d="M256 400.638l-172.417-368.638h344.834l-172.417 368.638zM256 480v0c11.035 0 22.070-7.441 30.442-22.325l218.536-435.555c16.745-29.766 2.5-54.12-31.651-54.12h-434.654c-34.152 0-48.395 24.354-31.652 54.12l218.537 435.555c8.372 14.884 19.407 22.325 30.442 22.325zM224 96c0-17.673 14.327-32 32-32s32 14.327 32 32c0 17.673-14.327 32-32 32s-32-14.327-32-32zM256 288c17.673 0 32-14.327 32-32l-10-96h-44l-10 96c0 17.673 14.327 32 32 32z" />
<glyph unicode="&#xe019;" d="M0 480v-512h512v512h-512zM480 0h-448v448h448v-448z" />
<glyph unicode="&#xe01a;" d="M512 176l-96 96v144h-64v-80l-96 96-256-256v-16h64v-160h160v96h64v-96h160v160h64z" />
<glyph unicode="&#xe01b;" d="M512 184.778l-256 198.713-256-198.714v81.018l256 198.714 256-198.714zM448 192v-192h-128v128h-128v-128h-128v192l192 144z" />
<glyph unicode="&#xe01c;" d="M0 480v-512h512v512h-512zM480 0h-448v448h448v-448zM384 368l-160-160-96 96-64-64 160-160 224 224-64 64z" />
<glyph unicode="&#xe01d;" d="M0 480v-512h512v512h-512zM480 0h-448v448h448v-448zM128 352h256v-256h-256z" />
<glyph unicode="&#xe01e;" d="M256 480c-141.385 0-256-114.615-256-256s114.615-256 256-256 256 114.615 256 256-114.615 256-256 256zM256 32c-106.039 0-192 85.961-192 192s85.961 192 192 192c106.039 0 192-85.961 192-192s-85.961-192-192-192zM160 224c0-53.019 42.981-96 96-96s96 42.981 96 96c0 53.019-42.981 96-96 96s-96-42.981-96-96z" />
<glyph unicode="&#xe01f;" d="M256 480c-141.385 0-256-114.615-256-256s114.615-256 256-256 256 114.615 256 256-114.615 256-256 256zM256 32c-106.039 0-192 85.961-192 192s85.961 192 192 192c106.039 0 192-85.961 192-192s-85.961-192-192-192z" />
<glyph unicode="&#xe020;" d="M192 224h-160v64h160v64l96-96-96-96zM512 480v-416l-192-96v96h-192v128h32v-96h160v288l128 64h-288v-128h-32v160z" />
<glyph unicode="&#xe021;" d="M384 160v64h-160v64h160v64l96-96zM352 192v-128h-160v-96l-192 96v416h352v-160h-32v128h-256l128-64v-288h128v96z" />
<glyph unicode="&#xe022;" d="M371.2 480h-107.52c-14.131 0-20.48-11.469-20.48-25.6h51.2c14.157 0 25.6-11.469 25.6-25.6v-317.44l76.8-92.16v435.2c0 14.131-11.443 25.6-25.6 25.6zM243.2 403.2h-107.52c-14.131 0-20.48-11.469-20.48-25.6v-409.6l76.8 92.16 76.8-92.16v409.6c0 14.131-11.443 25.6-25.6 25.6z" />
<glyph unicode="&#xe023;" d="M448 352v64h-448v-352c0-17.673 14.327-32 32-32h432c26.511 0 48 21.489 48 48v272h-64zM416 64h-384v320h384v-320zM64 320h320v-32h-320zM256 256h128v-32h-128zM256 192h128v-32h-128zM256 128h96v-32h-96zM64 256h160v-160h-160z" />
<glyph unicode="&#xe024;" d="M507.331 68.67c-0.002 0.002-0.005 0.005-0.006 0.005l-155.322 155.325 155.322 155.325c0.002 0.002 0.005 0.003 0.006 0.005 1.672 1.673 2.881 3.627 3.656 5.709 2.123 5.688 0.912 12.341-3.662 16.915l-73.373 73.372c-4.574 4.573-11.225 5.783-16.914 3.661-2.080-0.775-4.035-1.984-5.709-3.655 0-0.002-0.002-0.003-0.005-0.005l-155.323-155.327-155.324 155.325c-0.002 0.002-0.003 0.003-0.005 0.005-1.673 1.671-3.627 2.88-5.707 3.655-5.69 2.125-12.341 0.913-16.915-3.661l-73.375-73.373c-4.574-4.574-5.784-11.226-3.661-16.914 0.776-2.080 1.985-4.035 3.656-5.709 0.002-0.001 0.003-0.003 0.005-0.005l155.326-155.323-155.326-155.326c-0.001-0.002-0.003-0.003-0.005-0.005-1.671-1.673-2.88-3.627-3.657-5.707-2.125-5.688-0.913-12.341 3.661-16.915l73.374-73.373c4.575-4.574 11.226-5.784 16.915-3.661 2.080 0.776 4.035 1.985 5.709 3.656 0.001 0.002 0.003 0.003 0.005 0.005l155.325 155.325 155.325-155.325c0.002-0.001 0.005-0.003 0.006-0.005 1.674-1.672 3.627-2.881 5.707-3.657 5.689-2.123 12.342-0.913 16.914 3.661l73.373 73.374c4.574 4.574 5.785 11.227 3.662 16.915-0.778 2.081-1.986 4.035-3.658 5.708z" />
<glyph unicode="&#xe025;" d="M0.175 224l-0.175 156.037 192 26.072v-182.109zM224 410.759l255.936 37.241v-224h-255.936zM479.999 192l-0.063-224-255.936 36.008v187.992zM192 8.082l-191.843 26.297-0.011 157.621h191.854z" />
<glyph unicode="&#xe026;" d="M206.115 224.043c-23.854 12.259-47.043 18.479-68.939 18.479-2.978 0-5.976-0.090-8.974-0.354-27.941-2.312-53.461-9.683-69.875-15.414-4.354-1.599-8.817-3.288-13.415-5.153l-44.912-155.697c30.851 11.416 58.146 16.969 83.135 16.969 40.423 0 69.763-15.104 93.995-30.653 11.481 38.959 39.022 133.045 47.241 161.162-5.974 3.643-12.037 7.285-18.256 10.661zM264.174 184.465l-45.223-157.074c13.416-7.686 58.549-32.025 93.106-32.025 27.896 0 59.126 7.149 95.417 21.896l43.178 150.987c-29.315-9.461-57.438-14.259-83.733-14.259-47.974 0-81.556 15.549-102.745 30.475zM146.411 295.605c38.559-0.399 67.075-15.104 90.709-30.251l46.376 158.672c-9.773 5.598-35.403 19.547-53.929 24.299-12.193 2.842-25.010 4.307-38.602 4.307-25.898-0.488-54.194-6.973-86.445-19.899l-44.219-155.298c32.405 12.218 60.322 18.17 86.043 18.17 0.022 0 0.067 0 0.067 0zM512 380.938c-29.407-11.416-58.104-17.233-85.514-17.233-45.843 0-79.646 15.901-101.547 31.183l-45.974-159.118c30.873-19.854 64.145-29.939 99.061-29.939 28.474 0 57.97 6.84 87.731 20.344l-0.091 1.111 1.867 0.443 44.467 153.209z" />
<glyph unicode="&#xe027;" d="M432 320c-17.6 0-32-14.4-32-32v-128c0-17.6 14.4-32 32-32s32 14.4 32 32v128c0 17.6-14.4 32-32 32zM48 320c-17.6 0-32-14.4-32-32v-128c0-17.6 14.4-32 32-32s32 14.4 32 32v128c0 17.6-14.401 32-32 32zM96 112c0-26.51 21.49-48 48-48h16v-64c0-17.6 14.4-32 32-32s32 14.4 32 32v64h32v-64c0-17.6 14.401-32 32-32s32 14.4 32 32v64h16c26.51 0 48 21.49 48 48v176h-288v-176zM299.299 435.253l20.251 38.903c1.016 1.951 0.25 4.379-1.701 5.395s-4.379 0.25-5.395-1.701l-20.559-39.493c-16.098 6.224-33.596 9.643-51.895 9.643-18.298 0-35.797-3.419-51.898-9.643l-20.558 39.492c-1.016 1.951-3.443 2.717-5.395 1.701s-2.717-3.443-1.701-5.395l20.25-38.904c-45.315-20.509-78.12-63.792-83.81-115.253h286.221c-5.688 51.463-38.494 94.745-83.81 115.255zM176 344.8c-12.813 0-23.2 10.387-23.2 23.2s10.387 23.2 23.2 23.2 23.2-10.387 23.2-23.2c-0.001-12.813-10.387-23.2-23.2-23.2zM304 344.8c-12.813 0-23.201 10.387-23.201 23.2s10.389 23.2 23.201 23.2 23.199-10.387 23.199-23.2c0-12.813-10.386-23.2-23.199-23.2z" />
<glyph unicode="&#xe028;" d="M395.749 207.954c-0.647 64.841 52.879 95.938 55.271 97.483-30.077 44.010-76.925 50.039-93.621 50.736-39.871 4.037-77.798-23.474-98.033-23.474-20.184 0-51.409 22.877-84.475 22.275-43.458-0.646-83.529-25.269-105.906-64.19-45.152-78.349-11.563-194.419 32.445-257.963 21.504-31.102 47.146-66.038 80.813-64.79 32.421 1.294 44.681 20.979 83.878 20.979s50.214-20.979 84.525-20.335c34.887 0.648 56.991 31.699 78.346 62.898 24.695 36.085 34.863 71.019 35.462 72.813-0.775 0.355-68.031 26.119-68.705 103.568zM331.281 398.239c17.869 21.679 29.93 51.756 26.64 81.761-25.739-1.048-56.939-17.145-75.405-38.775-16.571-19.189-31.074-49.813-27.187-79.218 28.733-2.242 58.064 14.602 75.952 36.232z" />
<glyph unicode="&#xe029;" d="M304.438 153.266c-8.641-8.713-1.334-24.565-1.334-24.565l65.045-108.609c0 0 10.68-14.32 19.933-14.32 9.295 0 18.477 7.635 18.477 7.635l51.422 73.504c0 0 5.179 9.273 5.299 17.397 0.186 11.553-17.227 14.717-17.227 14.717l-121.744 39.096c-0.002-0.002-11.93 3.164-19.871-4.855zM298.266 208.008c6.23-10.565 23.414-7.486 23.414-7.486l121.469 35.503c0 0 16.553 6.733 18.917 15.709 2.32 8.977-2.73 19.811-2.73 19.811l-58.049 68.376c0 0-5.031 8.646-15.469 9.515-11.507 0.979-18.59-12.949-18.59-12.949l-68.635-108.005c-0.001-0.001-6.068-10.757-0.327-20.474zM240.877 250.117c14.304 3.522 16.574 24.302 16.574 24.302l-0.973 172.935c0 0-2.157 21.333-11.743 27.117-15.035 9.121-19.491 4.359-23.798 3.722l-100.847-37.474c0 0-9.877-3.267-15.021-11.509-7.345-11.675 7.464-28.771 7.464-28.771l104.822-142.879c0 0 10.344-10.698 23.522-7.443zM215.973 180.131c0.361 13.338-16.015 21.35-16.015 21.35l-108.399 54.762c0 0-16.063 6.623-23.861 2.008-5.975-3.53-11.269-9.92-11.786-15.567l-7.059-86.906c0 0-1.058-15.057 2.845-21.91 5.527-9.721 23.714-2.951 23.714-2.951l126.549 27.971c4.914 3.305 13.535 3.602 14.012 21.243zM247.44 133.229c-10.863 5.578-23.862-5.975-23.862-5.975l-84.734-93.283c0 0-10.571-14.264-7.885-23.025 2.533-8.209 6.727-12.289 12.659-15.163l85.096-26.863c0 0 10.317-2.143 18.129 0.121 11.090 3.215 9.047 20.576 9.047 20.576l1.923 126.301c0.001-0.003-0.432 12.167-10.373 17.311z" />
<glyph unicode="&#xe02a;" d="M348.915 316.475l-32.475 32.461-162.405-162.37c-26.907-26.896-26.907-70.525 0-97.422 26.902-26.896 70.53-26.896 97.437 0l194.886 194.854c44.857 44.831 44.857 117.531 0 162.363-44.833 44.851-117.555 44.851-162.391 0l-204.615-204.588c-0.145-0.152-0.306-0.288-0.438-0.423-62.551-62.549-62.551-163.928 0-226.453 62.527-62.528 163.934-62.528 226.494 0 0.137 0.137 0.258 0.283 0.41 0.438l0.016-0.017 139.666 139.646-32.493 32.459-139.665-139.631c-0.149-0.134-0.282-0.285-0.423-0.422-44.537-44.529-116.99-44.529-161.538 0-44.531 44.521-44.531 116.961 0 161.489 0.152 0.152 0.302 0.291 0.445 0.423l-0.023 0.030 204.64 204.583c26.856 26.869 70.573 26.869 97.443 0 26.856-26.867 26.856-70.574 0-97.421l-194.887-194.849c-8.968-8.961-23.527-8.961-32.486 0-8.947 8.943-8.947 23.515 0 32.459l162.402 162.391z" />
<glyph unicode="&#xe02b;" d="M368.010 162.019c10.183 18.366 15.99 39.494 15.99 61.981 0 51.657-30.605 96.162-74.667 116.386 16.362 14.649 26.667 35.925 26.667 59.614 0 44.183-35.817 80-80 80s-80-35.817-80-80c0-23.69 10.305-44.965 26.667-59.614-44.062-20.224-74.667-64.729-74.667-116.386 0-22.487 5.806-43.615 15.99-61.979-66.947-38.734-111.99-111.115-111.99-194.021h448c0 82.906-45.043 155.287-111.99 194.019z" />
<glyph unicode="&#xe02c;" d="M385.758 320c9.063 6.44 17.757 13.608 25.722 21.574 16.701 16.701 27.873 37.25 31.456 57.861 3.929 22.593-1.837 43.57-15.815 57.55-11.15 11.149-26.255 17.043-43.682 17.043-24.816 0-50.961-11.912-71.73-32.681-33.238-33.238-52.613-79.119-63.038-111.861-7.72 32.901-23.103 77.322-53.009 107.229-16.047 16.046-36.557 24.285-55.923 24.285-15.827 0-30.89-5.502-42.13-16.743-24.993-24.994-21.616-68.893 7.543-98.053 10.397-10.397 22.549-19.031 35.36-26.206l-108.512 0.001v-128h32v-224h384v224.001h32v128h-94.242zM337.163 415.891c13.862 13.862 31.161 22.137 46.275 22.137 5.35 0 12.854-1.127 18.225-6.499 13.015-13.014 5.706-43.154-15.64-64.499-21.973-21.973-51.53-37.085-77.216-47.030h-25.336c9.284 28.774 26.030 68.229 53.692 95.891zM116.967 399.555c-0.351 4.56-0.025 13.125 6.098 19.247 5.122 5.123 11.894 6.198 16.674 6.198v0c10.629 0 21.734-5.008 30.466-13.741 16.936-16.936 30.883-43.886 40.334-77.938 0.255-0.92 0.504-1.835 0.747-2.743-0.907 0.243-1.823 0.491-2.743 0.747-34.053 9.453-61.001 23.399-77.937 40.335-7.913 7.915-12.884 18.082-13.639 27.895zM224 0h-128v208h128v-208zM224 224h-160v64h160v-64zM416 0h-128v208h128v-208zM448 224h-160v64h160v-64z" />
<glyph unicode="&#xe02d;" d="M416 384v64h-320v-64h-96v-64c0-53.019 42.979-96 96-96 10.038 0 19.715 1.543 28.81 4.401 23.087-33.003 58.304-56.898 99.19-65.198v-99.203h-32c-35.347 0-64-28.653-64-64h256c0 35.347-28.653 64-64 64h-32v99.203c40.886 8.301 76.103 32.193 99.19 65.198 9.095-2.858 18.772-4.401 28.81-4.401 53.021 0 96 42.981 96 96v64h-96zM96 262c-31.981 0-58 26.019-58 58v32h58v-32c0-20.093 3.715-39.315 10.477-57.034-3.402-0.623-6.899-0.966-10.477-0.966zM474 320c0-31.981-26.019-58-58-58-3.578 0-7.075 0.343-10.477 0.966 6.762 17.719 10.477 36.941 10.477 57.034v32h58v-32z" />
<glyph unicode="&#xe02e;" d="M304 288c-16-16-16-16-16-32v-224h64c17.673 0 32-14.327 32-32h-256c0 17.673 14.327 32 32 32h64v224c0 16 0 16-16 32l-137.373 137.373c-12.445 12.445-8.227 22.627 9.373 22.627h352c17.6 0 21.817-10.182 9.373-22.627l-137.368-137.368c-0.002-0.002-0.003-0.004-0.005-0.005z" />
<glyph unicode="&#xe02f;" d="M358.774 480c-84.382-139.493-151.15-70.891-248.795-171.215-86.168-88.533-56.291-195.153 16.262-231.872 71.615 36.594 144.883 118.411 199.225 236.862 0 0 48.833-149.571-100.745-293.687 72.634-85.074 195.914-25.886 230.363 109.459 37.449 147.138-60.194 296.948-96.31 350.453zM48.506-3.121c0.057-1.453 1.711-28.879 37.683-28.879 26.173 0 158.917 72.339 227.133 260.102-103.219-182.607-253.060-227.919-264.816-231.223z" />
<glyph unicode="&#xe030;" d="M408.785 305.925c-96.783 71.929-130.134 129.509-152.783 174.074v0c-0.002 0-0.002 0.001-0.002 0.001v-0.001c-22.648-44.565-56-102.146-152.783-174.074-165.018-122.643-9.688-293.834 126.879-199.611-8.898-58.465-39.265-101.086-70.104-119.441v-18.873h192.016v18.87c-30.841 18.354-61.205 60.977-70.106 119.442 136.568-94.223 291.9 76.97 126.883 199.613z" />
<glyph unicode="&#xe031;" d="M416 448h-320l-96-96v-336c0-8.837 7.163-16 16-16h480c8.837 0 16 7.163 16 16v336l-96 96zM256 64l-160 128h96v96h128v-96h96l-160-128zM77.255 384l32 32h293.489l32-32h-357.489z" />
<glyph unicode="&#xe032;" d="M491.536 371.616l-147.152-148.048 147.152-147.168c6.16-6.144 6.16-16.112 0-22.272l-66.816-66.8c-6.128-6.16-16.096-6.16-22.256 0l-146.912 146.912-146.032-146.912c-6.144-6.16-16.112-6.16-22.272 0l-66.8 66.8c-6.144 6.16-6.144 16.128 0 22.272l146.032 146.912-146.016 146.016c-6.144 6.144-6.144 16.112 0 22.272l66.8 66.8c6.144 6.16 16.112 6.16 22.272 0l145.76-145.76 147.184 148.048c6.16 6.16 16.128 6.16 22.256 0l66.816-66.8c6.128-6.16 6.128-16.128-0.016-22.272z" />
<glyph unicode="&#xe033;" d="M256 192l128 128h-96v128h-64v-128h-96zM372.363 244.365l-35.87-35.872 130.040-48.493-210.533-78.509-210.533 78.509 130.040 48.493-35.872 35.872-139.635-52.365v-128l256-96 256 96v128z" />
<glyph unicode="&#xe034;" d="M512.75 80c0 144-128 112-128 224 0 9.28-0.894 17.21-2.523 23.963-8.415 56.509-46.078 101.859-94.886 115.68 0.433 1.974 0.661 4.016 0.661 6.105-0.002 16.639-14.402 30.252-32.002 30.252s-32-13.613-32-30.25c0-2.090 0.229-4.131 0.661-6.105-54.735-15.499-95.457-70.649-96.627-136.721-0.021-0.96-0.033-1.931-0.033-2.923-0.001-112.001-128.001-80.001-128.001-224.001 0-38.113 85.295-69.998 199.485-78.040 10.762-20.202 32.028-33.96 56.515-33.96s45.754 13.758 56.515 33.96c114.19 8.042 199.485 39.927 199.485 78.040 0 0.114-0.013 0.229-0.014 0.341l0.764-0.341zM413.123 52.952c-27.115-7.235-59.079-12.438-93.384-15.325-2.852 32.71-30.291 58.373-63.739 58.373s-60.887-25.663-63.739-58.371c-34.304 2.886-66.269 8.089-93.384 15.325-37.315 9.955-55.155 21.093-61.684 27.046 6.529 5.953 24.369 17.091 61.685 27.048 43.385 11.576 99.185 17.952 157.122 17.952s113.737-6.376 157.123-17.952c37.315-9.957 55.155-21.095 61.685-27.048-6.53-5.953-24.37-17.091-61.685-27.048z" />
<glyph unicode="&#xe035;" d="M181.861 118.974l20.649 28.907-22.627 22.629-28.909-20.648c-5.361 2.997-11.102 5.387-17.133 7.096l-5.841 35.042h-32l-5.84-35.043c-6.031-1.709-11.771-4.099-17.133-7.096l-28.909 20.649-22.628-22.628 20.649-28.907c-2.997-5.36-5.387-11.103-7.096-17.133l-35.043-5.842v-32l35.043-5.841c1.709-6.030 4.099-11.771 7.096-17.133l-20.649-28.908 22.627-22.629 28.909 20.648c5.361-2.997 11.102-5.387 17.133-7.096l5.841-35.041h32l5.84 35.043c6.031 1.709 11.771 4.099 17.133 7.096l28.909-20.648 22.627 22.629-20.649 28.907c2.997 5.36 5.387 11.103 7.096 17.133l35.044 5.84v32l-35.043 5.841c-1.709 6.030-4.099 11.772-7.096 17.133zM112 48c-17.674 0-32 14.327-32 32s14.326 32 32 32 32-14.327 32-32-14.326-32-32-32zM512 288v32l-33.691 6.125c-0.621 4.023-1.416 7.989-2.362 11.895l28.779 18.55-12.246 29.564-33.472-7.234c-2.107 3.455-4.363 6.81-6.746 10.065l19.503 28.171-22.629 22.627-28.171-19.503c-3.256 2.383-6.61 4.638-10.065 6.747l7.234 33.472-29.563 12.247-18.55-28.779c-3.906 0.946-7.872 1.741-11.895 2.362l-6.126 33.691h-32l-6.126-33.691c-4.023-0.621-7.989-1.416-11.895-2.362l-18.549 28.779-29.564-12.246 7.234-33.472c-3.455-2.109-6.81-4.363-10.065-6.747l-28.171 19.503-22.627-22.627 19.503-28.171c-2.383-3.255-4.639-6.61-6.747-10.065l-33.472 7.234-12.246-29.565 28.779-18.55c-0.946-3.906-1.741-7.871-2.362-11.895l-33.692-6.125v-32l33.691-6.125c0.621-4.023 1.416-7.989 2.362-11.895l-28.779-18.55 12.246-29.565 33.472 7.234c2.109-3.455 4.363-6.809 6.747-10.065l-19.503-28.171 22.627-22.629 28.171 19.503c3.255-2.383 6.61-4.638 10.065-6.746l-7.234-33.472 29.565-12.246 18.551 28.779c3.905-0.946 7.871-1.741 11.894-2.362l6.125-33.69h32l6.126 33.691c4.022 0.621 7.989 1.416 11.895 2.362l18.55-28.779 29.565 12.246-7.234 33.472c3.455 2.109 6.81 4.363 10.065 6.746l28.171-19.503 22.629 22.629-19.503 28.171c2.383 3.256 4.638 6.61 6.746 10.065l33.472-7.234 12.246 29.565-28.779 18.55c0.946 3.906 1.741 7.871 2.362 11.895l33.689 6.124zM336 234.4c-38.439 0-69.6 31.161-69.6 69.6s31.16 69.6 69.6 69.6 69.6-31.161 69.6-69.6c0-38.439-31.16-69.6-69.6-69.6z" />
<glyph unicode="&#xe036;" d="M466.895 174.875c-26.863 46.527-10.709 106.152 36.077 133.243l-50.313 87.146c-14.375-8.427-31.088-13.259-48.923-13.259-53.768 0-97.354 43.873-97.354 97.995l-100.63 0.001c0.133-16.705-4.037-33.641-12.979-49.126-26.862-46.528-86.578-62.351-133.431-35.379l-50.312-87.146c14.485-8.237 27.025-20.294 35.943-35.739 26.819-46.454 10.757-105.96-35.854-133.112l50.313-87.146c14.325 8.349 30.958 13.127 48.701 13.127 53.598 0 97.072-43.595 97.35-97.479h100.627c-0.043 16.537 4.136 33.285 12.983 48.609 26.818 46.453 86.389 62.297 133.207 35.506l50.313 87.145c-14.391 8.233-26.847 20.249-35.718 35.614zM256 120.334c-57.254 0-103.669 46.413-103.669 103.667s46.413 103.667 103.669 103.667c57.254 0 103.666-46.413 103.666-103.667-0.001-57.255-46.412-103.667-103.666-103.667z" />
<glyph unicode="&#xe037;" d="M192 448h320v-64h-320v64zM192 256h320v-64h-320v64zM192 64h320v-64h-320v64zM0 416c0-35.346 28.654-64 64-64s64 28.654 64 64c0 35.346-28.654 64-64 64s-64-28.654-64-64zM0 224c0-35.346 28.654-64 64-64s64 28.654 64 64c0 35.346-28.654 64-64 64s-64-28.654-64-64zM0 32c0-35.346 28.654-64 64-64s64 28.654 64 64c0 35.346-28.654 64-64 64s-64-28.654-64-64z" />
<glyph unicode="&#xe038;" d="M128 416v-448l160 160 160-160v448zM384 480h-320v-448l32 32v384h288z" />
<glyph unicode="&#xe039;" d="M96 480v-512l160 160 160-160v512z" />
<glyph unicode="&#xe03a;" d="M416 393.847c38.233 0 72.546 20.811 96 36.553v-297.845c-23.454-15.742-57.767-36.555-96-36.555s-72.546 11.335-96 27.078c-23.454 15.74-57.767 27.075-96 27.075s-72.545-19.458-96-35.198v297.845c23.455 15.742 57.767 35.2 96 35.2s72.546-11.334 96-27.075c23.454-15.743 57.767-27.078 96-27.078zM64 480c17.673 0 32-14.327 32-32v-480h-64v480c0 17.673 14.327 32 32 32z" />
<glyph unicode="&#xe03b;" d="M476.698 442.679l-2.014 2.021c-47.074 47.067-124.097 47.067-171.163 0l-109.054-109.068c-47.067-47.066-47.067-124.088 0-171.155l2.013-2.013c3.915-3.923 8.073-7.462 12.368-10.729l39.925 39.925c-4.651 2.747-9.063 6.035-13.058 10.030l-2.021 2.021c-25.557 25.549-25.557 67.136 0 92.695l109.064 109.056c25.558 25.559 67.137 25.559 92.693 0l2.021-2.011c25.55-25.558 25.55-67.146 0-92.695l-49.343-49.343c8.566-21.154 12.624-43.701 12.269-66.193l76.302 76.302c47.067 47.067 47.067 124.088-0.002 171.157zM315.521 285.533c-3.915 3.915-8.073 7.461-12.368 10.72l-39.925-39.915c4.653-2.749 9.063-6.037 13.058-10.031l2.021-2.021c25.558-25.558 25.558-67.136 0-92.694l-109.064-109.067c-25.559-25.551-67.138-25.551-92.694 0l-2.021 2.021c-25.549 25.56-25.549 67.138 0 92.694l49.344 49.343c-8.567 21.153-12.623 43.701-12.269 66.193l-76.301-76.299c-47.067-47.066-47.067-124.089 0-171.162l2.013-2.016c47.075-47.064 124.096-47.064 171.163 0l109.055 109.059c47.067 47.066 47.067 124.097 0 171.163l-2.012 2.012z" />
<glyph unicode="&#xe03c;" d="M507.296 365.872l-45.424 45.424c-6.288 6.288-16.416 6.288-22.704 0l-232.24-245.184-133.12 133.184c-6.352 6.352-16.656 6.352-23.008 0l-46.016-46.048c-6.352-6.336-6.352-16.64 0-23.008l189.328-193.728c3.664-3.68 8.64-4.944 13.424-4.32 4.944-0.736 10.096 0.512 13.888 4.32l285.872 306.64c6.272 6.272 6.272 16.448 0 22.72z" />
<glyph unicode="&#xe03d;" d="M464-32h-336v512h160v-288l48 64h32l48-64v288h48c8.848 0 16-7.168 16-16v-480c0-8.848-7.152-16-16-16zM32-16v480c0 8.832 7.152 16 16 16h48v-512h-48c-8.848 0-16 7.152-16 16z" />
<glyph unicode="&#xe03e;" d="M-0.501 96l256.017-64 255.984 64v-64l-255.984-64-256.017 64zM-0.501 224l256.017-64 255.984 64v-64l-255.984-64-256.017 64zM-0.501 352l256.017-64 255.984 64v-64l-255.984-64-256.017 64zM-0.501 480l256.017-64 255.984 64v-64l-255.984-64-256.017 64z" horiz-adv-x="510" />
<glyph unicode="&#xe040;" d="M252.6 106.955c-1.062 0.010-2.057 0.020-3.062 0.050l0.564 20.52c10.114-0.226 20.37 1.042 30.14 3.878l5.8-19.694c-10.837-3.151-22.090-4.754-33.442-4.754zM216.25 112.589c-10.768 3.432-20.991 8.378-30.386 14.71l11.576 16.991c7.767-5.231 16.206-9.312 25.104-12.153l-6.294-19.548zM316.791 125.637l-11.153 17.291c7.881 5.024 15 11.139 21.18 18.157l15.542-13.52c-7.445-8.477-16.066-15.851-25.569-21.928zM160.862 149.835c-7.256 8.683-13.222 18.309-17.715 28.623l18.943 8.171c3.712-8.525 8.64-16.488 14.64-23.656l-15.868-13.138zM360.767 175.734l-18.732 8.643c3.949 8.447 6.635 17.384 8.008 26.578l20.429-3.019c-1.666-11.141-4.934-21.976-9.705-32.202zM134.266 210.886c-0.6 4.818-0.904 9.72-0.904 14.584 0 6.372 0.52 12.765 1.537 18.999l20.379-3.299c-0.841-5.14-1.262-10.425-1.262-15.707 0-4.032 0.242-8.097 0.739-12.065l-20.489-2.512zM350.218 238.749c-1.248 9.228-3.832 18.205-7.668 26.678l18.845 8.416c4.636-10.28 7.751-21.154 9.29-32.324l-20.467-2.77zM163.64 267.662l-18.617 8.881c4.903 10.123 11.211 19.523 18.772 27.915l15.381-13.699c-6.262-6.952-11.496-14.725-15.536-23.097zM327.615 288.905c-6.071 7.090-13.125 13.282-20.948 18.417l11.371 17.14c9.437-6.196 17.954-13.677 25.277-22.236l-15.7-13.321zM200.576 308.637l-10.918 17.428c9.628 5.976 20.022 10.526 30.926 13.552l5.546-19.786c-8.995-2.485-17.595-6.25-25.554-11.194zM281.408 319.158c-8.893 2.708-18.177 4.137-27.581 4.257l0.253 20.531c11.37-0.145 22.599-1.883 33.376-5.17l-6.048-19.618zM252.6 477.125c-139.57 0-253.161-112.899-253.161-251.65 0-138.834 113.591-251.722 253.161-251.722 139.496 0 253.085 112.888 253.085 251.722 0 138.751-113.589 251.65-253.085 251.65zM412.949 125.401l-38.987 24.396c-8.611-13.61-19.391-25.69-31.968-35.684l28.72-35.736c-33.395-26.553-75.344-41.169-118.108-41.169-13.926 0-27.804 1.514-41.272 4.509l10.012 44.64c-15.987 3.539-30.922 9.772-44.416 18.15l-24.367-38.859c-36.316 22.537-64.187 56.931-78.477 96.877l43.409 15.344c-5.272 14.738-8.293 30.514-8.353 47.026h-45.924v0.563c0 42.275 14.584 83.798 41.035 116.897l36.008-28.448c10.018 12.534 22.118 23.318 35.771 31.927l-24.643 38.669c30.283 19.095 65.291 29.178 101.222 29.178 6.932 0 13.892-0.376 20.684-1.113l-4.973-45.411c16.374-1.791 31.873-6.422 46.136-13.238l19.949 41.296c38.488-18.389 69.969-49.558 88.623-87.768l-41.452-20.017c6.909-14.156 11.616-29.553 13.465-45.851l45.685 5.154c0.797-7.013 1.207-14.171 1.207-21.28-0.005-35.482-10.025-70.092-28.986-100.052z" horiz-adv-x="508" />
<glyph unicode="&#xe042;" d="M512 265.373c0 100.463-29.395 181.969-65.741 182.613 0.146 0.003 0.289 0.015 0.437 0.015h-41.471c0 0-97.4-73.168-237.615-101.877-4.28-22.646-7.015-49.637-7.015-80.751s2.733-58.104 7.015-80.75c140.214-28.709 237.615-101.878 237.615-101.878h41.471c-0.146 0-0.289 0.013-0.437 0.016 36.348 0.642 65.741 82.148 65.741 182.612zM432.413 110.374c-4.691 0-9.766 4.871-12.373 7.774-6.315 7.032-12.397 17.979-17.594 31.664-11.629 30.616-18.033 71.655-18.033 115.562 0 43.905 6.405 84.945 18.033 115.561 5.197 13.683 11.281 24.633 17.594 31.664 2.607 2.906 7.682 7.776 12.373 7.776s9.768-4.872 12.371-7.776c6.317-7.032 12.398-17.979 17.594-31.664 11.629-30.615 18.034-71.656 18.034-115.561 0-43.902-6.405-84.944-18.034-115.562-5.195-13.683-11.281-24.632-17.594-31.664-2.603-2.903-7.68-7.774-12.371-7.774zM125.906 265.373c0 25.975 1.905 51.215 5.526 74.547-23.686-3.277-44.471-5.162-70.17-5.162-33.529 0-33.529 0-33.529 0l-27.733-47.344v-44.085l27.73-47.343c0 0 0 0 33.53 0 25.699 0 46.485-1.887 70.17-5.162-3.619 23.333-5.524 48.573-5.524 74.549zM184.075 158.914l-63.999 12.255 40.921-160.771c2.118-8.317 10.371-12.519 18.343-9.327l59.278 23.726c7.973 3.189 11.163 11.982 7.098 19.542l-61.641 114.575zM432.413 205.635c-1.809 0-3.763 1.877-4.769 2.997-2.435 2.71-4.778 6.93-6.781 12.203-4.481 11.8-6.95 27.617-6.95 44.539s2.469 32.739 6.95 44.539c2.003 5.274 4.347 9.494 6.781 12.203 1.005 1.12 2.96 2.997 4.769 2.997 1.808 0 3.765-1.878 4.769-2.997 2.435-2.71 4.778-6.929 6.781-12.203 4.482-11.799 6.951-27.617 6.951-44.539 0-16.921-2.469-32.739-6.951-44.539-2.002-5.274-4.347-9.494-6.781-12.203-1.005-1.12-2.961-2.997-4.769-2.997z" />
<glyph unicode="&#xe043;" d="M269.464 451.776c-132.576 0-240.008-107.44-240.008-240 0-132.536 107.432-240 240.008-240 132.528 0 240 107.464 240 240 0 132.56-107.472 240-240 240zM269.464 48.52c-90.16 0-163.264 73.096-163.264 163.256 0 90.152 73.104 163.248 163.264 163.248 90.152 0 163.248-73.096 163.248-163.248 0-90.16-73.096-163.256-163.248-163.256zM268.928 335.288c-1.376 6.56-4.432 9.92-9.904 9.92-5.504 0-8.56-3.36-9.936-9.92-1.44-6.688-21.504-103.168-25.536-122.48-3.496-16.944 4.848-33.064 19.312-40.032 7.032-3.488 15.312-4.704 23.816-2.944 19.312 4 115.784 24.096 122.472 25.52 6.56 1.392 9.936 4.44 9.936 9.92 0 5.456-3.376 8.536-9.936 9.92-5.192 1.112-64.192 13.392-99.504 20.752-7.376 35.344-19.624 94.176-20.72 99.344z" horiz-adv-x="528" />
<glyph unicode="&#xe044;" d="M299.424 185.344l0.576 0.256h36l-72-121.6-72 121.6h36l71.424-0.256zM228.576 246.656l-0.576-0.256h-36l72 121.6 72-121.6h-36l-71.424 0.256z" horiz-adv-x="528" />
<glyph unicode="&#xe045;" d="M291.208-17.56l198.328 317.688-156.64 98.728c-13.344 3.16-27.728-2.104-35.432-14.344l-106.984-170.328c-3.688-5.92-4.208-10.872-3.304-15.088 0.96-4.176 3.488-7.912 7.96-10.736 4.48-2.8 8.936-3.44 13.104-2.488 4.144 1.016 8.408 3.64 12.16 9.536l67.672 107.776c3.76 6 11.688 7.8 17.704 4.032 5.984-3.744 7.792-11.656 4.016-17.672l-67.688-107.776c-6.8-10.88-16.896-18.296-28-20.816-11.112-2.656-22.864-0.456-32.6 5.72-9.824 6.112-16.92 15.752-19.352 26.856-2.52 11.144-0.256 23.456 6.624 34.344l106.984 170.312c6.088 9.688 14.608 16.848 24.216 21.456l-67.936 42.8-199-318.72 258.168-161.28z" horiz-adv-x="528" />
<glyph unicode="&#xe046;" d="M64.613 69.579c22.382 21.456 51.107 28.971 80.084 34.006 80.861 14.055 161.753 14.085 242.288-3.406 24.025-5.213 46.57-13.493 64.98-30.6 0-4.454 0-8.904 0-13.358-11.020-7.011-21.275-16.091-33.245-20.531-17.76-6.585-36.595-10.555-55.225-14.389-19.33-3.976-38.96-6.466-58.455-9.6-31.165 0-62.333 0-93.501 0-19.497 3.134-39.019 6.134-58.484 9.449-31.937 5.44-63.43 12.12-88.442 35.071 0 4.454 0 8.904 0 13.358zM273.875 448.027c6.685-2.909 13.34-5.875 20.055-8.724 42.529-18.045 67.316-64.141 58.424-108.695-9.184-46.003-47.569-78.383-94.095-79.376-47.644-1.015-87.189 30.155-98.013 77.253-10.067 43.793 13.984 91.155 55.931 110.045 7.305 3.287 14.716 6.337 22.078 9.497 11.87 0 23.745 0 35.62 0zM190.383 386.503c-20.282-33.903-12.905-73.455 17.227-98.598 28.792-24.020 69.18-23.758 97.68 0.632 31.169 26.676 36.8 67.265 14.335 103.85-17.010 11.911-32.724 3.436-47.606-4.394-16.962-8.923-34.282-14.075-53.229-10.355-9.287 1.823-18.19 5.604-28.407 8.865zM202.333 401.358c34.989-24.175 61.402 4.032 92.482 13.135-32.857 21.019-71.090 15.189-92.482-13.135zM239.627 168.815c-2.787-15.94-5.172-29.59-7.317-41.865-47.195-7.695-92.748-15.12-138.213-22.531-5.16 47.471 42.185 122.391 91.84 143.106 16.448-7.978 32.893-15.967 51.010-24.765-13.324-17.68-19.757-36.245 2.68-53.945zM325.525 247.41c48.060-17.665 94.785-89.78 92.854-143.976-22.804 4.941-45.409 10.921-68.389 14.521-22.485 3.52-45.345 4.624-69.575 6.94-2.505 13.64-4.99 27.179-7.529 41.050 14.259 17.965 23.229 36.145 0.184 55.495 18.76 9.29 35.475 17.566 52.455 25.97z" />
<glyph unicode="&#xe047;" d="M192 416c0-35.346 28.654-64 64-64s64 28.654 64 64c0 35.346-28.654 64-64 64s-64-28.654-64-64zM327.765 359.765c0-35.346 28.654-64 64-64s64 28.654 64 64c0 35.346-28.654 64-64 64s-64-28.654-64-64zM416 224c0-17.673 14.327-32 32-32s32 14.327 32 32c0 17.673-14.327 32-32 32s-32-14.327-32-32zM359.765 88.235c0-17.673 14.327-32 32-32s32 14.327 32 32c0 17.673-14.327 32-32 32s-32-14.327-32-32zM224.001 32c0 0 0 0 0 0 0-17.673 14.327-32 32-32s32 14.327 32 32c0 0 0 0 0 0s0 0 0 0c0 17.673-14.327 32-32 32s-32-14.327-32-32c0 0 0 0 0 0zM88.237 88.235c0-17.673 14.327-32 32-32s32 14.327 32 32c0 17.673-14.327 32-32 32s-32-14.327-32-32zM72.237 359.765c0-26.51 21.49-48 48-48s48 21.49 48 48c0 26.51-21.49 48-48 48s-48-21.49-48-48zM28 224c0-19.882 16.117-36 36-36s36 16.118 36 36c0 19.882-16.118 36-36 36s-36-16.118-36-36z" />
<glyph unicode="&#xe048;" d="M512 224c-0.639 33.431-7.891 66.758-21.288 97.231-13.352 30.501-32.731 58.129-56.521 80.96-23.776 22.848-51.973 40.91-82.493 52.826-30.501 11.962-63.297 17.676-95.698 16.983-32.405-0.641-64.666-7.687-94.167-20.678-29.525-12.947-56.271-31.735-78.367-54.787-22.112-23.041-39.581-50.354-51.093-79.899-11.557-29.532-17.064-61.261-16.373-92.636 0.643-31.379 7.482-62.574 20.067-91.103 12.544-28.55 30.738-54.414 53.055-75.774 22.305-21.377 48.736-38.253 77.307-49.36 28.558-11.152 59.222-16.451 89.571-15.763 30.354 0.645 60.481 7.277 88.038 19.457 27.575 12.141 52.558 29.739 73.183 51.322 20.641 21.57 36.922 47.118 47.627 74.715 6.517 16.729 10.939 34.2 13.271 51.899 0.623-0.037 1.249-0.059 1.881-0.059 17.673 0 32 14.326 32 32 0 0.898-0.047 1.786-0.119 2.666l0.119-0.001zM461.153 139.026c-11.736-26.601-28.742-50.701-49.589-70.59-20.835-19.905-45.501-35.593-72.122-45.895-26.615-10.339-55.145-15.226-83.442-14.541-28.302 0.649-56.298 6.869-81.91 18.237-25.625 11.333-48.842 27.745-67.997 47.856-19.169 20.099-34.264 43.882-44.161 69.529-9.935 25.642-14.614 53.107-13.932 80.378 0.651 27.275 6.664 54.206 17.627 78.845 10.929 24.65 26.749 46.985 46.123 65.405 19.365 18.434 42.265 32.935 66.937 42.427 24.668 9.531 51.068 14.004 77.313 13.323 26.25-0.653 52.114-6.459 75.781-17.017 23.675-10.525 45.128-25.751 62.811-44.391 17.698-18.629 31.605-40.647 40.695-64.344 9.126-23.696 13.392-49.029 12.713-74.248h0.119c-0.072-0.88-0.119-1.768-0.119-2.666 0-16.506 12.496-30.087 28.543-31.811-3.112-17.412-8.265-34.41-15.39-50.497z" />
<glyph unicode="&#xe049;" d="M512 224c0 141.376-114.624 256-256 256-141.392 0-256-114.624-256-256 0-141.392 114.608-256 256-256 141.376 0 256 114.608 256 256zM128 224l128 128v-96h128v-64h-128v-96l-128 128z" />
<glyph unicode="&#xe04a;" d="M256 480c-139.374 0-252.729-111.381-255.923-249.987 2.958 120.932 94.915 217.987 207.923 217.987 114.875 0 208-100.288 208-224 0-26.51 21.49-48 48-48s48 21.49 48 48c0 141.385-114.615 256-256 256zM256-32c139.374 0 252.729 111.381 255.923 249.987-2.958-120.932-94.915-217.987-207.923-217.987-114.875 0-208 100.288-208 224 0 26.51-21.49 48-48 48s-48-21.49-48-48c0-141.385 114.615-256 256-256z" />
<glyph unicode="&#xe04b;" d="M0 224c0-141.376 114.624-256 256-256 141.392 0 256 114.624 256 256 0 141.392-114.608 256-256 256-141.376 0-256-114.608-256-256zM384 224l-128-128v96h-128v64h128v96l128-128z" />
<glyph unicode="&#xe04c;" d="M364.496 224c68.877 43.667 115.504 127.605 115.504 224 0 10.838-0.595 21.517-1.739 32h-444.52c-1.146-10.485-1.741-21.163-1.741-32 0-96.397 46.627-180.333 115.503-224-68.876-43.667-115.503-127.605-115.503-224 0-10.838 0.595-21.517 1.739-32h444.521c1.144 10.483 1.739 21.162 1.739 32 0.001 96.395-46.626 180.333-115.503 224zM80 0c0 93.456 40.081 172.707 112 198.854v50.293c-71.919 26.146-112 105.396-112 198.853v0h352c0-93.457-40.081-172.707-112-198.853v-50.293c71.919-26.147 112-105.398 112-198.854h-352zM309.813 145.203c-35.827 20.322-37.805 46.685-37.813 62.683v32.114c0 15.997 1.902 42.457 37.872 62.832 19.251 11.182 35.904 28.174 48.525 49.168h-204.792c12.633-21.016 29.306-38.021 48.583-49.203 35.827-20.322 37.803-46.683 37.813-62.683v-32.114c0-15.997-1.902-42.457-37.872-62.832-36.311-21.090-63.369-62.842-71.545-113.168h250.835c-8.182 50.354-35.265 92.125-71.606 113.203z" />
<glyph unicode="&#xe04d;" d="M256 480c-141.376 0-256-114.624-256-256 0-141.392 114.624-256 256-256 141.392 0 256 114.608 256 256 0 141.376-114.608 256-256 256zM256 96l-128 128h96v128h64v-128h96l-128-128z" />
<glyph unicode="&#xe04e;" d="M256-32c141.376 0 256 114.624 256 256 0 141.392-114.624 256-256 256-141.392 0-256-114.608-256-256 0-141.376 114.608-256 256-256zM256 352l128-128h-96v-128h-64v128h-96l128 128z" />
<glyph unicode="&#xe04f;" d="M16.787 355.438c21.291 5.512 42.583 11.010 63.868 16.545 9.362 2.432 18.707 4.939 29.048 6.232-27.728-25.842-55.453-51.685-84.29-78.565-1.558 10.503-2.88 19.94-4.371 29.352-1.322 8.351-2.829 16.672-4.255 25.008 0 0.476 0 0.952 0 1.428zM192.221 32.315c3.497 56.55 6.897 111.5 10.362 167.495 66.342-6.21 132.272-12.385 200.287-18.749-70.82-50.011-139.99-98.851-210.649-148.746zM30.61 290.835c46.767-25.835 93.537-51.667 140.308-77.502 3.952-2.183 7.695-4.971 11.899-6.421 8.804-3.034 10.413-9.037 9.781-17.542-2.558-34.375-4.67-68.785-6.845-103.185-1.166-18.41-2.126-36.835-4.53-55.59-50.545 86.4-101.090 172.803-151.636 259.203 0.343 0.345 0.683 0.692 1.023 1.037zM399.725 357.377c-2.1-7.299-3.74-14.232-6.22-20.847-0.726-1.945-3.81-4.212-5.865-4.265-25.915-0.663-51.88-1.96-77.745-0.895-12.505 0.515-24.874 5.451-37.21 8.737-25.632 6.84-51.203 13.91-76.795 20.906-1.577 0.429-3.343 0.705-4.62 1.614-13.916 9.916-27.752 19.943-42.158 30.335 6.45 7.305 12.435 14.28 18.713 20.983 1.061 1.133 3.394 1.55 5.118 1.505 23.297-0.592 46.777 0.247 69.824-2.515 19.126-2.293 37.743-8.838 56.572-13.56 6.891-1.728 13.651-4.068 20.611-5.388 29.629-5.629 53.589-23.272 79.775-36.61zM207.958 212.035c32.569 33.36 64.897 66.475 97.752 100.13 34.035-39.48 67.46-78.253 102.41-118.797-68.339 6.371-134.501 12.542-200.162 18.667zM193.25 215.503c-50.648 27.964-99.385 54.878-149.815 82.722 46.982 15.272 92.16 29.957 138.413 44.992 3.792-42.484 7.512-84.17 11.402-127.714zM299.055 318.352c-32.461-30.87-64.922-61.737-96.45-91.719-3.437 38.437-7.123 79.615-10.944 122.327 36.017-9.638 70.994-18.992 105.973-28.35 0.476-0.753 0.951-1.505 1.421-2.258zM418.265 194.335c-4.17 37.872-8.22 74.623-12.465 113.162 30.745-25.642 60.29-50.287 90.49-75.482-26.284-12.693-51.62-24.927-78.025-37.68zM317.675 318.817c25.115 0 50.226 0 75.959 0 3.701-33.53 7.441-67.371 11.412-103.367-30.241 34.79-59.221 68.133-88.206 101.475 0.28 0.63 0.56 1.26 0.835 1.892zM58.027 315.061c25.923 23.501 51.846 46.998 78.448 71.116 14.218-10.236 28.365-20.427 43.552-31.364-41.004-13.998-81.017-27.658-121.029-41.32-0.323 0.524-0.645 1.044-0.971 1.568zM475.655 204.987c-64.405-41.422-128.809-82.842-193.215-124.267-0.48 0.575-0.955 1.15-1.43 1.725 1.765 1.465 3.445 3.054 5.316 4.374 43.464 30.72 86.44 62.181 130.689 91.736 17.644 11.788 38.11 19.358 57.295 28.847 0.445-0.804 0.895-1.61 1.345-2.415zM410.6 349.17c23.135-28.668 45.419-56.288 67.705-83.907-0.295-0.362-0.59-0.726-0.884-1.088-1.271 0.686-2.696 1.179-3.796 2.078-22.090 18.032-44.075 36.192-66.275 54.086-3.411 2.748-3.985 5.091-2.555 9.059 2.155 5.975 3.624 12.2 5.805 19.772zM81.17 387.663c21.575 7.792 43.15 15.582 66.108 23.874-4.348-6.739-8.152-11.247-15.253-12.916-15.838-3.728-31.497-8.208-47.235-12.362-1.040-0.274-2.131-0.364-3.195-0.539-0.142 0.648-0.283 1.295-0.425 1.943z" />
<glyph unicode="&#xe050;" d="M11.79 258.69c2.389 9.625 4.675 19.277 7.189 28.872 9.046 34.556 25.381 65.285 48.24 92.723 37.061 44.475 84.56 70.75 140.926 81.923 3.455 0.685 6.796 1.997 10.185 3.017 24.009 0 48.030 0 72.045 0 15.7-4.287 31.77-7.562 47.030-13.080 31.365-11.35 59.4-28.111 83.925-51.387 39.051-37.056 62.515-81.971 73.015-134.257 0.535-2.668 1.695-5.211 2.565-7.811 0-24.015 0-48.031 0-72.050-2.385-8.81-4.84-17.61-7.15-26.445-12.286-46.934-36.805-86.585-72.56-119.020-33.935-30.79-74.215-49.385-119-58.495-2.67-0.545-5.219-1.699-7.825-2.575-24.015 0-48.036 0-72.045 0-8.050 2.221-16.065 4.535-24.14 6.64-62.38 16.23-111.44 51.285-146.34 105.345-15.46 23.955-26.631 50.089-31.65 78.52-0.96 5.435-2.91 10.691-4.41 16.030 0 24.019 0 48.035 0 72.050zM252.741-14.981c129.093-4.444 232.849 104.451 239.739 223.391 8.39 144.763-111.735 258.9-246.89 254.657-123.369-3.869-237.060-110.379-231.64-249.997 4.709-121.329 108.76-231.895 238.791-228.051zM33.295 223.75c-5.295 115.037 100.326 225.57 227.806 220.48 115.329-4.603 213.745-98.257 213.514-220.335-0.236-126.655-97.455-221.43-222.91-221.815-122.66-0.381-221.775 102.899-218.41 221.67zM383.926 222.53c4.069 69.16-63.227 140.675-142.816 131.931-60.63-6.663-116.545-57.614-118.969-127.827-2.461-71.529 55.589-134.919 132.129-134.754 73.605 0.155 131.97 62.265 129.656 130.65zM361.634 131.195c-3.948-3.77-7.579-7.36-11.344-10.801-3.97-3.619-4.34-6.868-0.535-11.2 7.37-8.384 14.17-17.269 21.31-25.859 4.84-5.83 9.82-11.545 14.81-17.25 3.171-3.62 6.575-4.27 10.211-0.51 5.004 5.17 10.215 10.15 15.034 15.484 3.080 3.411 3.345 6.926-0.735 10.306-14.43 11.97-28.705 24.121-43.084 36.15-1.461 1.224-3.215 2.104-5.667 3.68zM343.099 333.253c3.091 2.582 5.831 4.277 7.802 6.619 11.524 13.713 22.794 27.638 34.314 41.347 3.45 4.109 2.724 6.896-1.49 9.731-5.62 3.777-11.19 7.657-16.51 11.845-5.020 3.948-8.11 3.047-11.24-2.477-9.43-16.638-19.301-33.028-28.83-49.611-0.875-1.517-1.419-4.8-0.635-5.435 5.185-4.202 10.775-7.904 16.589-12.019zM297.75 357.899c1.509 1.453 5.151 3.389 6.28 6.299 6.515 16.757 12.405 33.757 18.575 50.647 2.060 5.635 0.395 9.448-5.34 11.117-4.979 1.453-10.060 2.603-15.126 3.76-9.809 2.24-11.954 0.939-13.689-8.996-2.755-15.724-5.36-31.473-7.84-47.241-1.715-10.94-1.575-10.975 8.95-13.687 1.935-0.497 3.895-0.905 8.19-1.899zM180.56 99.539c-0.88 1.311-1.635 3.151-2.985 4.266-3.070 2.55-6.625 4.525-9.63 7.136-3.62 3.144-5.955 2.329-8.88-1.151-11.806-14.076-24.075-27.755-35.745-41.935-5.935-7.205-5.475-7.981 2.499-13.97 4.471-3.365 9.040-6.59 13.562-9.9 4.829-3.53 8.249-3.18 11.438 2.615 8.671 15.755 17.871 31.225 26.821 46.825 0.99 1.725 1.73 3.594 2.92 6.114zM44.96 180.726c2.381-8.471 4.39-14.947 5.99-21.526 1.46-6.030 4.515-7.539 10.37-5.314 14.92 5.655 30.061 10.719 44.939 16.459 14.362 5.535 14.056 5.714 9.431 20.86-1.57 5.136-3.46 7.37-9.229 5.925-6.931-1.74-14.131-2.4-21.181-3.715-10.96-2.045-21.979-3.901-32.79-6.6-2.989-0.745-5.311-4.215-7.53-6.089zM451.73 147.525c-2.755 2.045-5.069 4.63-7.955 5.76-14.060 5.53-28.169 10.97-42.461 15.856-16.434 5.619-14.409 7.809-22.213-11.646-1.442-3.58-0.891-5.99 2.529-7.935 16.235-9.24 32.311-18.765 48.736-27.655 2.444-1.32 8.409-0.985 9.348 0.6 4.421 7.445 7.656 15.6 12.016 25.020zM430.85 222.59c-8.37 0-16.74 0.157-25.105-0.043-9.526-0.227-11.18-1.692-11.94-9.517-1.075-10.99 0.174-13.54 9.72-15.5 13.24-2.724 26.6-4.865 39.936-7.071 22.224-3.669 17.024-8.099 21.929 16.111 0.391 1.925 0.244 3.975 0.18 5.965-0.285 8.68-1.095 9.71-9.62 9.985-8.36 0.27-16.735 0.061-25.1 0.070zM129.91 151.095c-2.329-1.265-4.091-2.18-5.809-3.17-10.731-6.17-21.627-12.070-32.141-18.59-24.859-15.415-26.735-6.956-6.93-34.68 4-5.596 6.86-6.385 12.22-1.62 11.020 9.8 22.44 19.165 33.98 28.35 17.040 13.56 12.376 11.085 1.949 26.88-0.779 1.18-2.209 1.935-3.269 2.83zM201.221 362.725c-0.581 2.052-1.301 5.176-2.362 8.178-3.449 9.804-7.145 19.527-10.524 29.358-8.461 24.571-9.956 25.141-32.935 11.794-0.69-0.402-1.4-0.773-2.101-1.16-3.889-2.142-4.709-4.95-2.379-8.912 9.92-16.885 19.69-33.858 29.64-50.73 0.925-1.571 2.505-3.472 4.085-3.813 4.955-1.065 16.705 9.282 16.576 15.285zM147.040 316.633c3.4 3.212 6.541 6.154 9.655 9.127 4.295 4.105 3.995 7.983 0.105 12.442-8.11 9.293-15.661 19.071-23.819 28.308-5.406 6.117-11.476 11.642-17.246 17.435-6.114-5.642-12.42-11.090-18.285-16.975-6.145-6.16-6.216-7.389 0.83-13.103 14.185-11.512 28.715-22.6 43.141-33.812 1.509-1.17 3.274-2.007 5.619-3.422zM357.645 41.080c-1.53 2.819-2.62 4.915-3.79 6.97-7.114 12.485-14.38 24.885-21.341 37.455-8.144 14.714-9.839 15.205-24.589 7.28-3.975-2.135-5.075-4.465-3.445-8.63 2.474-6.321 4.6-12.77 6.925-19.155 4.1-11.255 8.115-22.539 12.42-33.714 1.221-3.171 2.455-7.425 7.565-5.251 6.97 2.975 13.985 5.891 20.745 9.304 2.195 1.111 3.635 3.716 5.51 5.741zM209.64 15.415c6.97-1.034 7.29 4.395 8.045 8.435 2.785 14.825 5.395 29.7 7.69 44.615 2.499 16.255 2.26 16.049-13.625 19.935-5.015 1.23-7.24 0.015-8.88-4.659-6.175-17.64-12.59-35.2-18.96-52.771-1.38-3.815-1.405-7.52 2.871-8.97 7.504-2.545 15.229-4.425 22.859-6.585zM461.64 266.008c-2.579 8.862-4.465 16.182-6.875 23.322-1.605 4.773-5.12 5.175-9.645 3.432-17.085-6.579-34.221-13.040-51.45-19.232-4.771-1.712-6.24-4.337-4.904-9.010 0.874-3.061 1.674-6.15 2.319-9.265 1.025-4.956 4.214-6.438 8.8-5.642 18.020 3.12 36.075 6.044 53.99 9.694 2.97 0.606 5.275 4.463 7.765 6.701zM267.44 10.88c5.465 0.96 10.91 2.025 16.39 2.835 3.86 0.575 5.595 2.175 4.805 6.375-3.58 19.145-6.94 38.325-10.565 57.46-0.325 1.725-1.6 3.815-3.065 4.695-8.22 4.925-20.384-1.83-20.525-11.485-0.219-15.525-0.15-31.055-0.046-46.585 0.081-12.18 0.816-12.805 13.006-13.295zM129.51 290.821c-2.84 2.6-5.5 5.944-8.94 8.009-11.97 7.187-24.151 14.037-36.365 20.818-16.85 9.36-18.795 8.534-25.325-9.985-0.67-1.882-1.16-3.828-1.865-5.695-1.745-4.623-0.455-7.656 4.345-9.301 4.91-1.685 9.699-3.699 14.579-5.465 12.751-4.617 25.461-9.369 38.341-13.602 2.579-0.85 7.265-0.754 8.49 0.827 2.835 3.67 4.15 8.518 6.74 14.394zM251.85 400.24c0.020 0 0.045 0 0.070 0 0 7.59 0.050 15.179-0.015 22.768-0.12 13.375-0.764 13.866-13.505 11.805-3.141-0.508-6.341-0.663-9.515-0.893-9.546-0.688-11.59-2.482-10.144-11.623 2.798-17.718 6.299-35.32 9.369-52.994 0.785-4.508 3.069-6.055 7.5-5.303 2.74 0.465 5.571 0.499 8.36 0.499 5.535 0 7.929 2.806 7.895 8.181-0.055 9.187-0.015 18.373-0.015 27.56zM376.394 296.153c2.236 0.952 3.776 1.437 5.145 2.222 15.92 9.15 31.802 18.366 47.711 27.524 5.5 3.168 5.505 7.314 2.28 12.051-3.37 4.94-7.105 9.658-10.12 14.8-2.855 4.872-5.845 6.212-10.391 2.288-2.409-2.083-5.004-3.953-7.394-6.057-10.475-9.219-20.7-18.739-31.425-27.661-8.725-7.257-8.966-6.941-2.835-16.64 1.065-1.685 1.736-3.663 2.98-5.183 1.14-1.392 2.81-2.352 4.049-3.344zM76.775 225.137c0-0.012 0-0.024 0-0.039 8.355 0 16.715 0.032 25.070-0.010 5.515-0.033 10.174 0.335 10.745 7.802 0.815 10.803-0.649 14.489-8.98 16.123-15.58 3.057-31.245 5.726-46.871 8.595-11.294 2.074-12.489 1.087-13.774-10.89-0.424-3.941-1.555-7.806-1.925-11.748-0.701-7.377 0.92-9.48 8.285-9.753 9.14-0.337 18.3-0.080 27.45-0.080zM187.73 290.181c14.15-11.604 28.34-23.171 42.449-34.821 5.842-4.819 11.621-9.72 17.251-14.773 4.040-3.622 7.6-3.41 11.589 0.108 13.131 11.59 26.351 23.082 39.6 34.532 3.011 2.6 6.151 5.098 9.471 7.278 5.79 3.792 11.56 7.415 11.39 15.568-0.021 1.108 0.435 2.74 1.24 3.264 2.84 1.858 5.815 4.204 8.97 4.615 1.685 0.221 5.596-3.342 5.42-4.847-0.4-3.555-2.22-9.572-4.22-9.892-12.74-2.051-18.004-12.323-25.13-20.703-10.585-12.451-21.415-24.693-31.975-37.167-7.815-9.24-7.87-9.953 0.3-19.838 12.185-14.745 24.705-29.21 36.95-43.9 3.045-3.655 5.595-7.719 8.37-11.595l-0.715-0.551c-12.45 9.901-24.989 19.686-37.305 29.746-7.105 5.8-13.955 11.93-20.715 18.13-4.729 4.345-8.63 4.040-13.51-0.17-12.39-10.675-25.175-20.879-37.821-31.255-3.699-3.035-7.614-5.825-11.149-9.040-5.28-4.8-10.795-9.276-11.664-17.46-0.241-2.25-4.916-5.755-7.356-5.595-2.791 0.18-6.945 3.42-7.57 6.030-0.57 2.41 2.605 8.185 4.375 8.285 12.91 0.755 17.655 11.58 24.555 19.26 11.72 13.050 22.54 26.9 33.7 40.45 6.010 7.305 5.951 8.91-0.31 16.227-14.515 16.986-29.070 33.935-43.52 50.978-1.51 1.774-2.4 4.080-3.575 6.136 0.215 0.409 0.514 0.741 0.905 1zM260.2 223.53c-2.835 2.312-4.79 5.15-6.71 5.123-1.86-0.023-3.675-2.994-5.509-4.668 2.144-1.823 4.074-4.147 6.549-5.193 0.849-0.362 3.051 2.466 5.67 4.738zM186.825 289.181c-2.324-0.386-4.635-0.971-6.975-1.118-6.955-0.442-10.751 3.322-9.1 9.942 0.751 3.002 3.709 7.595 5.751 7.635 3.129 0.063 7.278-2.493 9.229-5.208 1.845-2.567 1.42-6.769 2-10.251-0.391-0.259-0.69-0.591-0.905-1zM319.405 158.010c3.115-0.28 6.896 0.435 9.185-1.085 2.85-1.89 6.509-5.984 6.071-8.475-0.482-2.745-4.966-5.995-8.166-6.605-1.92-0.365-5.545 3.494-6.889 6.205-1.311 2.64-0.691 6.235-0.916 9.409l0.715 0.551z" />
<glyph unicode="&#xe051;" d="M236.482 267.181c-5.337 18.249 1.223 32.625 10.345 46.229 1.466 2.184 4.388 3.395 6.636 5.053 1.602-2.288 4.152-4.383 4.672-6.896 10.55-51.277 21.39-102.51 30.935-153.98 3.13-16.886-7.135-30.282-18.925-46.408-11.684 34.884-14.337 68.739-24.983 100.741 0-36.383 0-72.762 0-109.145-0.002-3.735 0.088-7.47-0.027-11.2-0.354-11.35-5.956-17.29-17.18-17.316-53.010-0.118-106.022-0.129-159.033 0.015-10.77 0.031-16.484 5.816-16.512 16.625-0.135 53.008-0.14 106.019-0.023 159.029 0.030 12.634 5.211 17.242 19.22 17.267 52.263 0.083 104.526 0.003 156.788-0.014 2.205 0 4.405 0 8.087 0zM99.002 137.059c-10.701 0.223-18.6-7.324-18.505-17.689 0.086-9.495 8.25-17.911 17.59-18.13 9.683-0.225 18.618 8.539 18.705 18.345 0.086 9.676-7.64 17.262-17.79 17.474zM211.387 119.775c-0.139 10.145-8.362 17.57-19.124 17.28-10.088-0.272-16.958-7.594-16.863-17.97 0.090-9.84 7.822-17.725 17.505-17.845 9.733-0.12 18.62 8.79 18.482 18.535zM116.752 217.253c-0.117 9.157-8.699 17.726-17.994 17.97-9.611 0.249-18.551-8.836-18.313-18.61 0.24-9.8 7.948-17.291 17.86-17.358 10.505-0.068 18.577 7.808 18.447 17.998zM192.802 235.217c-10.107-0.177-17.672-8.49-17.362-19.078 0.285-9.899 7.855-16.971 17.993-16.813 9.954 0.154 17.78 7.733 17.965 17.402 0.179 9.457-9.076 18.659-18.596 18.489zM491.37 204.36c0.71-12.895-5.515-18.115-14.791-20.030-51.299-10.585-102.638-21.015-153.989-31.34-11.075-2.228-18.975 3.2-21.265 14.378-10.504 51.289-20.975 102.59-31.255 153.927-2.355 11.783 3.151 19.295 15.084 21.737 50.211 10.28 100.436 20.522 150.656 30.785 14.475 2.961 21.451-1.99 24.435-16.771 9.915-49.128 19.97-98.225 29.976-147.336 0.52-2.532 1.084-5.055 1.149-5.35zM464.56 222.307c0.275 9.723-7.215 17.693-17.145 18.228-10.55 0.57-18.556-6.773-18.76-17.215-0.2-9.945 7.035-18.135 16.625-18.806 9.215-0.647 19.010 8.393 19.28 17.793zM381.021 245.726c9.699 0.215 17.849 8.309 17.869 17.756 0.025 9.695-9.080 18.699-18.635 18.43-9.815-0.278-18.255-9.415-17.714-19.19 0.534-9.705 8.699-17.215 18.48-16.996zM320.4 285.4c9.47-0.057 18.69 9.354 18.39 18.77-0.304 9.35-8.745 17.438-18.249 17.485-9.726 0.050-17.651-7.632-17.901-17.343-0.259-10.102 7.955-18.849 17.76-18.912zM286.21 106.27c0.355 14.925 11.931 26.587 29.815 30.263 26.895 5.524 53.85 10.749 80.78 16.109 23.281 4.633 46.534 9.416 69.87 13.75 3.19 0.593 6.795-1.025 10.205-1.619-0.859-3.388-1.035-7.168-2.705-10.093-7.29-12.792-19.815-17.107-33.3-19.827-46.89-9.472-93.749-19.123-140.665-28.463-4.496-0.895-9.315-0.12-14-0.12zM39.867 79.24c-12.964 7.325-18.337 17.37-18.494 29.265-0.516 38.808-0.506 77.632-0.007 116.442 0.179 13.88 7.287 25.266 18.501 37.315 0-61.872 0-121.281 0-183.022z" />
<glyph unicode="&#xe052;" d="M390.381 18.69c-28.086 0-56.166 0-84.251 0 0 4.63 0 9.27 0 14.7-42.22-11.94-83.505-11.571-125.655-0.051 0-5.699 0-10.169 0-14.649-28.085 0-56.165 0-84.25 0 1.941 15.28 3.13 30.7 6.141 45.769 1.539 7.722-1.187 11.591-6.261 16.24-25.585 23.4-43.911 51.451-52.74 85.251-1.070 4.1-2.68 6.33-7.37 7.050-16.52 2.53-28.9 17.050-29.841 32.41-1.379 22.72 14.551 35.99 28.736 38.447 5.605 0.97 7.316 3.181 8.664 8.073 8.371 30.375 23.831 56.703 46.332 78.78 34.729 34.082 76.495 53.395 124.664 59.616 40.22 5.194 78.935 0.042 116.231-15.651 4.764-2.005 8.059-1.71 12.274 1.252 23.9 16.798 48.015 33.283 72.065 49.858 1.425 0.982 2.96 1.808 5.25 3.196 0-3.669 0-6.248 0-8.826-0.005-32.585 0.36-65.18-0.2-97.755-0.22-12.93 0.745-24.853 9.24-35.408 2.735-3.392 3.355-8.43 5.864-12.080 1.541-2.245 4.776-4.567 7.331-4.662 12.825-0.475 25.68-0.097 38.525-0.273 12.070-0.162 20.664-8.524 20.76-20.627 0.205-27.12 0.2-54.23 0.015-81.35-0.086-12.77-8.37-20.73-21.175-20.859-12.604-0.122-25.215-0.162-37.816 0.040-3.784 0.059-5.979-0.871-7.594-4.631-10.96-25.489-27.21-47.12-48.015-65.48-1.945-1.72-3.14-5.611-2.865-8.31 1.69-16.72 3.901-33.379 5.941-50.070zM243.895 355.707c-21.56 0.546-42.4-3.461-62.79-10.099-12.98-4.227-19.23-15.265-15.58-26.93 3.64-11.643 15.38-17.908 27.955-13.752 33.295 10.999 66.405 11.053 99.674 0.116 7.271-2.389 14.491-1.821 20.851 3.158 6.85 5.366 9.25 12.488 7.785 20.848-1.504 8.586-7.215 13.76-15.145 16.331-20.375 6.613-41.18 10.846-62.75 10.328z" />
<glyph unicode="&#xe053;" d="M400.465 162.68c0-5.421 0-10.845 0-16.265-4.31-28.070-18.795-47.609-46.806-55.775-3.789-1.105-7.609-2.255-11.499-2.875-25.646-4.095-50.339-3.19-71.728 14.265-0.405 0.33-1.162 0.225-2.19 0.395-2.099-3.225-4.362-6.444-6.369-9.82-6.612-11.104-15.532-19.679-27.743-24.159-7.785-2.851-15.907-4.785-23.88-7.131-8.343 0-16.684 0-25.027 0-1.418 0.306-2.828 0.63-4.248 0.904-20.916 3.991-39.116 12.686-51.775 30.547-8.983 12.669-12.89 27.284-15.307 42.384 0 6.256 0 12.515 0 18.77 2.669 16.165 9.462 30.010 22.379 40.581 18.362 15.019 39.787 17.96 62.406 15.838 4.207-0.394 5.887 0.951 7.4 4.576 4.732 11.32 9.183 22.828 14.889 33.66 23.628 44.85 56.896 80.295 102.774 102.995 7.324 3.625 12.854 8.712 17.394 15.555 4.080 6.138 9.47 11.405 14.28 17.056 2.084 0 4.17 0 6.255 0 5.124-3.491 10.985-6.263 15.22-10.619 8.956-9.212 7.875-15.487-2.685-22.775-1.2-0.827-2.38-1.705-3.66-2.397-13.315-7.222-21.235-19.015-27.39-32.297-12.025-25.927-13.5-53.438-12.225-81.368 0.2-4.398 2.864-5.358 6.645-5.658 17.175-1.357 31.631-8.286 43.1-21.307 11.405-12.939 17.295-28.25 19.79-45.080zM324.219 329.21c-27.809-18.13-52.009-38.96-69.918-65.737-10.684-15.97-18.294-34.008-26.983-51.263-0.763-1.515-0.005-5.275 1.252-6.060 5.445-3.39 11.39-5.965 17.051-9.025 3.181-1.725 4.866-0.719 6.406 2.275 1.8 3.505 3.771 6.995 6.148 10.126 10.684 14.084 25.715 19.159 42.64 19.876 4.080 0.176 6.995 0.638 6.3 5.905-2.635 19.933-0.505 39.548 5.106 58.72 3.373 11.525 7.724 22.763 11.998 35.183z" />
<glyph unicode="&#xe054;" d="M266.781 412.83c17.949-7.007 35.854-14.135 53.859-20.997 48.96-18.656 97.96-37.195 146.939-55.785 1.536-0.583 3.056-1.19 5.216-2.033-22.56-10.83-44.61-21.405-66.656-31.998-49.354-23.71-98.689-47.452-148.099-71.044-1.91-0.912-4.846-1.213-6.73-0.43-67.984 28.215-135.905 56.59-203.825 84.952-0.9 0.375-1.759 0.842-3.52 1.692 2.245 1.14 3.73 2.008 5.3 2.675 69.78 29.768 139.58 59.508 209.36 89.29 2.39 1.023 4.61 2.442 6.916 3.678 0.409 0 0.824 0 1.24 0zM472.975 234.954c-56.425-27.074-111.88-53.674-167.325-80.284-15.951-7.66-31.84-15.43-47.869-22.92-1.886-0.88-4.771-1.091-6.651-0.3-66.825 27.729-133.585 55.625-200.345 83.508-2.046 0.852-4.035 1.825-7.27 3.297 10.22 4.2 19.344 7.99 28.495 11.707 16.76 6.804 33.485 13.705 50.365 20.2 2.695 1.036 6.52 1.108 9.164 0.023 38.216-15.707 76.366-31.568 114.391-47.724 6.329-2.691 11.44-2.931 17.875 0.224 40.065 19.648 80.34 38.865 120.675 57.955 2.945 1.392 7.259 1.707 10.341 0.701 25.754-8.426 51.369-17.276 78.154-26.387zM43.645 123.24c25.625 10.461 50.685 20.79 75.88 30.8 2.070 0.821 5.23-0.070 7.53-1.021 40.44-16.739 80.865-33.529 121.185-50.579 5-2.11 9.065-2.030 13.885 0.31 42.36 20.53 84.78 40.93 127.31 61.109 2.94 1.391 7.255 1.701 10.34 0.701 23.935-7.779 47.715-16.010 72.655-24.48-2.636-1.461-4.28-2.48-6.015-3.32-68.99-33.139-137.97-66.301-207.045-99.27-2.585-1.231-6.545-1.631-9.105-0.57-68.18 28.19-136.255 56.63-204.35 85.030-0.56 0.231-1.060 0.6-2.27 1.29z" />
<glyph unicode="&#xe055;" d="M256.685 462.438c11.376-19.804 20.54-41.348 34.545-59.076 40.16-50.847 82.511-99.957 123.53-150.132 20-24.46 33.705-52 36.12-84.215 0.099-1.31 1.155-2.55 1.765-3.821 0-2.935 0-5.874 0-8.809-1.14-5.631-2.040-11.326-3.464-16.88-14.966-58.315-74.511-86.099-128.311-59.235-14.59 7.29-27.86 17.21-42.235 26.231-7.425-12.426-4.414-25.831-0.49-39.171 8.47-28.791 19.265-46.295 50.48-82.155-48.35 0-95.966 0-141.935 0 12.211 18.51 26.020 36.81 36.92 56.711 10.98 20.044 18.855 41.704 10.689 63.379-19.704-10.515-37.659-22.86-57.478-30.16-62.391-22.979-117.771 32.9-116.331 83.94 1.24 44.096 21.875 78.336 50.131 109.936 44.914 50.24 89.093 101.174 126.369 157.529 7.285 11.012 11.735 23.903 17.49 35.928 0.741 0 1.47 0 2.205 0zM255.975 434.623c-41.51-64.349-90.775-120.975-140.636-177.086-16.229-18.259-29.469-38.017-37.404-61.172-9.72-28.36-10.325-56.22 7.935-81.495 26.155-36.205 67.080-44.18 107.725-20.815 14.070 8.090 26.584 18.886 40.226 28.74 9.339-7.635 15.899-18 14.049-30.86-2.26-15.68-4.74-31.825-10.611-46.365-6.994-17.33-17.689-33.164-26.744-49.58 30.215 0 60.944 0 92.82 0-2.42 3.495-4.015 5.885-5.695 8.21-14.015 19.381-25.315 40.2-31.235 63.465-5.245 20.615-6.565 40.765 10.85 53.916 18.54-11.686 34.985-25 53.665-33.261 53.51-23.665 109.31 14.11 109.15 72.459-0.089 32.686-13.020 60.808-33.63 84.834-52.16 60.808-106.030 120.187-150.465 189.010zM277.56 133.145c-7.675-11.105-15.21-22-21.63-31.28-6.28 9.31-13.62 20.19-21.4 31.725-10.96-9.44-19.74-18.251-29.74-25.356-20.64-14.669-42.771-25.149-69.411-20.169-29.379 5.495-55.874 35.895-57.339 65.545-1.73 35.025 12.205 64.165 33.739 90.18 44.351 53.564 89.191 106.723 133.741 160.12 3.67 4.395 6.69 9.328 9.785 13.688 21.11-26.545 41.575-53.268 63.11-79.097 24.105-28.906 48.724-57.406 73.964-85.322 20.856-23.067 35.891-48.974 41.431-79.534 9.735-53.645-43.575-100.325-90.26-83.415-11.865 4.295-23.575 9.835-34.144 16.68-10.651 6.9-19.791 16.135-31.846 26.235zM277.834 191.050c-6.604-1.749-11.724-3.111-16.444-4.36 0-7.61 0-14.075 0-20.935 25.695 0 50.795 0 76.795 0 0 5.63 0.52 10.765-0.21 15.715-0.39 2.635-2.765 5.1-4.569 7.375-2.661 3.36-7.011 6.030-8.236 9.78-12.935 39.585-25.315 79.35-38.031 119.007-3.204 9.995-4.339 23.633-11.364 28.591-7.185 5.070-20.47 1.15-31.034 1.897-6.831 0.485-9.346-2.215-11.311-8.552-14.175-45.72-28.94-91.256-43.18-136.953-2.5-8.021-5.020-15.129-14.589-15.636 0-7.509 0-14.289 0-20.914 21.389 0 42.049 0 62.649 0 0 7.44 0 13.96 0 20.716-5.75 1.299-11.051 2.499-16.285 3.684 0.375 19.274 1.956 20.925 19.775 20.925 6.6 0 13.28-0.635 19.79 0.16 8.53 1.040 13.135-1.876 14.195-10.47 0.39-3.175 1.27-6.285 2.049-10.030zM252.219 61.975c0.911-9.255 1.88-19.015 2.846-28.78 0.596-0.054 1.196-0.11 1.79-0.165 0.945 10.745 1.895 21.495 2.665 30.26 9.47-19.484 19.665-40.49 30.055-61.865-21.975 0-44.68 0-67.36 0 10.115 20.415 20.124 40.61 30.004 60.55zM250.465 297.152c5.255-20.895 9.935-39.502 14.756-58.649-10.351 0-19.791 0-30.962 0 5.322 19.259 10.451 37.83 16.206 58.649z" />
<glyph unicode="&#xe056;" d="M114.535 24.889c-1.48 0-2.953 0-4.426 0-10.986 3.078-16.566 10.473-19.485 21.498-25.275 95.557-50.887 191.028-76.43 286.522-4.648 17.356 1.166 27.203 18.427 31.749 24.752 6.519 49.362 13.607 74.194 19.825 6.263 1.576 8.026 4.034 7.902 10.326-0.325 15.924 8.561 24.468 24.49 24.485 31.671 0.034 63.34 0.011 95.016 0.011 2.623 0 5.251 0 7.571 0 0.877 2.816 1.48 4.682 2.032 6.559 4.374 14.838 14.352 20.873 28.865 16.993 69.774-18.648 139.532-37.37 209.271-56.15 14.086-3.794 20.145-14.494 16.476-28.716-4.153-16.084-8.443-32.132-12.726-48.18-21.55-80.622-43.117-161.24-64.666-241.862-4.591-17.181-14.086-22.87-31.175-18.461-20.566 5.313-41.239 10.263-61.61 16.241-21.783 6.394-43.043 6.52-64.808-0.375-18.837-5.962-38.173-10.32-57.264-15.491-30.562-8.277-61.106-16.646-91.654-24.974zM292.864 400.054c-14.273 0.097-21.277-6.309-25.037-20.332-16.6-61.906-33.274-123.791-49.744-185.731-3.958-14.882-7.976-29.815-10.547-44.97-1.723-10.155 1.525-13.551 11.554-16.277 48.936-13.272 97.872-26.538 146.87-39.589 15.031-4.004 25.89 2.771 29.942 17.846 5.779 21.487 11.616 42.964 17.362 64.462 13.721 51.302 27.421 102.61 41.090 153.929 4.717 17.687-1.148 27.659-18.642 32.365-39.077 10.507-78.114 21.133-117.185 31.664-9.405 2.531-18.854 4.881-25.663 6.633zM232.442 383.824c-19.564 0-38.201 0.017-56.832 0-17.004-0.023-25.617-8.721-25.617-25.867-0.011-74.303-0.023-148.606 0.006-222.909 0-3.68 0.080-7.401 0.643-11.024 2.412-15.667 7.753-19.44 24.764-17.13-9.415 6.781-12.897 15.554-10.030 26.391 6.258 23.654 12.653 47.275 18.984 70.917 15.935 59.512 31.863 119.023 48.082 179.622zM113.311 99.192c0.256 0.056 0.512 0.107 0.768 0.165 0 83.085 0 166.166 0 250.072-15.194-4.267-29.872-7.874-44.191-12.579-11.042-3.624-16.105-13.92-13.125-25.247 12.567-47.793 25.31-95.533 38.020-143.291 6.138-23.046 12.351-46.080 18.528-69.12zM366.489 259.851c13.165-1.222 24.935-4.204 32.757-15.121 11.72-16.367 10.524-37.256-2.622-50.466-14.109-14.176-34.646-15.821-51.467-3.653-6.679 4.826-12.699 10.565-20.106 16.806 1.502-17.442 3.311-33.44 15.543-46.899-19.405 5.177-38.81 10.36-60.559 16.162 19.365 4.682 29.287 17.675 39.283 32.187-9.512-1.587-17.892-3.441-26.374-4.323-30.527-3.175-52.321 26.374-39.947 53.896 8.88 19.746 31.92 28.2 51.324 18.837 2.356-1.139 4.717-2.259 7.174-3.437-0.837 8.175-2.218 15.878-2.298 23.598-0.188 19.285 11.901 34.036 30.293 37.836 18.182 3.767 35.749-5.12 43.179-22.488 5.797-13.551 3.232-26.408-5.103-38.224-3.363-4.772-7.014-9.34-11.077-14.711z" />
<glyph unicode="&#xe057;" d="M246.637 132.482h-0.006l-99.716 99.721 45.444 45.448 54.272-54.277 121.969 121.976c-30.527 28.643-71.475 46.313-116.639 46.313-94.265 0-170.667-76.401-170.667-170.666 0-94.248 76.402-170.668 170.667-170.668 94.242 0 170.666 76.42 170.666 170.668 0 25.6-5.796 49.788-15.894 71.588l-160.096-160.103z" />
<glyph unicode="&#xe058;" d="M512-1.28c0 0-0.999 96.947-6.937 106.983-8.832 14.976-29.337 25.241-67.431 41.165-37.965 15.872-50.125 29.287-50.125 57.933 0 17.229 11.597 11.597 16.691 43.111 2.099 13.081 12.339 0.231 14.311 30.055 0 11.904-5.581 14.873-5.581 14.873s2.816 17.613 3.943 31.155c1.383 16.896-8.525 60.493-61.235 60.493s-62.567-43.623-61.209-60.493c1.101-13.543 3.917-31.155 3.917-31.155s-5.581-2.969-5.581-14.873c1.971-29.849 12.211-16.999 14.336-30.055 5.069-31.513 16.665-25.881 16.665-43.111 0-19.481-5.632-31.923-21.171-42.855 82.944-41.523 94.080-49.997 94.080-87.117l-0.001-76.109h115.328zM261.735 132.48c-50.663 21.145-66.816 39.015-66.816 77.235 0 22.937 15.463 15.463 22.247 57.497 2.791 17.433 16.487 0.281 19.072 40.064 0 15.872-7.449 19.815-7.449 19.815s3.789 23.475 5.273 41.549c1.842 22.477-11.367 80.64-81.639 80.64s-83.456-58.137-81.613-80.64c1.485-18.073 5.248-41.549 5.248-41.549s-7.425-3.942-7.425-19.814c2.637-39.808 16.281-22.656 19.097-40.064 6.784-42.035 22.247-34.535 22.247-57.497 0-38.221-16.205-56.089-66.816-77.235-15.436-6.452-43.161-16.462-43.161-40.474v-93.287h355.687c0 0 0 55.168 0 69.913 0 21.94-43.188 42.599-93.952 63.847z" />
<glyph unicode="&#xe059;" d="M478.464 163.943l-44.211 39.424c-12.8 11.417-12.8 30.055 0 41.472l44.211 39.399c12.8 11.417 9.369 22.041-7.603 23.655l-58.599 5.555c-16.973 1.613-26.112 16.205-20.275 32.435l31.104 86.579c5.837 16.231-1.305 22.144-15.847 13.133l-69.145-42.752c-14.541-9.011-33.331-4.096-41.753 10.931l-25.063 44.697c-8.397 15.027-22.323 15.104-30.899 0.179l-23.271-40.499c-8.576-14.926-28.288-21.3-43.801-14.158l-40.96 18.816c-15.539 7.118-27.469-1.126-26.547-18.38l2.227-41.344c0.921-17.229-11.801-34.995-28.263-39.424l-39.552-10.624c-16.46-4.454-19.481-17.408-6.681-28.826l44.211-39.399c12.8-11.392 12.8-30.055 0-41.447l-44.211-39.372c-12.8-11.443-9.421-22.451 7.501-24.499l53.632-6.503c16.921-2.099 26.368-17.203 20.967-33.561l-27.52-83.405c-5.401-16.409 2.304-22.809 17.101-14.208l63.053 36.455c14.823 8.601 34.713 3.84 44.237-10.445l26.189-39.347c9.497-14.361 23.808-13.543 31.719 1.741l23.015 44.339c7.961 15.309 26.957 21.555 42.215 13.901l44.391-22.195c15.309-7.655 27.059 0.205 26.137 17.459l-2.227 41.344c-0.921 17.255 11.801 34.995 28.263 39.449l39.527 10.599c16.507 4.48 19.528 17.434 6.728 28.826zM281.6 116.608h-51.2v53.76h51.2v-53.76zM281.6 198.503h-51.2v133.12h51.2v-133.12z" />
<glyph unicode="&#xe05a;" d="M426.189 348.339l-230.349 118.758c-31.565 16.615-93.773-15.488-111.641-43.75-7.962-12.646-7.399-21.76-7.399-26.931l2.841-268.16c0.179-5.709 7.373-13.363 13.491-17.152 12.775-7.833 206.336-128.64 211.789-132.071 2.944-1.843 6.451-2.688 9.881-2.688 2.919 0 5.863 0.64 8.525 1.971 5.838 2.868 9.473 8.397 9.473 14.465v281.626c0 5.863-3.431 11.264-9.011 14.208l-209.357 116.889c2.355 4.608 11.673 14.336 28.8 23.296 18.048 9.472 31.539 5.888 34.637 4.685 0 0 200.96-107.545 207.104-110.745 6.119-3.2 6.247-3.687 6.247-9.139 0-5.479 0-267.264 0-267.264 0-13.337 13.517-18.791 23.475-18.791 9.907 0 20.505 9.728 20.505 18.791v287.794c0 5.862-3.456 11.29-9.011 14.208z" />
<glyph unicode="&#xe05b;" d="M84.531 166.707c11.879-48.153 26.983-69.145 77.363-91.187 50.407-22.016 74.343-46.080 94.106-46.080s42.163 21.043 92.569 43.111c50.407 21.991 36.967 28.749 48.845 76.851l-141.414-68.762-171.469 86.067zM499.481 292.199l-213.12 119.347c-16.691 9.344-44.007 9.344-60.697 0l-213.145-119.347c-16.691-9.344-16.691-24.653 0-33.997l213.12-119.347c16.691-9.344 44.007-9.344 60.697 0l137.779 77.159-149.401 34.995c-5.735-1.434-12.058-2.228-18.714-2.228-26.905 0-48.717 12.979-48.717 28.979s21.812 29.005 48.717 29.005c20.889 0 38.681-7.859 45.593-18.841l158.233-51.917 39.655 22.195c16.692 9.343 16.692 24.653 0 33.997zM434.355 65.997c-1.613-9.805 32.845-26.009 36.121 2.791 14.823 129.817-10.649 167.193-10.649 167.193l-35.712-19.993c0 0.025 30.285-28.801 10.24-149.991z" />
<glyph unicode="&#xe05c;" d="M134.989 303.001c5.145 0 10.112-0.768 14.771-2.227 17.664 19.789 37.248 37.811 58.445 53.786-0.87 3.712-1.408 7.603-1.408 11.623 0 5.581 0.921 10.905 2.611 15.872-23.731 17.049-49.587 31.334-77.031 42.393-25.778-15.923-48.23-36.685-66.124-61.005 13.287-23.527 29.107-45.465 47.053-65.459 6.579 3.2 13.926 5.017 21.683 5.017zM84.889 252.903c0 7.015 1.459 13.721 4.071 19.789-16.051 17.663-30.643 36.709-43.417 57.036-16-31.795-25.063-67.712-25.063-105.728 0-44.057 12.135-85.248 33.177-120.499 7.501 42.368 21.785 82.432 41.472 119.143-6.4 8.396-10.24 18.867-10.24 30.259zM256.896 416.307c13.261 0 25.241-5.171 34.201-13.543 26.137 11.239 53.683 19.865 82.329 25.369-34.585 19.918-74.649 31.387-117.426 31.387-29.159 0-57.063-5.351-82.816-15.053 20.455-10.112 39.961-21.863 58.265-35.175 7.476 4.429 16.154 7.015 25.447 7.015zM331.853 180.275c3.123 6.503 7.552 12.237 13.031 16.793-14.797 45.517-38.221 87.143-68.403 122.983-6.016-2.56-12.621-3.968-19.584-3.968-10.855 0-20.889 3.507-29.107 9.369-18.176-13.799-34.969-29.287-50.253-46.183 4.76-7.653 7.551-16.664 7.551-26.366 0-5.248-0.793-10.265-2.279-15.027 43.956-29.364 94.542-49.511 149.044-57.601zM396.851 112.615c0.665-9.472 1.049-19.047 1.049-28.697 0-17.024-1.101-33.741-3.149-50.201 39.961 29.184 70.349 70.579 85.709 118.759-18.176-4.403-36.813-7.552-55.833-9.369-4.48-13.699-14.668-24.81-27.776-30.492zM320.103 146.611c-58.137 9.625-112.051 31.795-158.951 63.591-7.629-4.685-16.537-7.424-26.137-7.424-3.533 0-6.937 0.384-10.265 1.075-22.451-42.599-36.813-90.112-40.96-140.441 22.425-24.039 49.792-43.392 80.537-56.397 38.144 58.649 91.494 107.212 155.776 139.596zM414.105 398.541c-37.735-3.635-73.779-13.107-107.341-27.341 0.205-1.639 0.281-3.328 0.281-5.017 0-7.911-1.869-15.36-5.145-21.991 33.536-39.373 59.571-85.248 76.032-135.449 20.352-0.384 37.785-12.851 45.287-30.592 22.681 2.304 44.749 6.656 66.023 12.903 1.459 10.751 2.278 21.733 2.278 32.946 0 69.223-29.875 131.481-77.415 174.541zM345.319 119.833c-60.032-28.109-110.183-71.399-146.535-124.313 18.304-4.583 37.479-7.040 57.216-7.040 35.559 0 69.197 7.911 99.405 21.991 4.839 23.731 7.424 48.281 7.424 73.447 0 9.063-0.435 18.073-1.101 27.008-6.041 1.919-11.597 4.965-16.409 8.907z" />
<glyph unicode="&#xe05d;" d="M184.909 201.728h143.36v46.080h-143.36v-46.080zM384 454.4h-256c-28.16 0-51.2-23.040-51.2-51.2v-358.4c0-28.16 23.040-51.2 51.2-51.2h256c28.16 0 51.2 23.040 51.2 51.2v358.4c0 28.16-23.040 51.2-51.2 51.2zM384 44.8h-256v358.4h256v-358.4zM327.68 347.673h-143.36v-44.8h143.36v44.8zM327.68 146.688h-143.36v-44.8h143.36v44.8z" />
<glyph unicode="&#xe05e;" d="M368 480h-224l-144-144v-224l144-144h224l144 144v224l-144 144zM288 64h-64v64h64v-64zM288 192h-64v192h64v-192z" />
<glyph unicode="&#xe05f;" d="M256 480c-141.385 0-256-35.817-256-80v-48l192-192v-160c0-17.673 28.653-32 64-32s64 14.327 64 32v160l192 192v48c0 44.183-114.615 80-256 80zM47.192 410.587c11.973 6.829 28.791 13.31 48.639 18.744 43.972 12.039 100.854 18.669 160.169 18.669s116.197-6.63 160.169-18.667c19.848-5.434 36.667-11.915 48.64-18.744 7.896-4.503 12.162-8.312 14.149-10.587-1.986-2.275-6.253-6.083-14.149-10.587-11.973-6.829-28.792-13.31-48.64-18.744-43.971-12.041-100.854-18.671-160.169-18.671s-116.197 6.63-160.169 18.667c-19.848 5.434-36.667 11.915-48.639 18.744-7.896 4.506-12.162 8.312-14.149 10.589 1.987 2.277 6.253 6.083 14.149 10.587z" />
<glyph unicode="&#xe060;" d="M464 416h-416c-26.4 0-48-21.6-48-48v-288c0-26.4 21.6-48 48-48h416c26.4 0 48 21.6 48 48v288c0 26.4-21.6 48-48 48zM48 384h416c8.673 0 16-7.327 16-16v-48h-448v48c0 8.673 7.327 16 16 16zM464 64h-416c-8.673 0-16 7.327-16 16v144h448v-144c0-8.673-7.327-16-16-16zM64 160h32v-64h-32zM128 160h32v-64h-32zM192 160h32v-64h-32z" />
<glyph unicode="&#xe061;" d="M240 448c-132.548 0-240-107.452-240-240s107.452-240 240-240c132.549 0 240 107.451 240 240s-107.451 240-240 240zM240 16c-106.039 0-192 85.961-192 192s85.961 192 192 192c106.039 0 192-85.961 192-192s-85.961-192-192-192zM256 224v64h64v32h-64v32h-32v-32h-64v-128h64v-64h-64v-32h64v-32h32v32h64.001l-0.001 128h-64zM224 224h-32v64h32v-64zM288.001 128h-32.001v64h32.001v-64z" />
<glyph unicode="&#xe062;" d="M256 480c-141.385 0-256-114.615-256-256s114.615-256 256-256 256 114.615 256 256-114.615 256-256 256zM160 224c0 53.020 42.98 96 96 96s96-42.98 96-96-42.98-96-96-96-96 42.98-96 96zM462.99 138.262v0l-88.71 36.745c6.259 15.092 9.72 31.638 9.72 48.993s-3.461 33.901-9.72 48.993l88.71 36.745c10.954-26.411 17.010-55.365 17.010-85.738s-6.057-59.327-17.010-85.738v0zM341.739 430.99v0 0l-36.745-88.71c-15.092 6.259-31.638 9.72-48.994 9.72s-33.901-3.461-48.993-9.72l-36.745 88.711c26.411 10.952 55.366 17.009 85.738 17.009 30.373 0 59.327-6.057 85.739-17.010zM49.010 309.738l88.711-36.745c-6.259-15.092-9.721-31.638-9.721-48.993s3.461-33.901 9.72-48.993l-88.71-36.745c-10.953 26.411-17.010 55.365-17.010 85.738s6.057 59.327 17.010 85.738zM170.262 17.010l36.745 88.71c15.092-6.259 31.638-9.72 48.993-9.72s33.901 3.461 48.993 9.72l36.745-88.71c-26.411-10.952-55.365-17.010-85.738-17.010s-59.327 6.057-85.738 17.010z" />
<glyph unicode="&#xe063;" d="M352 160c-32-32-32-64-64-64s-64 32-96 64-64 64-64 96 32 32 64 64-64 128-96 128-96-96-96-96c0-64 65.75-193.75 128-256s192-128 256-128c0 0 96 64 96 96s-96 128-128 96z" />
<glyph unicode="&#xe064;" d="M352 480c-88.365 0-160-71.634-160-160 0-10.013 0.929-19.808 2.688-29.312l-194.688-194.688v-96c0-17.673 14.327-32 32-32h32v32h64v64h64v64h64l41.521 41.521c17.005-6.158 35.348-9.521 54.479-9.521 88.365 0 160 71.634 160 160s-71.635 160-160 160zM399.937 319.937c-26.51 0-48 21.49-48 48s21.49 48 48 48 48-21.49 48-48-21.49-48-48-48z" />
<glyph unicode="&#xe065;" d="M416 256h-32v96c0 70.692-57.308 128-128 128s-128-57.308-128-128v-96h-32c-17.6 0-32-14.4-32-32v-224c0-17.6 14.4-32 32-32h320c17.6 0 32 14.4 32 32v224c0 17.6-14.4 32-32 32zM256 64c-17.673 0-32 14.327-32 32s14.327 32 32 32 32-14.327 32-32-14.327-32-32-32zM320 256h-128v96c0 35.29 28.71 64 64 64s64-28.71 64-64v-96z" />
<glyph unicode="&#xe066;" d="M416 384v64h-320v-64h-96v-64c0-53.019 42.979-96 96-96 10.038 0 19.715 1.543 28.81 4.401 23.087-33.004 58.304-56.898 99.19-65.198v-99.203h-32c-35.347 0-64-28.653-64-64h256c0 35.347-28.653 64-64 64h-32v99.203c40.886 8.3 76.103 32.193 99.19 65.198 9.095-2.858 18.772-4.401 28.81-4.401 53.021 0 96 42.981 96 96v64h-96zM96 262c-31.981 0-58 26.019-58 58v32h58v-32c0-20.093 3.715-39.316 10.477-57.034-3.401-0.623-6.899-0.966-10.477-0.966zM474 320c0-31.981-26.019-58-58-58-3.578 0-7.076 0.343-10.477 0.966 6.762 17.718 10.477 36.941 10.477 57.034v32h58v-32z" />
<glyph unicode="&#xe067;" d="M256 480c-141.385 0-256-114.615-256-256s114.615-256 256-256 256 114.615 256 256-114.615 256-256 256zM224 384h64v-64h-64v64zM320 64h-128v32h32v128h-32v32h96v-160h32v-32z" />
<glyph unicode="&#xe068;" d="M256 480c-141.385 0-256-114.615-256-256s114.615-256 256-256 256 114.615 256 256-114.615 256-256 256zM256 16c-114.875 0-208 93.125-208 208s93.125 208 208 208 208-93.125 208-208-93.125-208-208-208zM224 352h64v-64h-64zM320 96h-128v32h32v96h-32v32h96v-128h32z" />
<glyph unicode="&#xe069;" d="M448 128h-32c-35.344 0-64 28.656-64 64s28.656 64 64 64h32c35.344 0 64-28.656 64-64s-28.656-64-64-64zM448 224h-32c-17.664 0-32-14.336-32-32s14.336-32 32-32h32c17.664 0 32 14.336 32 32s-14.336 32-32 32zM320 192c0-1.376 0.336-2.64 0.4-4-0.064-1.344-0.4-2.624-0.4-4 0-16.832 6.016-32.096 15.68-44.352 17.136-26.24 46.656-43.648 80.32-43.648h64v-64c0-17.664-14.336-32-32-32h-416c-17.664 0-32 14.336-32 32v360c0 25.168 16.72 46.224 39.6 53.264 2.464 1.584 5.248 2.736 8.4 2.736h416c8.848 0 16-7.152 16-16s-7.152-16-16-16h-416c-8.848 0-16-7.152-16-16v-16h416c17.664 0 32-14.336 32-32v-64h-64c-53.008 0-96-42.992-96-96zM40 32h400c4.416 0 8 3.584 8 8s-3.584 8-8 8h-400c-4.416 0-8-3.584-8-8s3.584-8 8-8zM448 344c0 4.416-3.584 8-8 8h-400c-4.416 0-8-3.584-8-8s3.584-8 8-8h400c4.416 0 8 3.584 8 8z" />
<glyph unicode="&#xe06a;" d="M317.414 136.499c6.861-6.938 6.861-18.15 0-25.062-6.861-6.938-17.946-6.938-24.806 0l-98.048 100.019c-6.861 6.938-6.861 18.15 0 25.062l98.048 100.045c6.861 6.938 17.946 6.938 24.806 0s6.861-18.125 0-25.062l-80.384-87.501 80.384-87.501z" />
<glyph unicode="&#xe06b;" d="M343.501 285.414c6.938 6.861 18.15 6.861 25.062 0 6.938-6.861 6.938-17.946 0-24.806l-100.019-98.048c-6.938-6.861-18.15-6.861-25.062 0l-100.045 98.048c-6.912 6.861-6.912 17.946 0 24.806 6.938 6.861 18.125 6.861 25.062 0l87.501-80.384 87.501 80.384z" />
<glyph unicode="&#xe06c;" d="M168.474 162.586c-6.938-6.861-18.125-6.861-25.062 0-6.912 6.861-6.938 17.946 0 24.832l100.044 97.996c6.938 6.861 18.15 6.861 25.062 0l100.045-98.022c6.938-6.886 6.938-17.971 0-24.832s-18.125-6.861-25.062 0l-87.527 80.41-87.5-80.384z" />
<glyph unicode="&#xe06d;" d="M194.586 136.499c-6.861-6.938-6.861-18.15 0-25.062 6.835-6.938 17.946-6.938 24.806 0l98.048 100.019c6.861 6.938 6.861 18.15 0 25.062l-98.048 100.045c-6.861 6.938-17.946 6.938-24.806 0s-6.861-18.125-0.026-25.037l80.41-87.526-80.384-87.501z" />
<glyph unicode="&#xe06e;" d="M358.374 341.76l0.026-235.52-204.8 117.76z" />
<glyph unicode="&#xe06f;" d="M373.76 326.374l-235.52 0.026 117.76-204.8z" />
<glyph unicode="&#xe070;" d="M138.24 121.6h235.52l-117.786 204.8z" />
<glyph unicode="&#xe071;" d="M153.626 341.76l-0.026-235.52 204.8 117.76z" />
<glyph unicode="&#xe072;" d="M252.851 459.494c-130.048-1.741-234.086-108.595-232.346-238.669 1.741-129.997 108.595-234.061 238.643-232.32s234.086 108.595 232.346 238.669c-1.715 130.023-108.595 234.061-238.643 232.32zM278.963 381.005c23.936 0 31.002-13.875 31.002-29.773 0-19.84-15.898-38.195-43.008-38.195-22.682 0-33.459 11.418-32.819 30.259 0 15.898 13.312 37.709 44.825 37.709zM217.574 76.8c-16.358 0-28.339 9.933-16.896 53.606l18.765 77.414c3.251 12.416 3.789 17.382 0 17.382-4.89 0-26.138-8.576-38.707-17.024l-8.166 13.389c39.808 33.229 85.581 52.736 105.19 52.736 16.358 0 19.072-19.354 10.906-49.126l-21.504-81.408c-3.789-14.387-2.15-19.354 1.638-19.354 4.89 0 20.992 5.939 36.813 18.381l9.242-12.416c-38.682-38.681-80.897-53.58-97.281-53.58z" />
<glyph unicode="&#xe073;" d="M318.259 480c34.304 0 51.456-23.398 51.456-50.125 0-33.382-29.798-64.282-68.557-64.282-32.512 0-51.456 19.2-50.56 50.918 0 26.753 22.528 63.489 67.661 63.489zM212.71-32c-27.085 0-46.925 16.691-27.981 90.189l31.078 130.33c5.402 20.864 6.298 29.235 0 29.235-8.141 0-43.264-14.413-64.051-28.621l-13.516 22.553c65.869 55.962 141.619 88.755 174.106 88.755 27.059 0 31.539-32.563 18.048-82.662l-35.61-137.011c-6.298-24.218-3.61-32.563 2.688-32.563 8.141 0 34.739 10.061 60.902 30.925l15.36-20.864c-64.025-65.178-133.964-90.266-161.024-90.266z" />
<glyph unicode="&#xe074;" d="M252.877 459.494c-130.074-1.741-234.112-108.595-232.371-238.669 1.741-129.997 108.595-234.061 238.669-232.32 130.022 1.741 234.086 108.595 232.32 238.669-1.716 130.023-108.57 234.061-238.618 232.32zM252.186 80.64h-1.306c-20.019 0.589-34.15 15.36-33.587 35.098 0.563 19.379 15.027 33.485 34.406 33.485l1.178-0.026c20.582-0.614 34.56-15.232 33.946-35.533-0.564-19.43-14.823-33.024-34.637-33.024zM336.435 247.859c-4.736-6.682-15.078-15.002-28.134-25.165l-14.387-9.933c-7.885-6.144-12.646-11.904-14.413-17.562-1.434-4.506-2.099-5.658-2.227-14.746l-0.026-2.33-54.861 0.002 0.154 4.659c0.666 19.098 1.152 30.31 9.062 39.603 12.416 14.566 39.808 32.205 40.96 32.947 3.917 2.97 7.219 6.323 9.702 9.907 5.76 7.936 8.294 14.208 8.294 20.326 0 8.525-2.534 16.41-7.526 23.424-4.813 6.784-13.952 10.214-27.162 10.214-13.107 0-22.067-4.173-27.443-12.698-5.554-8.779-8.319-17.969-8.319-27.39v-2.355h-56.576l0.102 2.458c1.459 34.662 13.824 59.597 36.762 74.163 14.387 9.292 32.307 13.977 53.197 13.977 27.366 0 50.509-6.656 68.685-19.763 18.432-13.286 27.776-33.203 27.776-59.162-0.001-14.541-4.583-28.185-13.62-40.576z" />
<glyph unicode="&#xe075;" d="M440.909 300.058c-40.525 94.336-105.779 166.17-138.778 152.73-56.038-22.784 33.408-132.198-241.818-244.070-23.782-9.651-29.798-48.333-19.84-71.45 9.933-23.117 42.445-46.131 66.227-36.48 4.096 1.664 19.226 6.528 19.226 6.528 16.973-22.784 34.739-9.267 41.062-23.757 7.578-17.408 24.038-55.219 29.619-68.070 5.632-12.851 18.33-24.781 27.546-21.274 9.165 3.507 40.474 15.437 52.454 19.968s14.848 15.232 11.187 23.654c-3.942 9.062-20.122 11.725-24.73 22.323-4.634 10.598-19.712 44.518-24.038 55.219-5.888 14.541 6.63 26.368 24.832 28.262 125.286 13.056 148.71-64.333 191.36-46.976 32.923 13.466 26.216 109.057-14.309 203.393zM426.803 147.046c-7.322-2.97-56.627 35.891-88.141 109.235-31.488 73.318-27.52 140.339-20.224 143.309 7.322 2.995 55.424-43.93 86.938-117.248 31.462-73.292 28.749-132.326 21.427-135.296z" />
<glyph unicode="&#xe076;" d="M256 416c-123.712 0-224-100.288-224-224s100.288-224 224-224 224 100.288 224 224-100.288 224-224 224zM256 12c-99.412 0-180 80.589-180 180 0 99.412 80.588 180 180 180 99.411 0 180-80.588 180-180 0-99.411-80.589-180-180-180zM467.392 336.413c8.021 14.026 12.608 30.271 12.608 47.587 0 53.020-42.98 96-96 96-30.909 0-58.401-14.611-75.96-37.298 65.942-13.618 122.603-52.599 159.352-106.289zM203.96 442.702c-17.558 22.687-45.051 37.298-75.96 37.298-53.020 0-96-42.98-96-96 0-17.316 4.587-33.561 12.608-47.587 36.75 53.69 93.411 92.671 159.352 106.289zM224 320h32v-160h-32v160zM256 192h96v-32h-96v32z" />
<glyph unicode="&#xe077;" d="M460.071 132.571q0-15.143-10.571-25.714l-21.429-21.429q-10.857-10.857-26-10.857-15.429 0-25.714 10.857l-138.857 138.571-138.857-138.571q-10.286-10.857-25.714-10.857t-25.714 10.857l-21.429 21.429q-10.857 10.286-10.857 25.714 0 15.143 10.857 26l186 186q10.571 10.571 25.714 10.571 14.857 0 26-10.571l185.714-186q10.857-10.857 10.857-26z" horiz-adv-x="475" />
<glyph unicode="&#xe078;" d="M400 480c-32.848 0-58.656-22.56-77.184-57.376l-0.336 0.192c-26.912-52.688-66.976-86.816-110.864-86.816h-147.616c-35.888 0-64-35.152-64-80 0-44.88 28.112-80 64-80 17.648-0.064 31.92-14.336 31.92-32v-144c0-17.68 14.336-32 32-32h64c17.664 0 32 14.32 32 32v16c0 16-16 23.152-16 32v112c0 0.368 0.256 0.624 0.288 0.992 0.16 2.288 0.784 4.4 1.792 6.32 0.288 0.528 0.592 0.944 0.944 1.408 1.28 1.904 2.896 3.472 4.864 4.688 0.096 0.064 0.128 0.16 0.224 0.224 0.064 0 0.112 0.064 0.176 0.064 1.28 0.72 2.816 0.88 4.256 1.28 40.384-4.288 76.944-36.88 102.032-85.968l0.4 0.192c18.544-34.704 44.288-57.2 77.104-57.2 73.536 0 112 112.688 112 224s-38.464 224-112 224zM320 256c0 16.592 0.976 32.624 2.624 48h45.376c17.664 0 32-21.504 32-48 0-26.528-14.336-48-32-48h-45.376c-1.648 15.376-2.624 31.376-2.624 48zM32 256c0 26.496 14.336 48 32 48h112.224c-9.92-11.664-16.224-28.592-16.224-48 0-19.44 6.304-36.368 16.224-48h-112.224c-17.664 0-32 21.472-32 48zM191.92 0h-64v144c0 11.664-3.12 22.56-8.592 32h11.168v-0.192h48.128c-1.712-4.976-2.704-10.256-2.704-15.808v-112c0-15.408 8.608-25.664 13.744-31.776 0.704-0.848 1.536-1.712 2.256-2.656v-13.568zM211.616 207.808h-3.616v0.192c-17.664 0-32 21.472-32 48 0 26.496 14.336 48 32 48h3.616c30.176 0 58.432 11.872 83.296 32.288-4.576-25.76-6.912-53.040-6.912-80.288 0-27.344 2.336-54.72 6.944-80.496-24.88 20.432-53.152 32.304-83.328 32.304zM400 64c-32.288 0-60 45.936-72.656 112h40.656c35.872 0 64 35.12 64 80 0 44.848-28.128 80-64 80h-40.656c12.656 66.032 40.368 112 72.656 112 44.192 0 80-85.968 80-192s-35.808-192-80-192z" />
<glyph unicode="&#xe079;" d="M502.64 310.624l-160 160c-7.936 7.936-19.44 11.12-30.336 8.432-5.744-1.408-10.88-4.368-14.944-8.432-3.632-3.632-6.368-8.128-7.936-13.152-7.248-23.504-19.776-43.936-38.32-62.464-24.768-24.752-57.024-43.504-91.152-63.328-36.224-20.992-73.648-42.752-104.32-73.408-26.064-26.096-43.808-55.12-54.208-88.816-3.504-11.376-0.448-23.68 7.936-32.096l160-160c7.936-7.936 19.44-11.12 30.336-8.432 5.744 1.44 10.88 4.368 14.944 8.432 3.632 3.632 6.368 8.128 7.936 13.184 7.264 23.504 19.792 43.936 38.352 62.464 24.752 24.752 56.992 43.472 91.152 63.28 36.192 21.024 73.632 42.784 104.288 73.44 26.064 26.064 43.808 55.12 54.224 88.816 3.488 11.36 0.416 23.712-7.952 32.080zM192 0c-52.992 52.992-107.008 107.024-160 160 45.472 147.216 242.56 140.784 288 288 52.992-52.976 107.024-107.008 160.032-160-45.488-147.184-242.576-140.784-288.032-288zM312.992 241.6c-5.216 4.368-10.464 7.344-15.744 8.816-5.248 1.472-10.496 2.064-15.808 1.68-5.248-0.4-10.624-1.6-16-3.664-5.376-2.096-10.784-4.368-16.224-7.008-8.592 9.872-17.184 19.632-25.776 28.688 3.872 3.504 7.632 5.28 11.248 5.408 3.632 0.16 7.12-0.224 10.432-1.056 3.376-0.848 6.464-1.568 9.312-2.128 2.88-0.56 5.376 0.064 7.568 1.904 2.32 2 3.6 4.592 3.776 7.712 0.16 3.152-1.024 6.224-3.664 9.216-3.376 3.872-7.44 6.224-12.32 7.088-4.816 0.848-9.744 0.784-14.88-0.336-5.056-1.152-9.872-3.056-14.432-5.744s-8.224-5.44-10.944-8.128c-1.040 0.992-2.080 1.968-3.12 2.944-1.152 1.056-2.592 1.632-4.32 1.6-1.744 0-3.184-0.752-4.368-2.128-1.152-1.344-1.68-2.912-1.472-4.56 0.16-1.712 0.848-3.024 2.032-4.032 1.040-0.88 2.080-1.744 3.12-2.656-4.096-4.944-7.472-10.4-10.128-16.16-2.688-5.776-4.288-11.504-4.88-17.056-0.624-5.6-0.032-10.72 1.68-15.472 1.712-4.784 4.88-8.848 9.504-12.688 7.536-6.256 16.4-8.912 26.688-8.32 10.256 0.624 21.312 3.68 33.2 10.064 9.44-10.912 18.912-21.744 28.368-31.808-4-3.376-7.504-5.312-10.592-5.936-3.088-0.656-5.84-0.592-8.336 0.16-2.496 0.784-4.816 1.904-6.944 3.344-2.128 1.472-4.224 2.72-6.32 3.744-2.064 1.024-4.192 1.6-6.368 1.632s-4.496-1.024-7.056-3.216c-2.624-2.288-3.936-4.944-3.936-7.936 0-2.976 1.376-6 4.064-9.056 2.72-3.056 6.256-5.632 10.528-7.664s9.104-3.312 14.416-3.664c5.312-0.368 10.912 0.432 16.816 2.624 5.936 2.16 11.808 6.064 17.6 11.872 2.784-2.72 5.6-5.312 8.4-7.808 1.184-1.024 2.624-1.536 4.368-1.408 1.68 0.064 3.152 0.848 4.32 2.256 1.184 1.44 1.68 3.024 1.504 4.688-0.16 1.68-0.848 2.976-2 3.904-2.816 2.256-5.632 4.624-8.432 7.12 4.784 5.872 8.624 12.064 11.472 18.192 2.848 6.16 4.528 12.096 5.088 17.6 0.56 5.536-0.096 10.528-1.904 15.056-1.792 4.592-4.976 8.528-9.536 12.32zM223.536 230.752c-4.528-0.192-8.48 1.312-11.936 4.656-1.472 1.408-2.496 3.12-3.12 5.152-0.656 2.032-0.88 4.256-0.624 6.688 0.224 2.4 0.944 4.912 2.192 7.44 1.184 2.528 2.944 5.056 5.184 7.504 8.112-8.064 16.208-16.912 24.32-26.064-6.144-3.376-11.488-5.184-16.016-5.376zM299.008 198.72c-1.44-2.656-3.088-5.024-5.024-7.088-8.976 9.056-17.936 19.008-26.88 29.216 2.288 1.024 4.688 2.096 7.28 3.184s5.184 1.808 7.776 2.256c2.656 0.4 5.28 0.288 7.904-0.336 2.592-0.656 5.056-2.064 7.344-4.288 2.256-2.256 3.68-4.592 4.256-7.12 0.624-2.56 0.656-5.152 0.224-7.808-0.464-2.672-1.408-5.328-2.88-8.016zM235.472 125.12c3.152 2.544 7.792 2.416 10.688-0.528 3.136-3.12 3.136-8.224 0-11.344-0.256-0.256-0.528-0.432-0.816-0.656l0.032-0.032c-10.128-7.696-18.448-14.624-27.424-23.6-8.112-8.096-15.44-16.624-21.776-25.28l-10.224-14c-0.32-0.576-0.704-1.104-1.184-1.6-3.136-3.12-8.24-3.12-11.36 0-2.72 2.72-3.056 6.912-1.056 10.032l-0.032 0.032 10.944 14.944c6.832 9.344 14.688 18.496 23.376 27.184 9.040 9.072 18.8 17.168 28.8 24.848h0.032zM294.048 356.56c8.096 8.096 15.408 16.592 21.76 25.296l10.624 14.56c0.384 0.688 0.816 1.376 1.408 1.968 3.152 3.152 8.256 3.152 11.408 0 2.992-3.008 3.12-7.76 0.4-10.944l0.032-0.032-10.944-15.008c-6.848-9.344-14.688-18.464-23.376-27.152-9.040-9.040-18.784-17.168-28.784-24.848l-0.064 0.032c-3.184-2.928-8.128-2.864-11.184 0.224-3.152 3.152-3.152 8.288 0 11.44 0.56 0.592 1.216 1.008 1.872 1.376 9.408 7.184 18.48 14.72 26.848 23.088z" />
<glyph unicode="&#xe07a;" d="M256 160c0 17.673 14.327 32 32 32s32-14.327 32-32c0-17.673-14.327-32-32-32s-32 14.327-32 32zM464.016 272c-0.016 0-0.016 0 0 0l-0.016 96v48c0 26.512-21.504 48-48 48h-328c-48.528 0-88-39.488-88-88v-320c0-48.512 39.472-88 88-88h288c48.512 0 88 39.488 88 88v24c0 0 0 0 0.016 0 63.968 48.016 63.968 143.984 0 192zM88 432h328c8.816 0 16-7.168 16-16v-98.944c-5.024 1.792-10.368 2.944-16 2.944h-0.016v80c0 8.848-7.168 16-16 16h-336c-8.832 0-16-7.152-16-16v-63.088c-9.872 10.096-15.984 23.856-15.984 39.088 0 30.928 25.056 56 56 56zM399.984 384h-336v16h336v-16zM399.984 368v-16h-336v16h336zM399.984 336v-16h-311.984c-8.64 0-16.704 2.112-24 5.6v10.4h335.984zM432 56c0-30.928-25.072-56-56-56h-288c-30.944 0-56 25.072-56 56v252.176c15.216-12.592 34.736-20.176 56-20.176h328c8.816 0 16-7.168 16-16v-32h-144c-44.192 0-80-35.808-80-80s35.824-80 80-80h144v-24zM452.432 112h-164.432c-26.464 0-48 21.536-48 48s21.536 48 48 48h144c9.872 0.128 19.664 4.912 25.632 12.864 1.664 2.24 2.96 4.752 4 7.376 0.144 0.352 0.4 0.624 0.528 0.992 11.504-15.088 17.84-33.584 17.84-53.232 0-24.608-9.936-47.44-27.568-64z" />
<glyph unicode="&#xe07b;" d="M464 480h-352c-26.512 0-48-21.472-48-48v-32h-16c-26.512 0-48-21.472-48-48v-320c0-35.344 28.656-64 64-64h384c35.344 0 64 28.656 64 64v400c0 26.528-21.504 48-48 48zM480 32c0-17.632-14.368-32-32-32h-384c-17.648 0-32 14.368-32 32v320c0 8.832 7.168 16 16 16h16v-320c0-8.848 7.152-16 16-16s16 7.152 16 16v384c0 8.832 7.168 16 16 16h352c8.816 0 16-7.168 16-16v-400zM311.968 271.92c-4.4 0-8 3.584-8 8s3.6 8 8 8h128c4.432 0 8-3.584 8-8s-3.568-8-8-8h-128zM311.968 319.92c-4.4 0-8 3.584-8 8s3.6 8 8 8h128c4.432 0 8-3.584 8-8s-3.568-8-8-8h-128zM311.968 367.92c-4.4 0-8 3.584-8 8s3.6 8 8 8h128c4.432 0 8-3.584 8-8s-3.568-8-8-8h-128zM264 47.936c4.416 0 8-3.6 8-8 0-4.432-3.6-8-8-8h-128c-4.416 0-8 3.568-8 8 0 4.4 3.584 8 8 8h128zM264 95.936c4.416 0 8-3.6 8-8 0-4.432-3.6-8-8-8h-128c-4.416 0-8 3.568-8 8 0 4.4 3.584 8 8 8h128zM264 143.936c4.416 0 8-3.6 8-8 0-4.432-3.6-8-8-8h-128c-4.416 0-8 3.568-8 8 0 4.4 3.584 8 8 8h128zM440 47.936c4.4 0 8-3.6 8-8 0-4.432-3.6-8-8-8h-128c-4.432 0-8 3.568-8 8 0 4.4 3.568 8 8 8h128zM440 95.936c4.4 0 8-3.6 8-8 0-4.432-3.6-8-8-8h-128c-4.432 0-8 3.568-8 8 0 4.4 3.568 8 8 8h128zM440 143.936c4.4 0 8-3.6 8-8 0-4.432-3.6-8-8-8h-128c-4.432 0-8 3.568-8 8 0 4.4 3.568 8 8 8h128zM440 239.936c4.4 0 8-3.584 8-8s-3.6-8-8-8h-304c-4.416 0-8 3.584-8 8s3.584 8 8 8h304zM440 191.936c4.4 0 8-3.6 8-8 0-4.432-3.6-8-8-8h-304c-4.416 0-8 3.568-8 8 0 4.4 3.584 8 8 8h304zM144 272h112c8.848 0 16 7.152 16 16v111.936c0 8.848-7.152 16-16 16h-112c-8.848 0-16-7.152-16-16v-111.936c0-8.832 7.152-16 16-16zM160 384h80v-80h-80v80z" />
<glyph unicode="&#xe07c;" d="M128 383.664v48.336c0 26.464-21.536 48-48 48s-48-21.536-48-48v-48.336c-19.328-14.64-32-37.568-32-63.664s12.672-49.024 32-63.632v-240.368c0-26.464 21.536-48 48-48s48 21.536 48 48v240.368c19.328 14.592 32 37.536 32 63.632s-12.672 49.024-32 63.664zM64 432c0 8.848 7.152 16 16 16s16-7.152 16-16v-33.6c-5.168 1.040-10.512 1.6-16 1.6s-10.832-0.56-16-1.6v33.6zM96 16c0-8.848-7.152-16-16-16s-16 7.152-16 16v225.632c5.168-1.072 10.512-1.632 16-1.632s10.832 0.56 16 1.632v-225.632zM125.84 306.56c-0.256-0.848-0.48-1.68-0.784-2.528-1.52-4.224-3.472-8.224-6.048-11.776-0.064-0.096-0.16-0.16-0.224-0.256-2.784-3.808-6.096-7.184-9.856-10.032-0.064-0.064-0.112-0.096-0.16-0.128-3.856-2.912-8.16-5.248-12.784-6.88-5.008-1.808-10.336-2.96-15.984-2.96s-10.976 1.152-16 2.976c-4.624 1.632-8.928 3.968-12.784 6.88-0.048 0.032-0.096 0.064-0.16 0.128-3.76 2.848-7.072 6.224-9.856 10.032-0.064 0.096-0.16 0.16-0.224 0.256-2.576 3.568-4.528 7.568-6.048 11.776-0.304 0.848-0.528 1.68-0.784 2.528-1.264 4.272-2.144 8.736-2.144 13.424 0 4.72 0.88 9.184 2.16 13.472 0.256 0.848 0.48 1.68 0.784 2.496 1.504 4.224 3.456 8.224 6.048 11.808 0.064 0.096 0.16 0.16 0.224 0.256 2.784 3.776 6.096 7.184 9.856 10.032 0.064 0.032 0.112 0.096 0.16 0.128 3.84 2.864 8.144 5.216 12.768 6.864 5.024 1.792 10.352 2.944 16 2.944s10.976-1.152 16-2.944c4.624-1.664 8.928-4 12.784-6.88 0.048-0.032 0.096-0.096 0.16-0.128 3.76-2.848 7.072-6.256 9.856-10.032 0.064-0.096 0.16-0.16 0.224-0.256 2.576-3.568 4.528-7.568 6.032-11.792 0.304-0.816 0.544-1.648 0.784-2.496 1.28-4.288 2.16-8.752 2.16-13.472 0-4.688-0.88-9.152-2.16-13.44zM480 383.664v48.336c0 26.464-21.536 48-48 48s-48-21.536-48-48v-48.336c-19.344-14.64-32-37.568-32-63.664s12.656-49.024 32-63.632v-240.368c0-26.464 21.536-48 48-48s48 21.536 48 48v240.368c19.312 14.592 32 37.536 32 63.632s-12.688 49.024-32 63.664zM416 432c0 8.848 7.152 16 16 16s16-7.152 16-16v-33.6c-5.184 1.040-10.528 1.6-16 1.6-5.504 0-10.848-0.56-16-1.6v33.6zM448 16c0-8.848-7.152-16-16-16s-16 7.152-16 16v225.632c5.152-1.072 10.496-1.632 16-1.632 5.472 0 10.816 0.56 16 1.632v-225.632zM477.84 306.56c-0.256-0.848-0.496-1.68-0.784-2.528-1.536-4.224-3.472-8.224-6.064-11.776-0.064-0.096-0.16-0.16-0.224-0.256-2.784-3.808-6.096-7.184-9.84-10.032-0.064-0.064-0.128-0.096-0.16-0.128-3.872-2.912-8.16-5.248-12.784-6.88-5.008-1.808-10.352-2.96-15.984-2.96-5.664 0-10.976 1.152-16 2.976-4.624 1.632-8.944 3.968-12.784 6.88-0.064 0.032-0.096 0.064-0.16 0.128-3.776 2.848-7.088 6.224-9.872 10.032-0.064 0.096-0.16 0.16-0.224 0.256-2.56 3.568-4.528 7.568-6.032 11.776-0.32 0.848-0.528 1.68-0.784 2.528-1.264 4.272-2.144 8.736-2.144 13.424 0 4.72 0.88 9.184 2.16 13.472 0.256 0.848 0.464 1.68 0.784 2.496 1.504 4.224 3.472 8.224 6.032 11.808 0.064 0.096 0.16 0.16 0.224 0.256 2.784 3.776 6.096 7.184 9.872 10.032 0.064 0.032 0.096 0.096 0.16 0.128 3.84 2.88 8.16 5.216 12.784 6.88 5.008 1.776 10.32 2.928 15.984 2.928 5.632 0 10.976-1.152 16-2.944 4.624-1.664 8.912-4 12.784-6.88 0.032-0.032 0.096-0.096 0.16-0.128 3.744-2.848 7.056-6.256 9.84-10.032 0.064-0.096 0.16-0.16 0.224-0.256 2.592-3.6 4.528-7.6 6.064-11.808 0.288-0.816 0.528-1.664 0.784-2.496 1.264-4.272 2.144-8.736 2.144-13.456 0-4.688-0.88-9.152-2.16-13.44zM304 191.664v240.336c0 26.464-21.536 48-48 48s-48-21.536-48-48v-240.336c-19.328-14.624-32-37.568-32-63.664s12.672-49.024 32-63.632v-48.368c0-26.464 21.536-48 48-48s48 21.536 48 48v48.368c19.312 14.592 32 37.536 32 63.632s-12.688 49.024-32 63.664zM240 432c0 8.848 7.152 16 16 16s16-7.152 16-16v-225.6c-5.184 1.024-10.528 1.6-16 1.6-5.488 0-10.832-0.56-16-1.6v225.6zM272 16c0-8.848-7.152-16-16-16s-16 7.152-16 16v33.632c5.168-1.072 10.512-1.632 16-1.632 5.472 0 10.816 0.56 16 1.632v-33.632zM301.84 114.56c-0.256-0.848-0.496-1.68-0.784-2.528-1.536-4.224-3.472-8.224-6.064-11.776-0.064-0.096-0.16-0.16-0.224-0.256-2.784-3.808-6.096-7.184-9.84-10.032-0.064-0.064-0.128-0.096-0.16-0.128-3.872-2.912-8.16-5.248-12.784-6.88-5.008-1.808-10.352-2.96-15.984-2.96-5.648 0-10.976 1.152-16 2.976-4.624 1.632-8.928 3.968-12.784 6.88-0.048 0.032-0.096 0.064-0.16 0.128-3.76 2.848-7.072 6.224-9.856 10.032-0.064 0.096-0.16 0.16-0.224 0.256-2.576 3.568-4.528 7.568-6.048 11.776-0.304 0.848-0.528 1.68-0.784 2.528-1.264 4.272-2.144 8.736-2.144 13.424 0 4.72 0.88 9.184 2.16 13.472 0.256 0.848 0.48 1.68 0.784 2.496 1.52 4.224 3.472 8.224 6.048 11.808 0.064 0.096 0.16 0.16 0.224 0.256 2.784 3.776 6.096 7.184 9.856 10.032 0.064 0.032 0.112 0.096 0.16 0.128 3.856 2.88 8.16 5.216 12.784 6.88 5.008 1.776 10.336 2.928 15.984 2.928 5.632 0 10.976-1.152 16-2.944 4.624-1.664 8.912-4 12.784-6.88 0.032-0.032 0.096-0.096 0.16-0.128 3.744-2.848 7.056-6.256 9.84-10.032 0.064-0.096 0.16-0.16 0.224-0.256 2.592-3.6 4.528-7.6 6.064-11.808 0.288-0.816 0.528-1.664 0.784-2.496 1.264-4.272 2.144-8.736 2.144-13.456 0-4.688-0.88-9.152-2.16-13.44z" />
</font>
</defs>
</svg>
