<?xml version="1.0" encoding="utf-8"?>
<!-- Generator: Adobe Illustrator 16.0.0, SVG Export Plug-In . SVG Version: 6.00 Build 0)  -->
<!DOCTYPE svg PUBLIC "-//W3C//DTD SVG 1.1//EN" "http://www.w3.org/Graphics/SVG/1.1/DTD/svg11.dtd">
<svg version="1.1" id="Layer_1" xmlns="http://www.w3.org/2000/svg" xmlns:xlink="http://www.w3.org/1999/xlink" x="0px" y="0px"
	 width="200px" height="200px" viewBox="0 0 200 200" enable-background="new 0 0 200 200" xml:space="preserve">
<g>
	<path d="M100,61.649c0,0-15.552,14.732-32.834,32.015c-17.283,17.284,9.685,37.899,23.017,24.566L96,112.43v8.312
		c0,0-1.695,9.383-13.546,14.156c0,0,0.104,2.797,3.067,1.646c2.963-1.152,8.546-1.646,14.472-1.646
		c5.926,0,11.47,0.493,14.433,1.646c2.963,1.151,3.045-1.646,3.045-1.646C105.62,130.124,104,120.741,104,120.741v-8.312
		l5.781,5.801c13.332,13.333,40.275-7.282,22.992-24.566C115.491,76.381,100,61.649,100,61.649z"/>
	<path d="M198.65,86.2l-21.329,2.728c-1.301-9.849-4.425-19.119-9.042-27.453l18.416-11.1
		c-14.148-25.06-38.842-43.372-68.059-48.918l-3.996,21.122c-4.756-0.905-9.657-1.397-14.675-1.397
		c-4.752,0-9.396,0.448-13.915,1.262L81.18,1.479c-29.157,5.569-53.797,23.855-67.93,48.87l18.858,10.33
		c-4.699,8.252-7.944,17.438-9.368,27.219L1.301,86.052c-0.571,4.314-0.871,8.714-0.871,13.184c0,25.956,9.938,49.587,26.213,67.307
		l15.637-14.729c6.583,7.219,14.508,13.191,23.374,17.538l-8.38,19.818c12.938,6.153,27.411,9.6,42.69,9.6
		c15.118,0,29.444-3.376,42.277-9.406l-9.182-19.435c8.97-4.206,17-10.069,23.712-17.194l16.253,14.089
		c16.43-17.751,26.476-41.494,26.476-67.588C199.5,94.816,199.209,90.467,198.65,86.2z M99.965,159.76
		c-33.427,0-60.524-27.099-60.524-60.524c0-33.427,27.098-60.525,60.524-60.525c33.426,0,60.525,27.098,60.525,60.525
		C160.49,132.661,133.392,159.76,99.965,159.76z"/>
</g>
</svg>
