<?xml version="1.0" encoding="utf-8"?>
<!-- Generator: Adobe Illustrator 16.0.0, SVG Export Plug-In . SVG Version: 6.00 Build 0)  -->
<!DOCTYPE svg PUBLIC "-//W3C//DTD SVG 1.1//EN" "http://www.w3.org/Graphics/SVG/1.1/DTD/svg11.dtd">
<svg version="1.1" id="Layer_1" xmlns="http://www.w3.org/2000/svg" xmlns:xlink="http://www.w3.org/1999/xlink" x="0px" y="0px"
	 width="200px" height="200px" viewBox="0 0 200 200" enable-background="new 0 0 200 200" xml:space="preserve">
<path d="M99.987,0.429c-55.176,0-99.904,44.729-99.904,99.904c0,55.175,44.729,99.904,99.904,99.904
	c55.175,0,99.904-44.729,99.904-99.904C199.892,45.157,155.162,0.429,99.987,0.429z M157.493,92.276
	c-5.897,6.255-10.017,9.685-16.126,7.724c-0.006-0.002-0.01-0.003-0.016-0.005c-7.01-3.991-15.132-8.19-23.067-11.327
	c-0.008-0.003-0.013-0.007-0.021-0.011c-3.687-1.919-6.471-10.928-9.419-19.446c-2.948-8.517-4.965-16.933-2.69-19.633
	c0.002-0.002,0.003-0.004,0.005-0.006c5.038-5.98,12.136-14.402,16.901-20.037c0.001-0.001,0.002-0.001,0.003-0.002
	c2.175-2.569,10.76-0.779,19.032,5.363c8.208,6.096,11.925,8.989,12.901,10.661c4.164,7.192,8.508,16.857,11.211,29.609
	C166.952,82.562,163.39,86.021,157.493,92.276z M134.438,152.834c-0.421,0.249-0.906,0.562-1.467,0.954
	c-1,0.639-1.989,1.246-2.965,1.823c-6.603,3.54-14.696,4.635-20.671,2.502c-6.872-2.455-14.48-7.116-17.053-10.361
	c-4.726-12.875-6.353-27.025-6.873-36.872c-0.065-1.796,5.51-6.377,12.132-10.792c6.624-4.417,14.051-10.125,17.381-9.536
	c10.304,3.827,21.321,9.808,29.806,14.864c2.446,2.582,4.41,8.599,5.393,15.965c0.978,7.335,2.782,14.41,1.232,16.365
	C146.512,143.862,140.388,148.884,134.438,152.834z M73.47,187.207c-0.004,0.002-0.008,0-0.012,0.003
	c-1.067,0.628-4.182,0.864-11.555-2.313c-7.684-3.467-14.81-7.951-21.208-13.28c-5.285-4.604-9.917-9.612-13.286-13.583
	c-3.477-4.367-6.566-9.054-9.219-14.01c-0.244-1.183,0.033-2.11,1.1-2.204c2.826-0.248,5.533-0.82,5.533-0.82h0.004
	c8.703,8,17.84,14.133,25.844,18.318c0.181,0.137,0.479,0.357,0.928,0.602c4.3,2.334,14.496,14.883,17.936,18.69
	C72.97,182.415,74.926,186.329,73.47,187.207z M42.329,27.789C45.11,26.763,50,27.269,53,32.079v-0.002
	C55,35.539,57.647,40,60.311,44H60.31c3.386,5,3.573,7.156,2.099,12.398c-1.474,5.241-6.552,20.37-7.699,24.547
	c-1.146,4.177-4.458,8.118-10.361,11.382c-0.021,0.012-0.039-0.003-0.06,0.008c-6.008,3.21-11.666,6.582-16.515,9.65
	c-0.002,0.001-0.003-0.005-0.005-0.004c-6.016,2.832-7.251,2.081-10.568-3.325c-3.317-5.405-8.6-11.551-7.862-17.202
	c0.668-5.125,5.827-18.131,10.805-28.206C25.922,43.466,33.487,34.837,42.329,27.789z M189.515,104
	c-1.638-2-15.314-17.23-17.28-21.079c-1.473-2.884-2.945-7.944-3.591-10.396c-0.108-0.467-0.224-0.93-0.335-1.389
	c0-0.007-0.005-0.032-0.005-0.036c0-0.002,0.106,0.012,0.108,0.013C165.434,58.914,161,49.659,157,42.776v-0.004
	c0,0,4.613-8.858,5.758-8.94c1.146-0.082,14.361,13.677,19.604,25.716c5.24,12.039,9.638,29.188,9.883,37.214
	c0.138,4.486-0.527,6.238-1.241,7.238H189.515z M121,27.833c0,0.001,0,0.002,0,0.002c-6,6.097-13.038,15.232-18.038,21.168
	c-0.491,0.318-1.103,0.664-1.644,1.044c-2.458,1.72-28.628,1.638-32.887-1.556c-0.955-0.716-1.734-1.286-2.347-1.749
	c-4.108-5.847-8.673-12.922-11.899-18.039c-2.096-3.354,1.021-7.731,2.823-9.696c1.802-1.965,14.084-8.845,33.904-10.155
	c19.819-1.31,20.897,1.229,24.092,5.242S123,25.097,121,27.833z M61.452,161.215c-8.79-3.656-20.831-9.944-32.368-20.172
	c-2.148-1.897-3.533-9.604-4.267-14.379c-0.737-4.791-2.457-15.845-0.136-19.186c7.164-4.722,17.148-10.868,27.628-15.958
	c3.756-1.761,9.44,2.59,14.765,6.438c5.327,3.85,15.145,10.234,15.395,13.927c0.001,0.015,0.003,0.028,0.004,0.043
	c0.499,8.819,1.888,20.737,5.495,32.308c0.002,0.011,0.003,0.02,0.005,0.029C89.211,151.669,66.73,161.789,61.452,161.215z
	 M176,146.341c0-0.006,0-0.014,0-0.019c0-1.295,11.626-16.322,14.659-39.322h1.817c-1.197,17-7.112,32.918-16.361,46.228
	C176.294,150.591,177,148.25,176,146.341z M81.846,191.276c0.055-0.042,0.091-0.083,0.095-0.117c0.123-0.86,7.862-2.089,12.04-3.071
	c4.177-0.982,17.798-2.148,21.486-0.087c0.018,0.01,0.035,0.018,0.052,0.027c0.146,0.077,0.289,0.153,0.434,0.229
	c0.087,0.045,0.172,0.091,0.26,0.135c1.577,0.825,3.148,1.604,4.619,2.31c-6.7,1.539-13.677,2.354-20.844,2.354
	C93.778,193.056,87.713,192.44,81.846,191.276z M125.334,189.548c-2.174-0.991-4.896-2.281-7.621-3.697
	c-0.003-0.002-0.007-0.005-0.011-0.007c-2.746-1.39,0.479-8.689,1.708-13.48s3.037-9.336,7.627-11.636
	c4.589-2.3,8.533-5.034,8.533-5.034s0.003-0.004,0.003-0.005c5.542-3.636,11.282-8.204,16.138-13.751
	c0.031-0.034,0.058-0.054,0.09-0.093c1.661-1.992,8.796,0.789,12.895,1.895c4.099,1.106,7.391,1.975,8.631,5.286
	c0.065,2.454-0.094,5.413-0.661,8.886C160.749,172.933,144.277,184.176,125.334,189.548z"/>
</svg>
