<?xml version="1.0" encoding="utf-8"?>
<!-- Generator: Adobe Illustrator 16.0.0, SVG Export Plug-In . SVG Version: 6.00 Build 0)  -->
<!DOCTYPE svg PUBLIC "-//W3C//DTD SVG 1.1//EN" "http://www.w3.org/Graphics/SVG/1.1/DTD/svg11.dtd">
<svg version="1.1" id="Layer_1" xmlns="http://www.w3.org/2000/svg" xmlns:xlink="http://www.w3.org/1999/xlink" x="0px" y="0px"
	 width="200px" height="200px" viewBox="0 0 200 200" enable-background="new 0 0 200 200" xml:space="preserve">
<path d="M99,1.525C44.614,1.525,0.525,45.615,0.525,100S44.614,198.475,99,198.475c54.385,0,98.475-44.09,98.475-98.475
	S153.385,1.525,99,1.525z M180.472,70.46c2.19,6.041,3.727,12.396,4.527,18.977l-19.091,1.571
	c-0.557-4.179-1.493-8.235-2.776-12.136L180.472,70.46z M154.142,33.17c5.14,4.245,9.776,9.075,13.818,14.381l-15.75,10.908
	c-2.653-3.394-5.621-6.525-8.864-9.353L154.142,33.17z M112.106,14.345c6.797,1.032,13.332,2.858,19.515,5.372l-8.194,17.336
	c-4.126-1.603-8.445-2.81-12.919-3.579L112.106,14.345z M85.839,14.353L87.24,33.52c-4.394,0.772-8.639,1.967-12.696,3.544
	L66.373,19.72C72.54,17.211,79.059,15.386,85.839,14.353z M43.862,33.167l10.813,15.921c-3.259,2.841-6.241,5.986-8.905,9.397
	L30.035,47.558C34.08,42.247,38.719,37.414,43.862,33.167z M17.531,70.454l17.347,8.393c-1.301,3.944-2.244,8.047-2.8,12.274
	l-19.086-1.594C13.789,82.911,15.329,76.524,17.531,70.454z M19.158,133.699c-2.46-5.82-4.303-11.967-5.444-18.356l19.212-1.404
	c0.841,4.009,2.045,7.884,3.563,11.597L19.158,133.699z M46.074,168.595c-4.95-3.825-9.475-8.174-13.491-12.964l15.928-10.817
	c2.593,2.919,5.436,5.607,8.494,8.04L46.074,168.595z M86.177,185.694c-6.164-0.914-12.114-2.479-17.782-4.621l8.377-17.314
	c3.475,1.211,7.078,2.145,10.784,2.777L86.177,185.694z M111.72,185.708l-1.573-19.118c3.801-0.632,7.492-1.582,11.05-2.82
	l8.398,17.308C123.898,183.228,117.916,184.797,111.72,185.708z M139.634,132.091c-0.521,0.658-1.058,1.304-1.608,1.937
	c-0.005,0.006-0.01,0.012-0.014,0.017c-0.558,0.638-1.129,1.262-1.716,1.87c-1.345,1.396-2.759,2.725-4.253,3.963
	c-5.17,4.289-11.187,7.592-17.763,9.619c-1.782,0.55-3.607,0.997-5.465,1.354c-1.575,0.302-3.173,0.535-4.795,0.694
	c-0.154,0.016-0.312,0.021-0.467,0.036c-0.664,0.059-1.33,0.112-2.001,0.146c-0.846,0.041-1.696,0.064-2.553,0.064
	c-0.885,0-1.764-0.288-2.638-0.331c-0.866-0.044-1.728-0.46-2.582-0.46c-0.003,0-0.006,0-0.009,0c-1.719,0-3.414-0.166-5.079-0.503
	c-1.705-0.344-3.379-0.638-5.018-1.146c-6.543-2.023-12.531-5.244-17.68-9.508c-1.52-1.258-2.958-2.578-4.325-4
	c-0.583-0.607-1.153-1.212-1.706-1.847c-0.003-0.004-0.007,0-0.011-0.004c-0.551-0.633-1.086-1.273-1.606-1.932
	c-0.005-0.006-0.009-0.01-0.014-0.016c-0.519-0.657-1.021-1.326-1.508-2.008c-0.005-0.008-0.011-0.016-0.017-0.022
	c-0.486-0.682-0.956-1.376-1.409-2.082c-0.005-0.008-0.009-0.016-0.014-0.021c-0.454-0.708-0.891-1.427-1.31-2.157
	c-0.003-0.006-0.006-0.012-0.01-0.018c-0.42-0.732-0.824-1.477-1.209-2.231c-0.002-0.003-0.003-0.007-0.005-0.01
	c-0.386-0.758-0.754-1.525-1.104-2.304c0-0.002-0.001-0.003-0.002-0.004c-0.35-0.779-0.681-1.568-0.993-2.368
	c-0.766-1.961-1.425-3.975-1.95-6.043c-0.239-0.942-0.446-1.897-0.633-2.858c-0.047-0.244-0.087-0.49-0.131-0.733
	c-0.131-0.729-0.247-1.46-0.346-2.197c-0.042-0.307-0.082-0.613-0.117-0.922c-0.083-0.715-0.149-1.436-0.204-2.159
	c-0.022-0.294-0.05-0.585-0.067-0.88c-0.058-1.002-0.095-2.01-0.095-3.027c0-0.781,0.024-1.556,0.059-2.329
	c0.013-0.284,0.03-0.567,0.047-0.85c0.029-0.477,0.067-0.951,0.108-1.424c0.031-0.342,0.058-0.686,0.095-1.026
	c0.065-0.608,0.144-1.211,0.23-1.812c0.006-0.042,0.01-0.085,0.017-0.127c0.333-2.274,0.821-4.495,1.439-6.661
	c0.482-1.69,1.047-3.345,1.691-4.959c0-0.001,0.001-0.002,0.001-0.003c0.32-0.802,0.66-1.593,1.018-2.374
	c0.005-0.012,0.01-0.022,0.015-0.033c0.352-0.768,0.724-1.525,1.112-2.272c0.013-0.023,0.025-0.048,0.037-0.073
	c0.383-0.732,0.784-1.455,1.2-2.167c0.02-0.035,0.039-0.07,0.06-0.104c0.415-0.706,0.847-1.4,1.293-2.083
	c0.023-0.035,0.044-0.071,0.068-0.106c0.451-0.687,0.919-1.361,1.401-2.025c0.02-0.028,0.039-0.056,0.059-0.084
	c0.5-0.683,1.015-1.355,1.547-2.014c1.509-1.867,3.147-3.625,4.897-5.265c1.89-1.771,3.912-3.402,6.05-4.878
	c0.001-0.001,0.001-0.001,0.001-0.002c0.703-0.485,1.419-0.952,2.146-1.403c0.014-0.008,0.028-0.018,0.042-0.026
	c0.722-0.446,1.456-0.875,2.201-1.286c0.018-0.01,0.035-0.021,0.053-0.03c2.289-1.259,4.682-2.351,7.166-3.257
	c2.306-0.84,4.689-1.434,7.136-1.943C89.252,49.207,90.114,49,90.982,49c0,0,0.001,0,0.002,0c0.828,0,1.663-0.321,2.503-0.411
	c0.045-0.004,0.09-0.055,0.136-0.06c0.769-0.08,1.544-0.157,2.323-0.203c0.119-0.007,0.236-0.032,0.355-0.038
	c0.894-0.046,1.793-0.074,2.698-0.074c0.877,0,1.75,0.02,2.616,0.063c0.796,0.04,1.586,0.101,2.372,0.176
	c0.061,0.006,0.123,0.007,0.185,0.013c1.698,0.17,3.373,0.422,5.021,0.751c2.572,0.514,5.075,1.215,7.494,2.094
	c6.663,2.42,12.682,6.177,17.748,10.937c1.721,1.615,3.334,3.344,4.821,5.18c0.535,0.662,1.056,1.337,1.56,2.027
	c0.021,0.029,0.042,0.06,0.064,0.09c0.482,0.663,0.95,1.337,1.401,2.022c0.027,0.042,0.054,0.086,0.082,0.128
	c0.443,0.679,0.873,1.369,1.286,2.069c0.024,0.042,0.048,0.084,0.073,0.127c0.413,0.708,0.812,1.425,1.192,2.154
	c0.016,0.031,0.031,0.063,0.048,0.093c0.387,0.744,0.756,1.498,1.106,2.263c0.008,0.017,0.016,0.034,0.022,0.051
	c0.357,0.78,0.697,1.57,1.017,2.371c0.001,0.004,0.002,0.008,0.004,0.01c0.646,1.624,1.213,3.287,1.696,4.987
	c0.788,2.773,1.358,5.635,1.675,8.577c0.032,0.295,0.056,0.592,0.083,0.888c0.048,0.518,0.087,1.039,0.119,1.562
	c0.017,0.265,0.032,0.528,0.045,0.794c0.035,0.782,0.06,1.566,0.06,2.358c0,1.021-0.038,2.031-0.096,3.037
	c-0.018,0.312-0.047,0.619-0.071,0.93c-0.054,0.705-0.118,1.406-0.199,2.104c-0.04,0.337-0.082,0.675-0.129,1.011
	c-0.095,0.7-0.207,1.396-0.33,2.087c-0.053,0.288-0.099,0.578-0.154,0.864c-0.19,0.963-0.398,1.919-0.641,2.862
	c-0.516,2.014-1.162,3.975-1.906,5.886c-0.312,0.797-0.64,1.586-0.989,2.362c-0.003,0.007-0.006,0.014-0.008,0.021
	c-0.35,0.778-0.716,1.545-1.102,2.301c-0.004,0.009-0.009,0.016-0.013,0.024c-0.385,0.754-0.786,1.497-1.205,2.228
	c-0.007,0.013-0.015,0.023-0.021,0.035c-0.418,0.728-0.854,1.444-1.305,2.149c-0.009,0.014-0.019,0.027-0.026,0.041
	c-0.452,0.703-0.92,1.396-1.404,2.075c-0.01,0.013-0.019,0.026-0.028,0.038c-0.485,0.681-0.987,1.349-1.504,2.004
	C139.651,132.069,139.643,132.08,139.634,132.091z M151.935,168.587l-10.911-15.756c3.038-2.421,5.865-5.092,8.443-7.993
	l15.943,10.801C161.397,160.423,156.879,164.766,151.935,168.587z M178.846,133.689l-17.323-8.187
	c1.499-3.673,2.689-7.503,3.528-11.465l19.22,1.384C183.129,121.778,181.294,127.896,178.846,133.689z M141.125,100.332
	c0,3.55-3.065,7.188-6.776,7.188c-3.71,0-7.341-3.52-7.341-3.52h-13.549c-1.41,5-5.459,8.768-10.459,9.92v13.347
	c0,0,3.688,3.226,3.688,7.744c0,4.518-3.723,6.696-7.271,6.696c-3.551,0-7.113-3.066-7.113-6.776c0-3.711,3.697-7.341,3.697-7.341
	v-13.795C91,112.513,87.358,109,85.993,104h-13.68c0,0-3.227,3.531-7.745,3.531c-4.518,0-6.696-3.88-6.696-7.43
	s3.066-7.008,6.776-7.008S71.99,97,71.99,97h13.754C86.841,92,91,87.571,96,86.205V72.895c0,0-3.663-3.227-3.663-7.744
	c0-4.518,3.734-6.696,7.284-6.696c3.55,0,7.094,3.066,7.094,6.776S103,72.571,103,72.571v13.509C108,87.305,112.577,92,113.708,97
	h12.977c0,0,3.227-3.819,7.745-3.819C138.947,93.181,141.125,96.782,141.125,100.332z"/>
</svg>
